<svg width="293" height="205" viewBox="0 0 293 205" fill="none" xmlns="http://www.w3.org/2000/svg">
<g clip-path="url(#clip0_12_75)">
<path d="M170.672 36.1391C176.163 36.1391 180.615 31.8567 180.615 26.574C180.615 21.2914 176.163 17.009 170.672 17.009C165.181 17.009 160.729 21.2914 160.729 26.574C160.729 31.8567 165.181 36.1391 170.672 36.1391Z" fill="#D8D8D8"/>
<path d="M247.803 178.095C262.582 167.266 269.641 149.069 265.222 131.71C265.112 131.279 264.996 130.849 264.874 130.419C261.944 120.115 254.696 110.322 244.132 107.03C235.262 104.266 225.58 106.391 216.326 105.292C198.161 103.134 184.077 88.9947 174.168 74.1907C164.259 59.3867 156.643 42.8158 143.476 30.5855C121.771 10.426 86.3658 6.08559 59.4555 19.2079C32.5452 32.3303 15.4036 61.4434 16.1347 90.4582C16.8658 119.473 34.7712 147.213 60.7743 161.931C70.3268 167.338 81.3752 171.168 92.3705 169.828C101.911 168.665 110.58 163.734 120.075 162.269C135.005 159.968 149.839 166.461 162.752 174.028C175.665 181.595 188.137 190.564 202.811 194.072C217.059 197.478 234.711 187.687 247.803 178.095Z" fill="#D8D8D8"/>
<path d="M226.569 19.8173C226.245 19.6095 225.917 19.4125 225.593 19.2119C216.228 13.45 206.19 8.76916 195.687 5.26598L193.251 37.5855H177.812V0.548092C176.84 0.354647 175.861 0.17195 174.882 0V37.5855H156.534C146.434 37.5855 136.747 33.7256 129.605 26.855C122.463 19.9844 118.45 10.6659 118.45 0.949352V0.949319C117.467 1.15351 116.492 1.37203 115.516 1.60488V37.5855H100.572L98.2523 6.76697C87.4586 10.7492 77.2115 15.9859 67.739 22.3607C67.5752 22.4682 67.4114 22.5793 67.2512 22.6867C66.4283 23.242 65.6165 23.808 64.8084 24.3812V147.68H108.85L108.072 137.31L103.79 80.369H190.03L185.748 137.31L184.97 147.68H228.524V21.0639C227.876 20.6412 227.224 20.2257 226.569 19.8173ZM115.516 70.9654H103.082L100.785 40.4084H115.516V70.9654ZM174.882 70.9654H153.998V70.36C153.998 70.069 153.939 69.7808 153.823 69.5119C153.707 69.2431 153.537 68.9989 153.323 68.7933C153.109 68.5876 152.855 68.4246 152.575 68.3136C152.295 68.2026 151.996 68.1456 151.693 68.1461H142.615C142.312 68.146 142.013 68.2032 141.734 68.3144C141.454 68.4256 141.201 68.5887 140.987 68.7943C140.773 68.9999 140.604 69.244 140.488 69.5126C140.373 69.7813 140.313 70.0692 140.313 70.36V70.9654H118.45V40.4084H174.882V70.9654ZM177.812 70.9654V40.4084H193.039L190.742 70.9654H177.812Z" fill="#3F3D56"/>
<path d="M-1.52588e-05 155.576C3.23499 159.263 6.73401 162.729 10.4715 165.947L282.529 166.305C286.266 163.087 289.765 159.622 293 155.934L-1.52588e-05 155.576Z" fill="#3F3D56"/>
<path d="M184.491 122.368V153.07C184.491 153.461 184.653 153.837 184.94 154.113C185.228 154.39 185.618 154.545 186.025 154.546H233.319C233.726 154.545 234.116 154.39 234.403 154.113C234.691 153.837 234.853 153.461 234.853 153.07V122.368C234.852 121.977 234.69 121.603 234.403 121.327C234.115 121.05 233.726 120.895 233.319 120.894H186.025C185.618 120.895 185.229 121.05 184.941 121.327C184.654 121.603 184.492 121.977 184.491 122.368Z" fill="#3F3D56"/>
<path d="M185.6 122.75V152.691C185.601 152.9 185.687 153.101 185.841 153.249C185.994 153.396 186.203 153.48 186.42 153.48H232.925C233.143 153.48 233.351 153.396 233.505 153.249C233.658 153.101 233.745 152.9 233.745 152.691V122.75C233.745 122.541 233.659 122.34 233.505 122.192C233.352 122.044 233.143 121.961 232.925 121.96H186.42C186.202 121.961 185.994 122.044 185.84 122.192C185.687 122.34 185.6 122.541 185.6 122.75Z" fill="#BFA2DB"/>
<path d="M183.502 159.058C183.588 159.162 183.698 159.247 183.824 159.304C183.949 159.362 184.086 159.392 184.225 159.391H234.867C235.005 159.391 235.142 159.361 235.267 159.303C235.392 159.246 235.502 159.163 235.589 159.059C235.676 158.956 235.739 158.835 235.771 158.705C235.804 158.576 235.806 158.441 235.778 158.311L234.991 154.719C234.959 154.572 234.889 154.436 234.787 154.322C234.686 154.208 234.557 154.121 234.411 154.067C234.306 154.028 234.194 154.007 234.081 154.007H185.008C184.895 154.007 184.783 154.028 184.678 154.067C184.532 154.121 184.403 154.208 184.301 154.322C184.2 154.436 184.13 154.572 184.097 154.719L183.311 158.311C183.283 158.441 183.286 158.576 183.319 158.705C183.352 158.834 183.414 158.955 183.502 159.058Z" fill="#2F2E41"/>
<path d="M232.343 155.554H233.539C233.64 155.554 233.721 155.476 233.721 155.38V154.829C233.721 154.732 233.64 154.654 233.539 154.654H232.343C232.243 154.654 232.161 154.732 232.161 154.829V155.38C232.161 155.476 232.243 155.554 232.343 155.554Z" fill="#3F3D56"/>
<path d="M229.224 155.554H230.42C230.52 155.554 230.601 155.476 230.601 155.38V154.829C230.601 154.732 230.52 154.654 230.42 154.654H229.224C229.123 154.654 229.042 154.732 229.042 154.829V155.38C229.042 155.476 229.123 155.554 229.224 155.554Z" fill="#3F3D56"/>
<path d="M226.104 155.554H227.3C227.4 155.554 227.482 155.476 227.482 155.38V154.829C227.482 154.732 227.4 154.654 227.3 154.654H226.104C226.004 154.654 225.922 154.732 225.922 154.829V155.38C225.922 155.476 226.004 155.554 226.104 155.554Z" fill="#3F3D56"/>
<path d="M222.985 155.554H224.181C224.281 155.554 224.363 155.476 224.363 155.38V154.829C224.363 154.732 224.281 154.654 224.181 154.654H222.985C222.884 154.654 222.803 154.732 222.803 154.829V155.38C222.803 155.476 222.884 155.554 222.985 155.554Z" fill="#3F3D56"/>
<path d="M219.865 155.554H221.061C221.162 155.554 221.243 155.476 221.243 155.38V154.829C221.243 154.732 221.162 154.654 221.061 154.654H219.865C219.765 154.654 219.683 154.732 219.683 154.829V155.38C219.683 155.476 219.765 155.554 219.865 155.554Z" fill="#3F3D56"/>
<path d="M216.746 155.554H217.942C218.042 155.554 218.124 155.476 218.124 155.38V154.829C218.124 154.732 218.042 154.654 217.942 154.654H216.746C216.645 154.654 216.564 154.732 216.564 154.829V155.38C216.564 155.476 216.645 155.554 216.746 155.554Z" fill="#3F3D56"/>
<path d="M213.626 155.554H214.822C214.923 155.554 215.004 155.476 215.004 155.38V154.829C215.004 154.732 214.923 154.654 214.822 154.654H213.626C213.526 154.654 213.444 154.732 213.444 154.829V155.38C213.444 155.476 213.526 155.554 213.626 155.554Z" fill="#3F3D56"/>
<path d="M210.507 155.554H211.703C211.803 155.554 211.885 155.476 211.885 155.38V154.829C211.885 154.732 211.803 154.654 211.703 154.654H210.507C210.406 154.654 210.325 154.732 210.325 154.829V155.38C210.325 155.476 210.406 155.554 210.507 155.554Z" fill="#3F3D56"/>
<path d="M207.387 155.554H208.583C208.684 155.554 208.765 155.476 208.765 155.38V154.829C208.765 154.732 208.684 154.654 208.583 154.654H207.387C207.287 154.654 207.205 154.732 207.205 154.829V155.38C207.205 155.476 207.287 155.554 207.387 155.554Z" fill="#3F3D56"/>
<path d="M204.268 155.554H205.464C205.564 155.554 205.646 155.476 205.646 155.38V154.829C205.646 154.732 205.564 154.654 205.464 154.654H204.268C204.167 154.654 204.086 154.732 204.086 154.829V155.38C204.086 155.476 204.167 155.554 204.268 155.554Z" fill="#3F3D56"/>
<path d="M201.148 155.554H202.344C202.445 155.554 202.526 155.476 202.526 155.38V154.829C202.526 154.732 202.445 154.654 202.344 154.654H201.148C201.048 154.654 200.967 154.732 200.967 154.829V155.38C200.967 155.476 201.048 155.554 201.148 155.554Z" fill="#3F3D56"/>
<path d="M198.029 155.554H199.225C199.325 155.554 199.407 155.476 199.407 155.38V154.829C199.407 154.732 199.325 154.654 199.225 154.654H198.029C197.928 154.654 197.847 154.732 197.847 154.829V155.38C197.847 155.476 197.928 155.554 198.029 155.554Z" fill="#3F3D56"/>
<path d="M194.909 155.554H196.106C196.206 155.554 196.287 155.476 196.287 155.38V154.829C196.287 154.732 196.206 154.654 196.106 154.654H194.909C194.809 154.654 194.728 154.732 194.728 154.829V155.38C194.728 155.476 194.809 155.554 194.909 155.554Z" fill="#3F3D56"/>
<path d="M191.79 155.554H192.986C193.086 155.554 193.168 155.476 193.168 155.38V154.829C193.168 154.732 193.086 154.654 192.986 154.654H191.79C191.69 154.654 191.608 154.732 191.608 154.829V155.38C191.608 155.476 191.69 155.554 191.79 155.554Z" fill="#3F3D56"/>
<path d="M188.67 155.554H189.867C189.967 155.554 190.048 155.476 190.048 155.38V154.829C190.048 154.732 189.967 154.654 189.867 154.654H188.67C188.57 154.654 188.489 154.732 188.489 154.829V155.38C188.489 155.476 188.57 155.554 188.67 155.554Z" fill="#3F3D56"/>
<path d="M185.551 155.554H186.747C186.848 155.554 186.929 155.476 186.929 155.38V154.829C186.929 154.732 186.848 154.654 186.747 154.654H185.551C185.451 154.654 185.369 154.732 185.369 154.829V155.38C185.369 155.476 185.451 155.554 185.551 155.554Z" fill="#3F3D56"/>
<path d="M232.38 157.055H233.576C233.676 157.055 233.758 156.977 233.758 156.88V156.33C233.758 156.233 233.676 156.155 233.576 156.155H232.38C232.279 156.155 232.198 156.233 232.198 156.33V156.88C232.198 156.977 232.279 157.055 232.38 157.055Z" fill="#3F3D56"/>
<path d="M229.26 157.055H230.456C230.557 157.055 230.638 156.977 230.638 156.88V156.33C230.638 156.233 230.557 156.155 230.456 156.155H229.26C229.16 156.155 229.079 156.233 229.079 156.33V156.88C229.079 156.977 229.16 157.055 229.26 157.055Z" fill="#3F3D56"/>
<path d="M226.141 157.055H227.337C227.437 157.055 227.519 156.977 227.519 156.88V156.33C227.519 156.233 227.437 156.155 227.337 156.155H226.141C226.04 156.155 225.959 156.233 225.959 156.33V156.88C225.959 156.977 226.04 157.055 226.141 157.055Z" fill="#3F3D56"/>
<path d="M223.021 157.055H224.218C224.318 157.055 224.399 156.977 224.399 156.88V156.33C224.399 156.233 224.318 156.155 224.218 156.155H223.021C222.921 156.155 222.84 156.233 222.84 156.33V156.88C222.84 156.977 222.921 157.055 223.021 157.055Z" fill="#3F3D56"/>
<path d="M219.902 157.055H221.098C221.199 157.055 221.28 156.977 221.28 156.88V156.33C221.28 156.233 221.199 156.155 221.098 156.155H219.902C219.802 156.155 219.72 156.233 219.72 156.33V156.88C219.72 156.977 219.802 157.055 219.902 157.055Z" fill="#3F3D56"/>
<path d="M216.782 157.055H217.979C218.079 157.055 218.16 156.977 218.16 156.88V156.33C218.16 156.233 218.079 156.155 217.979 156.155H216.782C216.682 156.155 216.601 156.233 216.601 156.33V156.88C216.601 156.977 216.682 157.055 216.782 157.055Z" fill="#3F3D56"/>
<path d="M213.663 157.055H214.859C214.96 157.055 215.041 156.977 215.041 156.88V156.33C215.041 156.233 214.96 156.155 214.859 156.155H213.663C213.563 156.155 213.481 156.233 213.481 156.33V156.88C213.481 156.977 213.563 157.055 213.663 157.055Z" fill="#3F3D56"/>
<path d="M210.544 157.055H211.74C211.84 157.055 211.922 156.977 211.922 156.88V156.33C211.922 156.233 211.84 156.155 211.74 156.155H210.544C210.443 156.155 210.362 156.233 210.362 156.33V156.88C210.362 156.977 210.443 157.055 210.544 157.055Z" fill="#3F3D56"/>
<path d="M207.424 157.055H208.62C208.721 157.055 208.802 156.977 208.802 156.88V156.33C208.802 156.233 208.721 156.155 208.62 156.155H207.424C207.324 156.155 207.242 156.233 207.242 156.33V156.88C207.242 156.977 207.324 157.055 207.424 157.055Z" fill="#3F3D56"/>
<path d="M204.305 157.055H205.501C205.601 157.055 205.683 156.977 205.683 156.88V156.33C205.683 156.233 205.601 156.155 205.501 156.155H204.305C204.204 156.155 204.123 156.233 204.123 156.33V156.88C204.123 156.977 204.204 157.055 204.305 157.055Z" fill="#3F3D56"/>
<path d="M201.185 157.055H202.381C202.482 157.055 202.563 156.977 202.563 156.88V156.33C202.563 156.233 202.482 156.155 202.381 156.155H201.185C201.085 156.155 201.003 156.233 201.003 156.33V156.88C201.003 156.977 201.085 157.055 201.185 157.055Z" fill="#3F3D56"/>
<path d="M198.066 157.055H199.262C199.362 157.055 199.444 156.977 199.444 156.88V156.33C199.444 156.233 199.362 156.155 199.262 156.155H198.066C197.965 156.155 197.884 156.233 197.884 156.33V156.88C197.884 156.977 197.965 157.055 198.066 157.055Z" fill="#3F3D56"/>
<path d="M194.946 157.055H196.142C196.243 157.055 196.324 156.977 196.324 156.88V156.33C196.324 156.233 196.243 156.155 196.142 156.155H194.946C194.846 156.155 194.764 156.233 194.764 156.33V156.88C194.764 156.977 194.846 157.055 194.946 157.055Z" fill="#3F3D56"/>
<path d="M191.827 157.055H193.023C193.123 157.055 193.205 156.977 193.205 156.88V156.33C193.205 156.233 193.123 156.155 193.023 156.155H191.827C191.726 156.155 191.645 156.233 191.645 156.33V156.88C191.645 156.977 191.726 157.055 191.827 157.055Z" fill="#3F3D56"/>
<path d="M188.707 157.055H189.903C190.004 157.055 190.085 156.977 190.085 156.88V156.33C190.085 156.233 190.004 156.155 189.903 156.155H188.707C188.607 156.155 188.526 156.233 188.526 156.33V156.88C188.526 156.977 188.607 157.055 188.707 157.055Z" fill="#3F3D56"/>
<path d="M185.588 157.055H186.784C186.884 157.055 186.966 156.977 186.966 156.88V156.33C186.966 156.233 186.884 156.155 186.784 156.155H185.588C185.487 156.155 185.406 156.233 185.406 156.33V156.88C185.406 156.977 185.487 157.055 185.588 157.055Z" fill="#3F3D56"/>
<path d="M206.488 158.855H218.603C218.703 158.855 218.784 158.777 218.784 158.68V158.13C218.784 158.033 218.703 157.955 218.603 157.955H206.488C206.388 157.955 206.306 158.033 206.306 158.13V158.68C206.306 158.777 206.388 158.855 206.488 158.855Z" fill="#3F3D56"/>
<path d="M193.654 128.51H192.595C192.274 128.51 192.013 128.761 192.013 129.07C192.013 129.379 192.274 129.629 192.595 129.629H193.654C193.975 129.629 194.235 129.379 194.235 129.07C194.235 128.761 193.975 128.51 193.654 128.51Z" fill="white"/>
<path d="M205.765 128.51H204.706C204.385 128.51 204.124 128.761 204.124 129.07C204.124 129.379 204.385 129.629 204.706 129.629H205.765C206.086 129.629 206.346 129.379 206.346 129.07C206.346 128.761 206.086 128.51 205.765 128.51Z" fill="white"/>
<path d="M209.196 128.51H208.137C207.816 128.51 207.556 128.761 207.556 129.07C207.556 129.379 207.816 129.629 208.137 129.629H209.196C209.517 129.629 209.777 129.379 209.777 129.07C209.777 128.761 209.517 128.51 209.196 128.51Z" fill="white"/>
<path d="M202.47 128.417H195.889C195.568 128.417 195.308 128.668 195.308 128.976C195.308 129.285 195.568 129.536 195.889 129.536H202.47C202.791 129.536 203.052 129.285 203.052 128.976C203.052 128.668 202.791 128.417 202.47 128.417Z" fill="white"/>
<path d="M218.619 128.417H212.037C211.716 128.417 211.456 128.668 211.456 128.976C211.456 129.285 211.716 129.536 212.037 129.536H218.619C218.94 129.536 219.2 129.285 219.2 128.976C219.2 128.668 218.94 128.417 218.619 128.417Z" fill="white"/>
<path d="M196.883 131.035H195.824C195.503 131.035 195.243 131.285 195.243 131.594C195.243 131.903 195.503 132.153 195.824 132.153H196.883C197.204 132.153 197.465 131.903 197.465 131.594C197.465 131.285 197.204 131.035 196.883 131.035Z" fill="white"/>
<path d="M208.994 131.035H207.935C207.614 131.035 207.354 131.285 207.354 131.594C207.354 131.903 207.614 132.153 207.935 132.153H208.994C209.315 132.153 209.576 131.903 209.576 131.594C209.576 131.285 209.315 131.035 208.994 131.035Z" fill="white"/>
<path d="M212.426 131.035H211.367C211.046 131.035 210.785 131.285 210.785 131.594C210.785 131.903 211.046 132.153 211.367 132.153H212.426C212.747 132.153 213.007 131.903 213.007 131.594C213.007 131.285 212.747 131.035 212.426 131.035Z" fill="white"/>
<path d="M205.7 130.942H199.118C198.797 130.942 198.537 131.192 198.537 131.501C198.537 131.81 198.797 132.06 199.118 132.06H205.7C206.021 132.06 206.281 131.81 206.281 131.501C206.281 131.192 206.021 130.942 205.7 130.942Z" fill="white"/>
<path d="M221.848 130.942H215.267C214.946 130.942 214.685 131.192 214.685 131.501C214.685 131.81 214.946 132.06 215.267 132.06H221.848C222.169 132.06 222.429 131.81 222.429 131.501C222.429 131.192 222.169 130.942 221.848 130.942Z" fill="white"/>
<path d="M200.113 133.559H199.054C198.733 133.559 198.473 133.809 198.473 134.118C198.473 134.427 198.733 134.678 199.054 134.678H200.113C200.434 134.678 200.694 134.427 200.694 134.118C200.694 133.809 200.434 133.559 200.113 133.559Z" fill="white"/>
<path d="M212.224 133.559H211.165C210.844 133.559 210.584 133.809 210.584 134.118C210.584 134.427 210.844 134.678 211.165 134.678H212.224C212.545 134.678 212.805 134.427 212.805 134.118C212.805 133.809 212.545 133.559 212.224 133.559Z" fill="white"/>
<path d="M215.655 133.559H214.596C214.275 133.559 214.015 133.809 214.015 134.118C214.015 134.427 214.275 134.678 214.596 134.678H215.655C215.976 134.678 216.237 134.427 216.237 134.118C216.237 133.809 215.976 133.559 215.655 133.559Z" fill="white"/>
<path d="M208.93 133.466H202.348C202.027 133.466 201.767 133.716 201.767 134.025C201.767 134.334 202.027 134.584 202.348 134.584H208.93C209.251 134.584 209.511 134.334 209.511 134.025C209.511 133.716 209.251 133.466 208.93 133.466Z" fill="white"/>
<path d="M225.078 133.466H218.496C218.175 133.466 217.915 133.716 217.915 134.025C217.915 134.334 218.175 134.584 218.496 134.584H225.078C225.399 134.584 225.659 134.334 225.659 134.025C225.659 133.716 225.399 133.466 225.078 133.466Z" fill="white"/>
<path d="M203.342 136.083H202.283C201.962 136.083 201.702 136.334 201.702 136.643C201.702 136.951 201.962 137.202 202.283 137.202H203.342C203.663 137.202 203.924 136.951 203.924 136.643C203.924 136.334 203.663 136.083 203.342 136.083Z" fill="white"/>
<path d="M215.454 136.083H214.395C214.074 136.083 213.813 136.334 213.813 136.643C213.813 136.951 214.074 137.202 214.395 137.202H215.454C215.775 137.202 216.035 136.951 216.035 136.643C216.035 136.334 215.775 136.083 215.454 136.083Z" fill="white"/>
<path d="M218.885 136.083H217.826C217.505 136.083 217.245 136.334 217.245 136.643C217.245 136.951 217.505 137.202 217.826 137.202H218.885C219.206 137.202 219.466 136.951 219.466 136.643C219.466 136.334 219.206 136.083 218.885 136.083Z" fill="white"/>
<path d="M212.159 135.99H205.578C205.257 135.99 204.996 136.241 204.996 136.549C204.996 136.858 205.257 137.109 205.578 137.109H212.159C212.48 137.109 212.741 136.858 212.741 136.549C212.741 136.241 212.48 135.99 212.159 135.99Z" fill="white"/>
<path d="M205.765 146.121H204.706C204.385 146.121 204.124 146.372 204.124 146.68C204.124 146.989 204.385 147.24 204.706 147.24H205.765C206.086 147.24 206.346 146.989 206.346 146.68C206.346 146.372 206.086 146.121 205.765 146.121Z" fill="white"/>
<path d="M209.196 146.121H208.137C207.816 146.121 207.556 146.372 207.556 146.68C207.556 146.989 207.816 147.24 208.137 147.24H209.196C209.517 147.24 209.777 146.989 209.777 146.68C209.777 146.372 209.517 146.121 209.196 146.121Z" fill="white"/>
<path d="M218.619 146.214H212.037C211.716 146.214 211.456 146.465 211.456 146.774C211.456 147.083 211.716 147.333 212.037 147.333H218.619C218.94 147.333 219.2 147.083 219.2 146.774C219.2 146.465 218.94 146.214 218.619 146.214Z" fill="white"/>
<path d="M193.654 146.121H192.595C192.274 146.121 192.013 146.372 192.013 146.68C192.013 146.989 192.274 147.24 192.595 147.24H193.654C193.975 147.24 194.235 146.989 194.235 146.68C194.235 146.372 193.975 146.121 193.654 146.121Z" fill="white"/>
<path d="M202.47 146.214H195.889C195.568 146.214 195.308 146.465 195.308 146.774C195.308 147.083 195.568 147.333 195.889 147.333H202.47C202.791 147.333 203.052 147.083 203.052 146.774C203.052 146.465 202.791 146.214 202.47 146.214Z" fill="white"/>
<path d="M196.883 143.597H195.824C195.503 143.597 195.243 143.847 195.243 144.156C195.243 144.465 195.503 144.715 195.824 144.715H196.883C197.204 144.715 197.465 144.465 197.465 144.156C197.465 143.847 197.204 143.597 196.883 143.597Z" fill="white"/>
<path d="M208.994 143.597H207.935C207.614 143.597 207.354 143.847 207.354 144.156C207.354 144.465 207.614 144.715 207.935 144.715H208.994C209.315 144.715 209.576 144.465 209.576 144.156C209.576 143.847 209.315 143.597 208.994 143.597Z" fill="white"/>
<path d="M212.426 143.597H211.367C211.046 143.597 210.785 143.847 210.785 144.156C210.785 144.465 211.046 144.715 211.367 144.715H212.426C212.747 144.715 213.007 144.465 213.007 144.156C213.007 143.847 212.747 143.597 212.426 143.597Z" fill="white"/>
<path d="M205.7 143.69H199.118C198.797 143.69 198.537 143.941 198.537 144.249C198.537 144.558 198.797 144.809 199.118 144.809H205.7C206.021 144.809 206.281 144.558 206.281 144.249C206.281 143.941 206.021 143.69 205.7 143.69Z" fill="white"/>
<path d="M200.113 141.073H199.054C198.733 141.073 198.473 141.323 198.473 141.632C198.473 141.941 198.733 142.191 199.054 142.191H200.113C200.434 142.191 200.694 141.941 200.694 141.632C200.694 141.323 200.434 141.073 200.113 141.073Z" fill="white"/>
<path d="M212.224 141.073H211.165C210.844 141.073 210.584 141.323 210.584 141.632C210.584 141.941 210.844 142.191 211.165 142.191H212.224C212.545 142.191 212.805 141.941 212.805 141.632C212.805 141.323 212.545 141.073 212.224 141.073Z" fill="white"/>
<path d="M215.655 141.073H214.596C214.275 141.073 214.015 141.323 214.015 141.632C214.015 141.941 214.275 142.191 214.596 142.191H215.655C215.976 142.191 216.237 141.941 216.237 141.632C216.237 141.323 215.976 141.073 215.655 141.073Z" fill="white"/>
<path d="M208.93 141.166H202.348C202.027 141.166 201.767 141.416 201.767 141.725C201.767 142.034 202.027 142.284 202.348 142.284H208.93C209.251 142.284 209.511 142.034 209.511 141.725C209.511 141.416 209.251 141.166 208.93 141.166Z" fill="white"/>
<path d="M203.342 138.548H202.283C201.962 138.548 201.702 138.799 201.702 139.107C201.702 139.416 201.962 139.667 202.283 139.667H203.342C203.663 139.667 203.924 139.416 203.924 139.107C203.924 138.799 203.663 138.548 203.342 138.548Z" fill="white"/>
<path d="M215.454 138.548H214.395C214.074 138.548 213.813 138.799 213.813 139.107C213.813 139.416 214.074 139.667 214.395 139.667H215.454C215.775 139.667 216.035 139.416 216.035 139.107C216.035 138.799 215.775 138.548 215.454 138.548Z" fill="white"/>
<path d="M218.885 138.548H217.826C217.505 138.548 217.245 138.799 217.245 139.107C217.245 139.416 217.505 139.667 217.826 139.667H218.885C219.206 139.667 219.466 139.416 219.466 139.107C219.466 138.799 219.206 138.548 218.885 138.548Z" fill="white"/>
<path d="M212.159 138.641H205.578C205.257 138.641 204.996 138.892 204.996 139.201C204.996 139.51 205.257 139.76 205.578 139.76H212.159C212.48 139.76 212.741 139.51 212.741 139.201C212.741 138.892 212.48 138.641 212.159 138.641Z" fill="white"/>
<path d="M188.024 175.705L183.052 168.146L198.656 156.18L205.097 149.316C205.933 148.424 206.999 147.759 208.186 147.388C209.374 147.016 210.642 146.951 211.864 147.199C213.086 147.446 214.219 147.998 215.15 148.799C216.081 149.6 216.777 150.621 217.169 151.762C217.749 153.452 217.624 155.294 216.82 156.897C216.017 158.501 214.597 159.741 212.86 160.356L202.676 163.966L188.024 175.705Z" fill="#FFB6B6"/>
<path d="M71.3825 120.896V157.636H98.1383V120.896C98.1388 120.632 98.0511 120.374 97.8883 120.161C97.7254 119.949 97.4959 119.792 97.2334 119.714C97.1098 119.674 96.9802 119.655 96.8499 119.656H72.6747C72.5052 119.656 72.3373 119.688 72.1806 119.75C72.0239 119.812 71.8815 119.903 71.7615 120.018C71.6415 120.134 71.5463 120.27 71.4812 120.421C71.4162 120.571 71.3826 120.733 71.3825 120.896ZM81.8242 133.52C81.8311 132.796 82.1351 132.103 82.67 131.593C83.2049 131.084 83.9274 130.798 84.6803 130.798C85.4333 130.798 86.1558 131.084 86.6907 131.593C87.2256 132.103 87.5296 132.796 87.5365 133.52V137.783C87.5327 138.509 87.2301 139.204 86.6948 139.717C86.1596 140.229 85.4353 140.516 84.6803 140.516C83.9253 140.516 83.2011 140.229 82.6659 139.717C82.1306 139.204 81.828 138.509 81.8242 137.783V133.52Z" fill="#2F2E41"/>
<path d="M71.3006 156.461V160.004C71.3012 160.187 71.377 160.363 71.5115 160.493C71.6461 160.623 71.8285 160.697 72.0193 160.699H97.5016C97.6926 160.698 97.8754 160.624 98.0101 160.494C98.1448 160.364 98.2204 160.188 98.2203 160.004V156.461H71.3006Z" fill="#3F3D56"/>
<path d="M29.2918 65.5421V132.624C29.2925 133.479 29.6458 134.299 30.2742 134.903C30.9026 135.508 31.7546 135.848 32.6433 135.848H135.98C136.869 135.848 137.721 135.508 138.349 134.903C138.978 134.299 139.331 133.479 139.332 132.624V65.5421C139.329 64.688 138.976 63.8695 138.347 63.2659C137.719 62.6623 136.868 62.3227 135.98 62.3217H32.6433C31.7554 62.3227 30.9042 62.6623 30.276 63.2659C29.6478 63.8695 29.2939 64.688 29.2918 65.5421Z" fill="#3F3D56"/>
<path d="M31.716 66.3768V131.797C31.7169 132.254 31.9058 132.691 32.2416 133.014C32.5773 133.337 33.0324 133.519 33.5072 133.52H135.12C135.595 133.519 136.05 133.337 136.386 133.014C136.721 132.691 136.91 132.254 136.911 131.797V66.3768C136.911 65.9195 136.722 65.4809 136.387 65.1572C136.051 64.8335 135.595 64.6511 135.12 64.6501H33.5072C33.0318 64.6511 32.5763 64.8335 32.2405 65.1572C31.9047 65.4809 31.7161 65.9195 31.716 66.3768Z" fill="white"/>
<path d="M50.5736 160.459C50.677 160.583 50.8085 160.684 50.9581 160.753C51.1077 160.822 51.2717 160.857 51.4375 160.856H111.891C112.056 160.856 112.219 160.821 112.368 160.752C112.517 160.683 112.649 160.584 112.753 160.46C112.857 160.337 112.931 160.193 112.97 160.038C113.009 159.883 113.012 159.722 112.978 159.567L112.039 155.279C112.001 155.104 111.917 154.941 111.796 154.805C111.675 154.67 111.521 154.565 111.347 154.501C111.221 154.454 111.087 154.43 110.952 154.43H52.3722C52.2371 154.43 52.1032 154.454 51.9775 154.501C51.8038 154.565 51.6494 154.67 51.5285 154.805C51.4075 154.941 51.3237 155.104 51.2849 155.279L50.3464 159.567C50.3131 159.722 50.3161 159.883 50.3554 160.037C50.3947 160.192 50.4692 160.336 50.5736 160.459Z" fill="#2F2E41"/>
<path d="M131.822 73.662H36.7436C36.6448 73.6599 36.5508 73.6207 36.4817 73.5527C36.4125 73.4847 36.3738 73.3934 36.3738 73.2983C36.3738 73.2032 36.4125 73.1119 36.4817 73.0439C36.5508 72.9759 36.6448 72.9367 36.7436 72.9346H131.822C131.921 72.9367 132.015 72.9759 132.084 73.0439C132.153 73.1119 132.192 73.2032 132.192 73.2983C132.192 73.3934 132.153 73.4847 132.084 73.5527C132.015 73.6207 131.921 73.6599 131.822 73.662Z" fill="#3F3D56"/>
<path d="M43.2158 71.0774C44.4396 71.0774 45.4316 70.1017 45.4316 68.8982C45.4316 67.6947 44.4396 66.7191 43.2158 66.7191C41.992 66.7191 40.9999 67.6947 40.9999 68.8982C40.9999 70.1017 41.992 71.0774 43.2158 71.0774Z" fill="#3F3D56"/>
<path d="M50.8705 71.0774C52.0943 71.0774 53.0864 70.1017 53.0864 68.8982C53.0864 67.6947 52.0943 66.7191 50.8705 66.7191C49.6468 66.7191 48.6547 67.6947 48.6547 68.8982C48.6547 70.1017 49.6468 71.0774 50.8705 71.0774Z" fill="#3F3D56"/>
<path d="M58.5253 71.0774C59.7491 71.0774 60.7411 70.1017 60.7411 68.8982C60.7411 67.6947 59.7491 66.7191 58.5253 66.7191C57.3015 66.7191 56.3094 67.6947 56.3094 68.8982C56.3094 70.1017 57.3015 71.0774 58.5253 71.0774Z" fill="#3F3D56"/>
<path d="M127.213 67.2581H121.776C121.669 67.2605 121.566 67.3032 121.491 67.3772C121.416 67.4512 121.374 67.5505 121.374 67.6539C121.374 67.7573 121.416 67.8566 121.491 67.9306C121.566 68.0046 121.669 68.0473 121.776 68.0497H127.213C127.321 68.0483 127.424 68.0059 127.5 67.9318C127.576 67.8578 127.619 67.7579 127.619 67.6539C127.619 67.5499 127.576 67.45 127.5 67.376C127.424 67.3019 127.321 67.2595 127.213 67.2581Z" fill="#3F3D56"/>
<path d="M127.213 68.7446H121.776C121.668 68.7469 121.566 68.7896 121.491 68.8636C121.416 68.9376 121.374 69.037 121.374 69.1405C121.374 69.244 121.416 69.3433 121.491 69.4173C121.566 69.4913 121.668 69.534 121.776 69.5363H127.213C127.321 69.5351 127.425 69.4928 127.501 69.4187C127.577 69.3446 127.619 69.2446 127.619 69.1405C127.619 69.0363 127.577 68.9363 127.501 68.8622C127.425 68.7881 127.321 68.7459 127.213 68.7446Z" fill="#3F3D56"/>
<path d="M127.213 70.2313H121.776C121.669 70.2337 121.566 70.2765 121.491 70.3505C121.416 70.4244 121.374 70.5238 121.374 70.6272C121.374 70.7306 121.416 70.8299 121.491 70.9039C121.566 70.9778 121.669 71.0206 121.776 71.023H127.213C127.321 71.0215 127.424 70.9792 127.5 70.9051C127.576 70.831 127.619 70.7312 127.619 70.6272C127.619 70.5231 127.576 70.4233 127.5 70.3492C127.424 70.2751 127.321 70.2328 127.213 70.2313Z" fill="#3F3D56"/>
<path d="M258.285 158.016C258.449 158.475 258.76 158.873 259.174 159.152C259.587 159.431 260.082 159.576 260.587 159.567L270.452 159.323C270.961 159.314 271.453 159.146 271.854 158.845C272.256 158.544 272.545 158.127 272.68 157.655L274.076 143.294C274.571 143.51 275.11 143.617 275.654 143.606C276.126 143.595 276.591 143.494 277.023 143.31C277.455 143.125 277.845 142.861 278.17 142.531C278.496 142.202 278.751 141.814 278.921 141.39C279.091 140.966 279.172 140.514 279.16 140.06C279.148 139.605 279.043 139.157 278.852 138.742C278.66 138.327 278.385 137.952 278.043 137.638C277.7 137.325 277.297 137.08 276.856 136.917C276.415 136.753 275.945 136.675 275.473 136.686C275.256 136.686 275.039 136.707 274.827 136.751C274.596 136.511 274.315 136.319 274.002 136.19C273.689 136.06 273.352 135.995 273.012 135.998L257.837 136.375C257.711 136.379 257.586 136.394 257.462 136.419C257.13 136.479 256.814 136.607 256.537 136.794C256.259 136.98 256.027 137.222 255.855 137.503C255.683 137.783 255.576 138.096 255.54 138.42C255.504 138.744 255.541 139.071 255.648 139.38L258.285 158.016ZM274.362 142.319L275.355 138.897C275.468 138.502 275.471 138.085 275.363 137.688C275.411 137.688 275.454 137.666 275.502 137.666C276.183 137.653 276.842 137.899 277.334 138.352C277.826 138.806 278.112 139.428 278.128 140.083C278.144 140.738 277.889 141.373 277.419 141.848C276.949 142.322 276.303 142.599 275.622 142.616C275.182 142.629 274.746 142.527 274.362 142.319Z" fill="#2F2E41"/>
<path d="M257.462 136.42C257.786 138.198 261.421 139.448 265.791 139.231C269.81 139.053 273.096 137.695 273.698 136.086C273.476 136.023 273.244 135.993 273.012 135.998L257.837 136.375C257.711 136.379 257.586 136.394 257.462 136.42Z" fill="#3F3D56"/>
<path d="M266.592 150.125C266.612 150.12 266.631 150.112 266.648 150.101L268.791 148.752C268.817 148.736 268.838 148.713 268.853 148.687C268.867 148.661 268.875 148.632 268.875 148.602C268.875 148.572 268.867 148.543 268.853 148.517C268.838 148.491 268.817 148.469 268.791 148.452L266.564 147.049C266.544 147.036 266.521 147.027 266.497 147.023C266.473 147.018 266.448 147.018 266.424 147.023C266.4 147.028 266.377 147.037 266.357 147.05C266.337 147.064 266.319 147.081 266.306 147.1C266.292 147.12 266.283 147.142 266.278 147.165C266.274 147.189 266.274 147.212 266.279 147.235C266.284 147.258 266.294 147.28 266.308 147.3C266.322 147.319 266.339 147.336 266.36 147.349L268.349 148.602L266.445 149.801C266.408 149.824 266.381 149.859 266.368 149.9C266.355 149.941 266.358 149.984 266.376 150.023C266.394 150.062 266.425 150.093 266.465 150.112C266.504 150.131 266.549 150.135 266.592 150.125H266.592Z" fill="#BFA2DB"/>
<path d="M263.208 150.275C263.244 150.266 263.277 150.247 263.301 150.22C263.326 150.194 263.342 150.161 263.347 150.125C263.352 150.09 263.346 150.054 263.33 150.022C263.313 149.99 263.287 149.963 263.255 149.946L261.28 148.857L263.189 147.493C263.209 147.479 263.225 147.461 263.238 147.441C263.25 147.421 263.259 147.398 263.262 147.375C263.266 147.352 263.265 147.328 263.259 147.305C263.253 147.283 263.242 147.261 263.228 147.242C263.213 147.223 263.195 147.208 263.174 147.195C263.153 147.183 263.13 147.175 263.105 147.172C263.081 147.169 263.057 147.17 263.033 147.175C263.009 147.181 262.987 147.191 262.967 147.205L260.83 148.732C260.805 148.75 260.786 148.773 260.773 148.8C260.759 148.827 260.754 148.857 260.755 148.887C260.757 148.916 260.767 148.945 260.783 148.97C260.799 148.996 260.822 149.017 260.849 149.031L263.07 150.256C263.112 150.28 263.161 150.286 263.208 150.275Z" fill="#BFA2DB"/>
<path d="M266.379 151.307C266.397 151.302 266.414 151.295 266.43 151.286C266.451 151.274 266.469 151.258 266.484 151.239C266.498 151.22 266.508 151.198 266.514 151.175C266.52 151.153 266.521 151.129 266.517 151.106C266.514 151.082 266.505 151.06 266.492 151.04L263.455 146.237C263.43 146.196 263.388 146.167 263.34 146.156C263.292 146.145 263.242 146.152 263.2 146.177C263.157 146.202 263.127 146.242 263.115 146.288C263.104 146.334 263.112 146.382 263.137 146.423L266.174 151.226C266.195 151.259 266.226 151.284 266.263 151.299C266.3 151.313 266.34 151.316 266.379 151.307Z" fill="#BFA2DB"/>
<path d="M95.6432 93.4362H79.1872C78.5159 93.4362 77.9717 93.9597 77.9717 94.6055V96.1521C77.9717 96.7979 78.5159 97.3214 79.1872 97.3214H95.6432C96.3145 97.3214 96.8587 96.7979 96.8587 96.1521V94.6055C96.8587 93.9597 96.3145 93.4362 95.6432 93.4362Z" fill="#BFA2DB"/>
<path d="M105.235 101.207H69.5951C68.9238 101.207 68.3796 101.73 68.3796 102.376V103.923C68.3796 104.568 68.9238 105.092 69.5951 105.092H105.235C105.907 105.092 106.451 104.568 106.451 103.923V102.376C106.451 101.73 105.907 101.207 105.235 101.207Z" fill="#E6E6E6"/>
<path d="M105.235 108.977H69.5951C68.9238 108.977 68.3796 109.501 68.3796 110.147V111.693C68.3796 112.339 68.9238 112.862 69.5951 112.862H105.235C105.907 112.862 106.451 112.339 106.451 111.693V110.147C106.451 109.501 105.907 108.977 105.235 108.977Z" fill="#E6E6E6"/>
<path d="M108.257 134.998L108.337 135.243L108.341 135.251L110.771 142.358L113.567 150.547L118.826 165.937L118.877 168.328V168.336L119.267 187.567L118.184 190.174L119.403 194.449C119.403 194.449 118.843 187.988 115.835 191.698C114.132 193.807 112.139 195.965 110.504 197.987C112.887 198.915 115.308 199.754 117.768 200.505C118.299 200.668 118.834 200.824 119.369 200.979C119.484 201.012 119.599 201.044 119.714 201.077C127.867 203.396 136.296 204.7 144.794 204.955C145.236 204.967 145.669 204.975 146.09 204.984C146.238 204.988 146.383 204.992 146.527 204.992C147.003 204.996 147.474 205 147.95 205C148.91 205 149.866 204.986 150.818 204.959C157.861 204.768 164.863 203.857 171.705 202.242C171.659 199.524 171.531 196.349 171.348 192.957C171.264 191.294 169.356 189.491 169.241 187.751C169.161 186.443 170.873 185.213 170.784 183.885C170.206 175.707 169.484 178.846 168.948 173.056C168.893 172.488 168.842 171.944 168.795 171.425C168.451 167.707 168.213 165.381 168.213 165.381L170.499 151.524L174.088 129.767L173.812 129.33L173.502 129.182L154.569 120.167L153.541 117.634C153.241 116.904 152.721 116.277 152.048 115.833C151.375 115.39 150.58 115.15 149.764 115.145L137.292 115.096C136.645 115.093 136.006 115.239 135.429 115.521C134.852 115.803 134.353 116.214 133.974 116.718L130.597 121.218L108.257 134.998Z" fill="#3F3D56"/>
<path d="M121.702 162.512L118.877 168.328L116.948 172.3L113.63 189.01L111.969 190.706L110.546 184.702L95.6517 187.883C95.1631 185.272 95.5209 187.972 95.2193 185.107C95.3042 185.025 95.3934 184.944 95.4826 184.862C95.7205 184.649 95.9202 184.449 95.916 184.257C95.746 174.376 96.2558 157.559 100.512 147.372C101.179 145.708 102.058 144.131 103.129 142.676C103.214 142.566 103.295 142.455 103.376 142.345C105.338 139.701 106.579 137.098 108.337 135.247V135.243C108.348 135.234 108.358 135.225 108.367 135.214C108.373 135.211 108.379 135.207 108.384 135.202L120.465 129.039L120.984 143.048L121.353 153.117L121.702 162.512Z" fill="#3F3D56"/>
<path d="M165.265 164.164L168.794 171.427L170.025 173.957L173.342 190.665L174.998 192.357L176.424 186.355L177.094 186.222L189.181 183.814L192.704 194.578C193.498 193.305 193.811 191.808 193.59 190.339C193.369 188.87 192.627 187.519 191.49 186.516C191.249 186.306 191.049 186.102 191.055 185.909C191.255 174.287 190.516 153.066 183.842 144.331C181.723 141.559 180.451 138.798 178.601 136.87C178.595 136.864 178.595 136.859 178.589 136.859L174.087 129.766L173.812 129.331L173.503 129.182L165.265 164.164Z" fill="#3F3D56"/>
<path d="M143.888 111.681C153.052 111.681 160.481 104.535 160.481 95.7193C160.481 86.9037 153.052 79.7572 143.888 79.7572C134.724 79.7572 127.295 86.9037 127.295 95.7193C127.295 104.535 134.724 111.681 143.888 111.681Z" fill="#FFB6B6"/>
<path d="M166.315 84.5698C166.187 84.4376 166.032 84.3317 165.86 84.2585C165.688 84.1852 165.502 84.1461 165.314 84.1435L165.563 83.4772C165.645 83.2673 165.667 83.0404 165.627 82.8196C165.587 82.5989 165.487 82.3923 165.337 82.221C165.187 82.0497 164.992 81.9198 164.773 81.8447C164.554 81.7696 164.317 81.7519 164.089 81.7935L163.18 81.9619L163.266 81.3779C163.298 81.1605 163.272 80.9385 163.189 80.7339C163.105 80.5293 162.968 80.3491 162.79 80.211C162.612 80.073 162.4 79.9818 162.175 79.9464C161.949 79.9111 161.718 79.9328 161.504 80.0095C161.31 80.0832 161.1 80.1141 160.891 80.0999C160.682 80.0856 160.48 80.0266 160.298 79.9271C160.115 79.8307 159.956 79.6971 159.833 79.5356C159.709 79.3741 159.624 79.1886 159.583 78.9921L159.266 77.5234L159.233 77.4446C157.691 74.9728 154.727 73.1745 151.1 72.5153C147.871 71.9242 144.561 72.2251 141.369 72.5081C140.103 72.6228 138.673 72.7517 137.482 73.4539C136.469 74.0557 135.612 75.2594 135.787 76.4738C132.641 75.5459 129.267 77.398 127.595 79.7336C125.614 82.5135 125.29 85.9955 125.238 88.7181C125.096 95.159 126.478 100.429 129.334 104.383C129.542 104.67 129.595 105.268 130.008 105.469L129.922 105.336C130.384 105.558 130.853 105.917 130.678 106.3C130.175 107.403 133.516 109.843 135.869 110.649C140.163 112.121 145.872 111.996 149.886 111.466L150.027 110.552C151.476 110.362 152.496 110.001 152.783 109.435C153.289 109.019 153.721 108.646 154.098 108.303L154.101 108.299C154.109 108.292 154.124 108.281 154.131 108.274C155.945 106.601 156.365 105.648 156.555 104.197C156.738 102.775 156.414 101.331 156.082 100.031C163.061 101.07 153.334 92.8807 159.836 91.2973C159.911 91.2752 159.986 91.2573 160.063 91.2436C160.253 91.2006 160.443 91.1576 160.625 91.1075C161.505 90.8778 162.347 90.5318 163.128 90.0794C164.945 89.0154 165.545 87.604 166.483 86.0134C166.618 85.787 166.675 85.5248 166.645 85.2652C166.615 85.0056 166.499 84.7619 166.315 84.5698Z" fill="#2F2E41"/>
<path d="M202.575 165.301C202.571 165.927 202.563 166.805 202.534 167.891C202.53 168.041 202.526 168.195 202.522 168.353C202.474 170.348 202.426 172.021 202.347 173.88C202.344 174.009 202.34 174.135 202.333 174.263C202.228 176.857 202.064 179.877 201.781 184.659C201.256 193.493 200.34 185.874 199.42 188.972C199.376 189.126 199.327 189.309 199.283 189.524C199.143 190.304 198.908 191.065 198.583 191.792C198.095 192.071 197.592 192.34 197.097 192.608C195.685 193.364 194.252 194.092 192.807 194.783C191.995 195.17 191.18 195.55 190.36 195.915C190.23 195.972 190.103 196.03 189.977 196.083C185.782 197.95 181.458 199.537 177.036 200.833C176.173 201.084 175.312 201.328 174.441 201.553C173.532 201.797 172.624 202.026 171.704 202.241C164.861 203.857 157.86 204.769 150.817 204.96C149.867 204.989 148.91 205 147.949 205C147.473 205 147.004 204.996 146.527 204.992C146.382 204.992 146.236 204.989 146.091 204.985C145.67 204.975 145.235 204.967 144.795 204.957C136.297 204.702 127.868 203.398 119.715 201.077L119.369 200.98C118.833 200.823 118.3 200.669 117.768 200.504C115.31 199.755 112.888 198.917 110.502 197.989C108.681 197.283 106.882 196.526 105.103 195.718C105.087 195.714 105.071 195.706 105.058 195.696C104.686 195.532 104.31 195.36 103.937 195.184C103.889 195.159 103.837 195.134 103.785 195.109C102.396 194.457 101.021 193.774 99.6623 193.06C98.519 190.534 96.9103 190.051 95.9124 187.83C95.6219 187.17 95.412 186.48 95.2867 185.773C95.2867 185.766 95.283 185.759 95.283 185.748C95.3873 187.081 94.8399 183.384 95.2793 185.734C95.2756 185.691 95.2719 185.644 95.2681 185.591C95.257 185.462 95.2421 185.304 95.2197 185.107C93.9425 173.11 94.0244 159.39 93.4695 148.084C93.4323 147.353 93.3938 146.653 93.3541 145.985C93.3429 145.763 93.328 145.544 93.3131 145.329C93.3392 145.265 93.369 145.197 93.4025 145.132C93.4096 145.114 93.4183 145.096 93.4285 145.078C93.4395 145.056 93.452 145.035 93.4658 145.014C93.4732 145.003 93.4844 144.989 93.4919 144.978C93.4973 144.966 93.5035 144.954 93.5105 144.942C93.544 144.892 93.5812 144.838 93.6222 144.788C93.6408 144.767 93.6557 144.749 93.6743 144.731C93.6872 144.713 93.7022 144.696 93.719 144.681C93.7304 144.664 93.7442 144.648 93.76 144.634C93.7749 144.62 93.7898 144.602 93.8084 144.584C93.8163 144.573 93.8265 144.563 93.8382 144.555C93.8676 144.523 93.9 144.493 93.935 144.466C94.0678 144.348 94.2098 144.241 94.3595 144.143C94.4116 144.111 94.4675 144.079 94.5196 144.043C94.8949 143.827 95.2901 143.645 95.7001 143.499C95.8416 143.449 95.9831 143.402 96.1358 143.352C96.1916 143.337 96.2438 143.32 96.2996 143.302C96.3816 143.277 96.4635 143.252 96.5491 143.234C96.9737 143.112 97.4317 143.008 97.927 142.911C97.9865 142.9 98.0498 142.89 98.1131 142.875C98.2025 142.857 98.2956 142.843 98.3887 142.829C98.5153 142.807 98.6457 142.786 98.776 142.764C99.882 142.596 101.137 142.471 102.522 142.388C102.653 142.381 102.783 142.374 102.913 142.367C103.066 142.36 103.219 142.352 103.375 142.345C103.505 142.338 103.639 142.334 103.773 142.331C103.904 142.324 104.038 142.32 104.176 142.317C104.552 142.306 104.939 142.295 105.334 142.288C106.458 142.266 107.642 142.274 108.886 142.299C109.463 142.313 110.052 142.327 110.655 142.352C110.696 142.352 110.733 142.356 110.771 142.356C111.296 142.374 111.824 142.395 112.368 142.424C112.748 142.442 113.131 142.46 113.515 142.481C113.876 142.503 114.241 142.524 114.61 142.549C114.897 142.564 115.183 142.585 115.474 142.603C115.719 142.621 115.965 142.639 116.211 142.653L116.546 142.675C116.729 142.689 116.911 142.7 117.097 142.718C117.507 142.75 117.917 142.782 118.334 142.814C118.747 142.85 119.168 142.886 119.589 142.922C120.009 142.958 120.434 142.997 120.858 143.037C120.903 143.04 120.944 143.044 120.985 143.047C121.372 143.087 121.76 143.123 122.151 143.162C122.24 143.169 122.333 143.176 122.422 143.187C122.795 143.223 123.175 143.265 123.551 143.304C123.667 143.316 123.782 143.327 123.898 143.339C124.192 143.37 124.483 143.397 124.78 143.431C125.171 143.474 125.569 143.513 125.956 143.563C126.258 143.595 126.56 143.628 126.861 143.663C127.334 143.717 127.815 143.775 128.295 143.835C128.477 143.857 128.66 143.878 128.842 143.903C130.213 144.068 131.598 144.251 133.006 144.441C135.139 144.731 137.307 145.046 139.489 145.387C141.675 145.727 143.873 146.086 146.084 146.465C146.642 146.562 147.201 146.658 147.763 146.759C148.016 146.805 148.27 146.852 148.523 146.898C148.955 146.973 149.387 147.052 149.819 147.131C150.251 147.21 150.683 147.289 151.115 147.371C151.629 147.468 152.146 147.565 152.66 147.661C156.045 148.306 159.411 148.994 162.696 149.714C163.236 149.832 163.776 149.954 164.312 150.072C165.384 150.312 166.447 150.556 167.5 150.803C167.79 150.867 168.077 150.936 168.364 151.004C169.079 151.176 169.794 151.348 170.497 151.523L170.62 151.555C171.138 151.677 171.644 151.802 172.151 151.931C173.346 152.232 174.522 152.537 175.677 152.845C176.444 153.049 177.203 153.256 177.952 153.465C179.073 153.776 180.172 154.092 181.241 154.41C181.505 154.489 181.769 154.568 182.03 154.643C182.812 154.876 183.583 155.112 184.331 155.349C184.927 155.535 185.508 155.725 186.082 155.915C186.655 156.105 187.217 156.295 187.769 156.485C188.122 156.606 188.472 156.735 188.822 156.857C189.325 157.036 189.82 157.215 190.304 157.394C190.453 157.448 190.599 157.505 190.744 157.559C190.837 157.599 190.926 157.631 191.016 157.667C191.191 157.735 191.369 157.799 191.541 157.867C191.716 157.932 191.887 158 192.058 158.071C192.226 158.136 192.397 158.204 192.561 158.272C192.729 158.337 192.893 158.405 193.056 158.476C193.194 158.53 193.328 158.587 193.459 158.645C193.723 158.756 193.987 158.867 194.244 158.981C194.371 159.039 194.498 159.092 194.624 159.15L194.915 159.279C194.956 159.3 194.997 159.318 195.037 159.336C195.131 159.379 195.227 159.426 195.32 159.469C195.536 159.565 195.749 159.669 195.957 159.766C196.237 159.902 196.508 160.038 196.769 160.171C197.033 160.307 197.29 160.443 197.536 160.575C197.577 160.597 197.614 160.619 197.655 160.64C197.711 160.669 197.767 160.701 197.823 160.73C198.013 160.833 198.195 160.941 198.378 161.045C198.735 161.256 199.074 161.464 199.391 161.672C199.461 161.718 199.528 161.765 199.599 161.808C199.834 161.969 200.057 162.127 200.266 162.288C200.266 162.291 200.266 162.291 200.27 162.291C200.34 162.342 200.407 162.395 200.474 162.445C200.53 162.496 200.59 162.539 200.646 162.589C200.839 162.75 201.018 162.904 201.182 163.062C201.237 163.11 201.289 163.162 201.338 163.216C201.36 163.233 201.38 163.252 201.398 163.273C201.472 163.345 201.539 163.416 201.603 163.488C201.612 163.498 201.621 163.509 201.629 163.52C201.718 163.62 201.8 163.721 201.878 163.821C201.915 163.871 201.956 163.921 201.99 163.972C202.035 164.032 202.079 164.097 202.117 164.158C202.15 164.208 202.18 164.262 202.21 164.312C202.289 164.441 202.356 164.576 202.411 164.717C202.453 164.812 202.486 164.91 202.511 165.01C202.539 165.106 202.561 165.203 202.575 165.301Z" fill="#2F2E41"/>
<path opacity="0.2" d="M202.575 165.301C202.571 165.928 202.563 166.805 202.534 167.891C202.53 168.041 202.522 168.195 202.519 168.353C202.481 169.875 202.426 171.756 202.347 173.88C202.344 174.009 202.34 174.135 202.333 174.264C202.228 176.857 202.064 179.877 201.781 184.659C201.256 193.493 200.34 185.874 199.42 188.972C196.866 187.461 194.066 185.877 191.072 184.251C190.532 183.957 189.987 183.662 189.437 183.366C183.449 180.153 176.761 176.785 169.779 173.45C169.503 173.318 169.224 173.185 168.948 173.056C152.954 165.451 135.497 158.054 121.354 153.117C118.624 152.164 116.017 151.305 113.567 150.549C108.406 148.962 103.945 147.851 100.511 147.371C96.9364 146.87 94.4675 147.049 93.4695 148.084C93.4322 147.353 93.3937 146.654 93.354 145.985C93.3391 145.763 93.3242 145.544 93.3094 145.329C93.3323 145.27 93.3622 145.214 93.3911 145.157C93.3952 145.149 93.3982 145.14 93.4025 145.132C93.4096 145.114 93.4183 145.096 93.4285 145.079C93.4395 145.056 93.4519 145.035 93.4658 145.014C93.4779 144.989 93.4929 144.965 93.5104 144.942C93.544 144.892 93.5812 144.838 93.6222 144.788C93.6523 144.751 93.6846 144.715 93.719 144.681C93.7304 144.664 93.7442 144.648 93.76 144.634C93.7748 144.62 93.7897 144.602 93.8084 144.584C93.8163 144.573 93.8264 144.563 93.8381 144.556C93.8676 144.523 93.9 144.493 93.935 144.466C94.0678 144.348 94.2097 144.241 94.3595 144.144C94.4116 144.111 94.4675 144.079 94.5196 144.043C94.8949 143.827 95.2901 143.645 95.7001 143.499C95.8416 143.449 95.9831 143.402 96.1358 143.352C96.1916 143.338 96.2438 143.32 96.2996 143.302C96.3815 143.277 96.4635 143.252 96.5491 143.234C96.9736 143.112 97.4317 143.008 97.9269 142.911C98.0759 142.883 98.2323 142.854 98.3887 142.829C98.5153 142.807 98.6456 142.786 98.776 142.764C99.882 142.596 101.137 142.471 102.522 142.388C102.653 142.381 102.783 142.374 102.913 142.367C103.066 142.36 103.219 142.352 103.375 142.345C103.505 142.338 103.639 142.334 103.773 142.331C103.904 142.324 104.038 142.32 104.176 142.317C104.552 142.306 104.939 142.295 105.334 142.288C106.458 142.27 107.642 142.277 108.886 142.302C109.463 142.313 110.052 142.331 110.655 142.356C110.692 142.356 110.733 142.36 110.77 142.36C111.296 142.374 111.828 142.399 112.368 142.424C112.748 142.442 113.131 142.46 113.515 142.481C113.876 142.503 114.241 142.524 114.61 142.549C114.897 142.564 115.183 142.585 115.474 142.603C115.719 142.621 115.965 142.639 116.211 142.653C116.505 142.675 116.799 142.696 117.097 142.718C117.507 142.75 117.917 142.782 118.334 142.814C118.747 142.85 119.168 142.886 119.589 142.922C120.009 142.958 120.434 142.997 120.858 143.037C120.903 143.04 120.944 143.044 120.985 143.047C121.372 143.087 121.76 143.123 122.151 143.162C124.318 143.373 126.548 143.621 128.842 143.904C130.213 144.072 131.6 144.252 133.006 144.444C135.139 144.735 137.307 145.05 139.489 145.387C141.675 145.727 143.873 146.086 146.084 146.465C146.642 146.562 147.201 146.658 147.763 146.759C148.448 146.88 149.134 147.005 149.819 147.131C150.251 147.21 150.683 147.289 151.115 147.371C151.629 147.468 152.146 147.565 152.66 147.661C156.045 148.306 159.411 148.994 162.696 149.714C163.236 149.832 163.776 149.954 164.312 150.072C165.384 150.312 166.447 150.556 167.5 150.803C167.79 150.871 168.077 150.939 168.364 151.007C169.082 151.179 169.793 151.351 170.497 151.523V151.527C170.538 151.534 170.579 151.545 170.62 151.555C171.134 151.681 171.644 151.806 172.151 151.935C173.346 152.236 174.522 152.539 175.677 152.845C176.444 153.053 177.204 153.257 177.952 153.465C179.073 153.78 180.172 154.095 181.241 154.41C181.505 154.489 181.769 154.568 182.03 154.643C182.812 154.88 183.579 155.115 184.331 155.349C184.927 155.535 185.508 155.725 186.082 155.915C186.655 156.105 187.217 156.295 187.769 156.485C188.126 156.606 188.476 156.732 188.822 156.854C189.329 157.033 189.82 157.212 190.304 157.394C190.453 157.448 190.599 157.506 190.744 157.559C191.016 157.66 191.28 157.763 191.541 157.867C191.716 157.932 191.887 158 192.058 158.072C192.226 158.136 192.397 158.204 192.561 158.272C192.729 158.337 192.893 158.405 193.056 158.476C193.194 158.53 193.328 158.587 193.459 158.645C193.723 158.756 193.987 158.867 194.244 158.981C194.371 159.039 194.498 159.092 194.624 159.15L194.915 159.279C194.956 159.3 194.997 159.318 195.037 159.336C195.354 159.479 195.659 159.623 195.957 159.766C196.237 159.902 196.508 160.038 196.769 160.171C197.078 160.328 197.372 160.482 197.655 160.64C197.711 160.669 197.767 160.701 197.823 160.73C198.013 160.833 198.195 160.941 198.378 161.045C198.735 161.256 199.074 161.464 199.391 161.672C199.703 161.879 199.994 162.084 200.266 162.288C200.266 162.291 200.266 162.291 200.269 162.291C200.4 162.392 200.526 162.492 200.646 162.589C200.839 162.75 201.018 162.904 201.182 163.062C201.237 163.11 201.289 163.162 201.338 163.216C201.36 163.233 201.38 163.252 201.398 163.273C201.476 163.355 201.554 163.438 201.629 163.52C201.718 163.621 201.8 163.721 201.878 163.821C201.915 163.871 201.956 163.921 201.99 163.972C202.035 164.032 202.079 164.097 202.117 164.158C202.15 164.208 202.18 164.262 202.21 164.312C202.289 164.441 202.356 164.576 202.411 164.717C202.451 164.812 202.485 164.91 202.511 165.01C202.539 165.106 202.561 165.203 202.575 165.301Z" fill="black"/>
</g>
<defs>
<clipPath id="clip0_12_75">
<rect width="293" height="205" fill="white"/>
</clipPath>
</defs>
</svg>
