<svg width="25" height="25" viewBox="0 0 25 25" fill="none" xmlns="http://www.w3.org/2000/svg">
<path fill-rule="evenodd" clip-rule="evenodd" d="M12.503 10.0388L21.3021 1.33648C21.3021 1.33648 21.6405 0.901477 22.0756 1.33648L23.2359 2.4968C23.2359 2.4968 23.7291 2.9318 23.2359 3.36702L12.8898 13.7132C12.8898 13.7132 12.59 14.1289 12.1162 13.7132L1.76997 3.36702C1.76997 3.36702 1.33497 2.99 1.67337 2.59347L2.93037 1.33648C2.93037 1.33648 3.30747 0.901477 3.70392 1.33648L12.503 10.0388Z" fill="white" fill-opacity="0.7"/>
<path fill-rule="evenodd" clip-rule="evenodd" d="M12.503 19.9982L21.3021 11.2959C21.3021 11.2959 21.6405 10.8609 22.0756 11.2959L23.2359 12.4562C23.2359 12.4562 23.7291 12.8913 23.2359 13.3264L12.8898 23.6725C12.8898 23.6725 12.59 24.0883 12.1162 23.6725L1.77 13.3264C1.77 13.3264 1.335 12.9493 1.6733 12.5529L2.9303 11.2959C2.9303 11.2959 3.3074 10.8609 3.70385 11.2959L12.503 19.9982Z" fill="white" fill-opacity="0.7"/>
</svg>
