<svg width="100" height="50" viewBox="0 0 100 50" fill="none" xmlns="http://www.w3.org/2000/svg">
<path fill-rule="evenodd" clip-rule="evenodd" d="M13.22 35.5133V28.1417L18.25 29.8558V37.3192L13.22 35.5133ZM24.2017 35.5133V28.1417L19.1717 29.8558V37.3192L24.2017 35.5133ZM18.8267 26.1567L23.5467 27.6783L18.8267 29.2808L13.7433 27.5892L18.8267 26.1567ZM7.23083 25.215V17.8333L12.2608 19.5467V27.01L7.23083 25.215ZM18.2142 25.2142V17.8333L13.1842 19.5467V27.01L18.2142 25.2142ZM12.8392 15.8558L17.5592 17.3783L12.8392 18.9808L7.75584 17.2892L12.8392 15.8558ZM18.9683 25.2142V17.8333L23.9983 19.5467V27.01L18.9683 25.2142ZM29.95 25.2142V17.8333L24.92 19.5467V27.01L29.95 25.2142ZM24.5833 15.8558L29.3033 17.3783L24.5833 18.9808L19.5 17.2892L24.5833 15.8558ZM24.965 14.9142V7.54167L29.995 9.25583V16.7183L24.965 14.9142ZM35.94 14.9133V7.54167L30.91 9.25583V16.7183L35.94 14.9133ZM30.5642 5.55833L35.2842 7.08L30.5642 8.6825L25.4808 6.99083L30.5642 5.55833ZM36.6933 14.9142V7.54167L41.7233 9.25583V16.7183L36.6933 14.9142ZM47.6667 14.9142V7.54167L42.6367 9.25583V16.7183L47.6667 14.9142ZM42.3 5.55833L47.02 7.08L42.3 8.6825L37.2167 6.99083L42.3 5.55833Z" fill="#7F7C82"/>
<path d="M39.165 32.515L37.475 38.385H36.7417L35.4083 34.025L34.2017 38.385H33.4533L31.6975 32.515H32.6142L33.8933 36.89L35.11 32.515H35.78L37.1033 36.9033L38.4183 32.515H39.1558H39.165ZM43.8383 36.6333L44.6883 36.8C44.5323 37.3037 44.2141 37.7417 43.7833 38.0458C43.3333 38.375 42.8067 38.5392 42.2 38.5392C41.4 38.5392 40.7517 38.2575 40.2567 37.6925C39.7617 37.1275 39.5067 36.3883 39.5067 35.4733C39.5067 34.5383 39.7567 33.7833 40.2783 33.2067C40.5174 32.9285 40.8152 32.7067 41.1502 32.5573C41.4852 32.4079 41.8491 32.3345 42.2158 32.3425C42.9825 32.3425 43.5975 32.6075 44.0642 33.1383C44.5308 33.6692 44.7692 34.4617 44.7808 35.5183H40.52C40.52 36.4058 40.705 37.005 41.0767 37.315C41.4483 37.625 41.84 37.78 42.2533 37.78C42.9992 37.78 43.525 37.395 43.83 36.6242L43.8383 36.6333ZM43.7883 34.8467C43.78 34.5175 43.7267 34.225 43.6258 33.9692C43.525 33.7133 43.355 33.4958 43.115 33.3158C42.875 33.1358 42.5875 33.0458 42.2508 33.0458C42.0356 33.0423 41.8219 33.084 41.6237 33.1681C41.4255 33.2522 41.2471 33.3769 41.1 33.5342C40.785 33.8675 40.6 34.2967 40.5692 34.8467H43.7875H43.7883ZM46.43 38.385H45.9908V30.4683H46.905V33.5017C47.3217 32.7408 47.905 32.36 48.6325 32.36C49.3042 32.36 49.8675 32.6267 50.3217 33.1575C50.7758 33.6883 51.0025 34.4608 51.0025 35.4725C51.0025 36.345 50.7775 37.0767 50.3325 37.6683C49.8875 38.26 49.3042 38.5558 48.5892 38.5558C47.7925 38.5558 47.1725 38.1775 46.7558 37.4225L46.4225 38.3933L46.43 38.385ZM46.905 36.085C46.9467 36.6875 47.1325 37.125 47.4592 37.3967C47.7858 37.6683 48.1317 37.8133 48.4958 37.8133C48.96 37.8133 49.3342 37.6117 49.6192 37.2083C49.9042 36.805 50.0458 36.2525 50.0458 35.5517C50.0458 34.7958 49.9083 34.2017 49.6342 33.7683C49.36 33.335 48.9783 33.12 48.4908 33.12C48.1075 33.12 47.7625 33.2742 47.4542 33.5817C47.1458 33.8892 46.9542 34.2875 46.9058 34.775V36.0833L46.905 36.085ZM53.3325 36.8633L54.2042 36.6833C54.3975 37.4208 55.0108 37.7892 56.0408 37.7892C56.42 37.7892 56.7425 37.7042 57.0058 37.5342C57.13 37.4606 57.2322 37.355 57.3019 37.2286C57.3715 37.1021 57.4059 36.9593 57.4017 36.815C57.4017 36.3567 57.0658 36.065 56.395 35.94L55.1592 35.705C54.6758 35.6117 54.29 35.43 54.0033 35.1583C53.7167 34.8867 53.5742 34.5292 53.5742 34.075C53.5742 33.575 53.7692 33.1717 54.1608 32.84C54.5525 32.5083 55.0775 32.3433 55.74 32.3433C57.0133 32.3433 57.7983 32.8408 58.0983 33.8367L57.2617 34.0167C57.0217 33.4083 56.5283 33.1025 55.7825 33.1025C55.4108 33.1025 55.1058 33.1858 54.8683 33.3308C54.7571 33.3954 54.6652 33.4888 54.6025 33.6011C54.5397 33.7134 54.5084 33.8405 54.5117 33.9692C54.5117 34.4008 54.8158 34.6717 55.4233 34.7842L56.565 34.9942C57.7617 35.2108 58.3592 35.7917 58.3592 36.7342C58.3644 36.9902 58.3061 37.2436 58.1895 37.4716C58.0728 37.6996 57.9015 37.8952 57.6908 38.0408C57.2458 38.3725 56.6533 38.5392 55.9125 38.5392C54.5208 38.5392 53.6625 37.9775 53.3325 36.8558V36.8633ZM63.2208 36.6333L64.0708 36.8C63.9167 37.3017 63.615 37.7167 63.1658 38.0458C62.7167 38.375 62.1892 38.5392 61.5825 38.5392C60.7825 38.5392 60.1342 38.2575 59.6392 37.6925C59.1442 37.1275 58.8892 36.3883 58.8892 35.4733C58.8892 34.5383 59.1458 33.7833 59.6608 33.2067C59.8999 32.9285 60.1977 32.7067 60.5327 32.5573C60.8677 32.4079 61.2316 32.3345 61.5983 32.3425C62.3633 32.3425 62.98 32.6075 63.4458 33.1383C63.9117 33.6692 64.1508 34.4617 64.1625 35.5183H59.9025C59.9025 36.4058 60.0875 37.005 60.4583 37.315C60.8292 37.625 61.2217 37.78 61.6358 37.78C62.3817 37.78 62.9075 37.395 63.2125 36.6242L63.2208 36.6333ZM63.1708 34.8467C63.1625 34.5175 63.1083 34.225 63.0083 33.9692C62.9083 33.7133 62.7383 33.4958 62.4983 33.3158C62.2583 33.1358 61.9708 33.0458 61.6342 33.0458C61.4187 33.0422 61.205 33.0838 61.0066 33.1679C60.8082 33.2521 60.6297 33.3768 60.4825 33.5342C60.1675 33.8675 59.9825 34.2967 59.9525 34.8467H63.1708ZM66.0683 38.385H65.1542V32.515H65.9542V33.8833C66.2375 33.2417 66.5208 32.8267 66.8042 32.6375C67.0875 32.4483 67.3875 32.3525 67.6775 32.3525C67.7978 32.3542 67.9179 32.3614 68.0375 32.3742V33.2458H67.8525C67.35 33.2458 66.9325 33.4325 66.6 33.8058C66.2675 34.1792 66.09 34.67 66.0667 35.2775V38.3858L66.0683 38.385ZM73.7183 32.515L71.6917 38.385H70.7442L68.65 32.515H69.6617L71.2908 37.2858L72.9075 32.515H73.7183ZM75.4267 30.4583V31.4725H74.45V30.4583H75.4283H75.4267ZM75.405 32.5142V38.3842H74.5V32.5142H75.4142H75.405ZM80.1833 36.3292L81.0058 36.4742C80.8892 37.1225 80.6325 37.63 80.2342 37.9975C79.8358 38.365 79.3383 38.5475 78.7342 38.5475C77.9258 38.5475 77.3175 38.2475 76.8842 37.6517C76.4508 37.0558 76.2483 36.3183 76.2483 35.4642C76.2483 34.5725 76.4717 33.8308 76.9192 33.2392C77.3667 32.6475 77.975 32.3517 78.7525 32.3517C79.3908 32.3517 79.9025 32.5433 80.2883 32.935C80.6742 33.3267 80.9133 33.81 81.005 34.4167L80.1825 34.5733C80.0275 33.6042 79.56 33.12 78.7783 33.12C78.5451 33.1122 78.314 33.1677 78.1097 33.2807C77.9055 33.3937 77.7357 33.5599 77.6183 33.7617C77.3475 34.1892 77.2117 34.7433 77.2117 35.425C77.2117 36.175 77.345 36.7583 77.615 37.175C77.7311 37.3708 77.8975 37.532 78.097 37.6417C78.2964 37.7515 78.5216 37.8059 78.7492 37.7992C79.5033 37.7992 79.9808 37.3125 80.1825 36.3383L80.1833 36.3292ZM86.1634 36.6333L87.0133 36.8C86.8573 37.3037 86.5391 37.7417 86.1083 38.0458C85.6583 38.375 85.1317 38.5392 84.525 38.5392C83.725 38.5392 83.075 38.2575 82.5808 37.6925C82.0867 37.1275 81.8308 36.3883 81.8308 35.4733C81.8308 34.5383 82.0808 33.7833 82.6025 33.2067C82.8416 32.9285 83.1393 32.7067 83.4743 32.5573C83.8093 32.4079 84.1733 32.3345 84.54 32.3425C85.3067 32.3425 85.9233 32.6075 86.3883 33.1383C86.8533 33.6692 87.0933 34.4617 87.105 35.5183H82.845C82.845 36.4058 83.03 37.005 83.4017 37.315C83.7733 37.625 84.165 37.78 84.5784 37.78C85.3242 37.78 85.85 37.395 86.155 36.6242L86.1634 36.6333ZM86.1133 34.8467C86.105 34.5175 86.0517 34.225 85.9508 33.9692C85.846 33.7076 85.6692 33.4811 85.4408 33.3158C85.2008 33.1358 84.9133 33.0458 84.5767 33.0458C84.3615 33.0419 84.1478 33.0834 83.9497 33.1676C83.7516 33.2517 83.5733 33.3766 83.4267 33.5342C83.1133 33.8675 82.9267 34.2967 82.8958 34.8467H86.1142H86.1133ZM87.63 36.8633L88.5017 36.6833C88.695 37.4208 89.3075 37.7892 90.3383 37.7892C90.7175 37.7892 91.0384 37.7042 91.3034 37.5342C91.4274 37.4604 91.5294 37.3549 91.5989 37.2284C91.6683 37.102 91.7027 36.9592 91.6984 36.815C91.6984 36.3567 91.3625 36.065 90.6925 35.94L89.4567 35.705C88.9734 35.6117 88.5875 35.43 88.3008 35.1583C88.0142 34.8867 87.8717 34.5292 87.8717 34.075C87.8717 33.575 88.0667 33.1717 88.4584 32.84C88.85 32.5083 89.375 32.3433 90.0375 32.3433C91.3108 32.3433 92.0958 32.8408 92.3958 33.8367L91.5592 34.0167C91.3192 33.4083 90.8259 33.1025 90.08 33.1025C89.7084 33.1025 89.4133 33.1858 89.1659 33.3308C89.0546 33.3954 88.9627 33.4888 88.9 33.6011C88.8372 33.7134 88.8059 33.8405 88.8092 33.9692C88.8092 34.4008 89.1133 34.6717 89.7209 34.7842L90.8625 34.9942C92.0592 35.2108 92.6567 35.7917 92.6567 36.7342C92.6619 36.9902 92.6036 37.2436 92.487 37.4716C92.3703 37.6996 92.199 37.8952 91.9883 38.0408C91.5433 38.3725 90.9508 38.5392 90.21 38.5392C88.82 38.5392 87.96 37.9775 87.6308 36.8558L87.63 36.8633Z" fill="#7F7C82" stroke="#7F7C82" stroke-width="0.213"/>
<path fill-rule="evenodd" clip-rule="evenodd" d="M67.0166 19.97V18.56C67.0155 18.5126 67.024 18.4655 67.0416 18.4215C67.0592 18.3775 67.0856 18.3376 67.1191 18.3041C67.1526 18.2706 67.1925 18.2442 67.2365 18.2266C67.2805 18.209 67.3276 18.2005 67.375 18.2017H73.6941C73.8958 18.2017 74.0583 18.3483 74.0592 18.5575V19.7658C74.0575 19.9683 73.8867 20.2325 73.5842 20.6533L70.3116 25.3267C71.5266 25.2983 72.8116 25.48 73.9158 26.1017C74.1658 26.2417 74.2308 26.4483 74.2508 26.6517V28.1558C74.2508 28.3642 74.0242 28.6033 73.7858 28.4783C71.8408 27.4592 69.2608 27.3475 67.1091 28.49C66.8891 28.6067 66.6591 28.3708 66.6591 28.1633V26.7333C66.6591 26.5042 66.6633 26.1133 66.8942 25.7642L70.6858 20.3225H67.3833C67.3357 20.3247 67.2881 20.3171 67.2435 20.3002C67.1989 20.2833 67.1583 20.2575 67.124 20.2243C67.0898 20.1912 67.0626 20.1513 67.0443 20.1073C67.026 20.0633 67.0169 20.016 67.0175 19.9683L67.0166 19.97ZM44.4025 28.7767H42.48C42.2967 28.765 42.1508 28.6267 42.1367 28.4433L42.1375 18.5767C42.1375 18.3792 42.3042 18.2217 42.5083 18.2217L44.2983 18.2208C44.4858 18.2308 44.6358 18.3725 44.6483 18.5525V19.8408H44.6842C45.1508 18.595 46.03 18.0133 47.2142 18.0133C48.4167 18.0133 49.17 18.595 49.7092 19.8408C50.1758 18.595 51.2342 18.0133 52.365 18.0133C53.1733 18.0133 54.0517 18.3467 54.59 19.0933C55.2 19.9233 55.075 21.1283 55.075 22.1875L55.0733 28.4142C55.0733 28.6117 54.9067 28.7692 54.7025 28.7692H52.7833C52.5917 28.7567 52.4383 28.6042 52.4383 28.415V23.1917C52.4383 22.775 52.4742 21.7383 52.3842 21.3433C52.2408 20.6792 51.8008 20.4917 51.2542 20.4917C50.7875 20.4917 50.3025 20.8033 50.1042 21.3017C49.9058 21.8 49.925 22.6308 49.925 23.1917V28.4217C49.925 28.6192 49.7583 28.7767 49.5542 28.7767H47.6333C47.44 28.7642 47.2883 28.6117 47.2883 28.4225L47.2867 23.1917C47.2867 22.0917 47.4658 20.4717 46.1033 20.4717C44.7217 20.4717 44.775 22.0492 44.775 23.1917V28.4217C44.775 28.6192 44.6083 28.7767 44.4042 28.7767H44.4025ZM78.7025 18.0208C81.5333 18.0208 83.0642 20.4708 83.0642 23.5858C83.0642 26.5967 81.3725 28.9842 78.7025 28.9842C75.925 28.9842 74.4108 26.5342 74.4108 23.4817C74.4108 20.4092 75.9425 18.0208 78.7025 18.0208ZM78.7208 20.2892C77.3141 20.2892 77.225 22.22 77.225 23.4242C77.225 24.6283 77.2083 26.9492 78.7033 26.9492C80.1816 26.9492 80.2533 25.1267 80.2533 23.86C80.2533 23.03 80.2183 22.0325 79.97 21.2433C79.7558 20.5583 79.3283 20.2883 78.7233 20.2883L78.7208 20.2892ZM87.1608 28.7767H85.2458C85.0541 28.7642 84.9008 28.6117 84.9008 28.4225L84.8975 18.5517C84.9141 18.3708 85.0641 18.23 85.2666 18.23L87.05 18.2292C87.1292 18.2322 87.2053 18.2607 87.2669 18.3106C87.3285 18.3605 87.3723 18.429 87.3917 18.5058V20.0058H87.4283C87.9666 18.6558 88.72 18.0125 90.0483 18.0125C90.9091 18.0125 91.7533 18.3242 92.2916 19.175C92.7941 19.9642 92.7941 21.2917 92.7941 22.2483V28.4567C92.7725 28.6233 92.6158 28.7675 92.4258 28.7675H90.4983C90.3208 28.7558 90.1775 28.6258 90.165 28.4567V23.0983C90.165 22.0192 90.29 20.4317 88.9625 20.4317C88.4958 20.4317 88.065 20.7433 87.85 21.2208C87.5808 21.8233 87.5442 22.425 87.5442 23.09V28.4033C87.5408 28.6008 87.375 28.7583 87.1691 28.7583L87.1608 28.7767ZM62.1983 24.0642C62.1983 24.8142 62.2167 25.4375 61.8383 26.1033C61.5325 26.645 61.0467 26.9783 60.5075 26.9783C59.77 26.9783 59.3383 26.4167 59.3383 25.5842C59.3383 23.9475 60.8075 23.6492 62.1967 23.6492V24.0658L62.1983 24.0642ZM64.1367 28.7517C64.0091 28.8658 63.8258 28.8733 63.6825 28.7967C63.0441 28.2658 62.93 28.0217 62.5808 27.515C61.5258 28.5983 60.7783 28.9125 59.4116 28.9125C57.7933 28.9125 56.5342 27.9125 56.5342 25.9158C56.5342 24.355 57.3792 23.2942 58.5842 22.7742C59.6275 22.3158 61.0842 22.2325 62.1992 22.1075V21.8575C62.1992 21.3992 62.235 20.8592 61.9658 20.4633C61.7325 20.1092 61.2825 19.9633 60.8867 19.9633C60.1533 19.9633 59.5017 20.3383 59.3408 21.1183C59.3075 21.2917 59.1808 21.4625 59.0075 21.4717L57.1441 21.27C56.9775 21.2342 56.8108 21.1083 56.8575 20.8683C57.2858 18.6075 59.3275 17.925 61.1575 17.925C62.0925 17.925 63.3242 18.175 64.0525 18.8833C64.9883 19.7583 64.8975 20.9225 64.8975 22.1917V25.1867C64.8975 26.0867 65.2725 26.4825 65.6225 26.9683C65.745 27.135 65.7725 27.3517 65.6158 27.4792L64.1408 28.7558L64.1358 28.7508L64.1367 28.7517ZM37.2142 24.0642C37.2142 24.8142 37.2325 25.4375 36.8542 26.1033C36.5483 26.645 36.0625 26.9783 35.5233 26.9783C34.7858 26.9783 34.3542 26.4167 34.3542 25.5842C34.3542 23.9475 35.8225 23.6492 37.2125 23.6492V24.0658L37.2142 24.0642ZM39.1525 28.7517C39.025 28.8658 38.8417 28.8733 38.6983 28.7967C38.06 28.2658 37.945 28.0217 37.5967 27.515C36.5417 28.5983 35.7942 28.9125 34.4275 28.9125C32.8092 28.9125 31.55 27.9125 31.55 25.9158C31.55 24.355 32.395 23.2942 33.6 22.7742C34.6433 22.3158 36.1 22.2325 37.215 22.1075V21.8575C37.215 21.3992 37.2508 20.8592 36.9817 20.4633C36.7483 20.1092 36.2983 19.9633 35.9025 19.9633C35.1692 19.9633 34.5175 20.3383 34.3567 21.1183C34.3233 21.2917 34.19 21.4625 34.0233 21.4717L32.16 21.27C31.9933 21.2342 31.8267 21.1083 31.8733 20.8683C32.3008 18.6075 34.3425 17.925 36.1733 17.925C37.1083 17.925 38.34 18.175 39.0692 18.8833C40.0042 19.7583 39.9142 20.9225 39.9142 22.1917V25.1867C39.9142 26.0867 40.2892 26.4825 40.6392 26.9683C40.7617 27.135 40.7892 27.3517 40.6333 27.4792L39.1667 28.7558L39.1617 28.7508L39.1525 28.7517Z" fill="#7F7C82"/>
</svg>
