<svg width="100" height="50" viewBox="0 0 100 50" fill="none" xmlns="http://www.w3.org/2000/svg">
<path d="M43.9299 15.1671H58.3359V21.1914H49.9542V27.2157H58.3359V33.24H43.9299V15.1671Z" fill="#7F7C82"/>
<path d="M61.217 15.1671H75.623V20.4056H67.2413V21.4534H75.623V33.502H61.217V28.0015H69.5987V26.9538H61.217V15.1671Z" fill="#7F7C82"/>
<path d="M78.5042 15.1671H92.9101V20.4056H84.5284V21.4534H92.9101V33.502H78.5042V28.0015H86.8858V26.9538H78.5042V15.1671Z" fill="#7F7C82"/>
<path d="M34.6352 39.1325L21.4925 42.7761L8.38594 39.1377L5.46521 6.37828H37.559L34.6352 39.1325Z" fill="#7F7C82"/>
<path d="M21.5121 39.9911L32.132 37.0469L34.6306 9.05685H21.5121V39.9911Z" fill="#7F7C82"/>
<path d="M21.5121 21.2068H12.1609L12.5211 25.2246H21.5121V21.2068Z" fill="#CCCCCC"/>
<path d="M21.4982 13.0747H11.4374L11.8026 17.0926H21.5121V13.0747H21.4982Z" fill="#CCCCCC"/>
<path d="M21.4945 31.6462L17.0199 30.438L16.7338 27.2336H14.5595H12.7006L13.2635 33.5421L21.4936 35.8268L21.5121 35.8217V31.6415L21.4945 31.6462Z" fill="#CCCCCC"/>
<path d="M27.1597 17.0926L26.7941 21.2069H21.4982V25.2246H26.4457L25.9793 30.4354L21.4982 31.6449V35.8249L29.735 33.5421L29.7954 32.8633L30.7395 22.2857L30.8376 21.2069L31.5629 13.0747H21.4982V17.0926H27.1597Z" fill="white"/>
</svg>
