<svg width="100" height="50" viewBox="0 0 100 50" fill="none" xmlns="http://www.w3.org/2000/svg">
<path d="M14.9826 44.8611C18.6354 44.8611 21.6007 41.8958 21.6007 38.2431V31.625H14.9826C11.3299 31.625 8.36458 34.5903 8.36458 38.2431C8.36458 41.8958 11.3299 44.8611 14.9826 44.8611Z" fill="#7F7C82"/>
<path d="M8.35764 25C8.35764 21.3472 11.3229 18.3819 14.9757 18.3819H21.5938V31.625H14.9757C11.3229 31.625 8.35764 28.6597 8.35764 25.0069V25Z" fill="#7F7C82"/>
<path d="M8.35764 11.7569C8.35764 8.10416 11.3229 5.13889 14.9757 5.13889H21.5938V18.3819H14.9757C11.3229 18.3819 8.35764 15.4167 8.35764 11.7639V11.7569Z" fill="#7F7C82"/>
<path d="M21.5382 5.13889H28.1563C31.809 5.13889 34.7743 8.10416 34.7743 11.7569C34.7743 15.4097 31.809 18.375 28.1563 18.375H21.5382V5.13889Z" fill="#9A989C"/>
<path d="M34.8438 25C34.8438 28.6528 31.8785 31.6181 28.2257 31.6181C24.5729 31.6181 21.5382 28.6528 21.5382 25C21.5382 21.3472 24.5035 18.3819 28.1563 18.3819C31.809 18.3819 34.7743 21.3472 34.7743 25H34.8438Z" fill="#9A989C"/>
<path d="M42.0799 16.1111V29.9861H43.8646V23.3611H48.1563V21.6389H43.8646V17.8472H49.441V16.1111H42.0799ZM52.6701 18.9306C53.316 18.9306 53.8368 18.4097 53.8368 17.7639C53.8368 17.1181 53.309 16.6667 52.6701 16.6667C52.0313 16.6667 51.5035 17.1875 51.5035 17.8333C51.5035 18.1458 51.6285 18.4375 51.8507 18.6667C52.0729 18.8958 52.3646 19.0139 52.684 19.0139L52.6701 18.9306ZM51.7674 20.6806V29.9861H53.4826V20.6806H51.7118H51.7674ZM60.184 20.4028C57.809 20.4028 56.1563 22.4861 56.1563 24.7917C56.1563 27.0972 57.8229 29.1667 60.184 29.1667C60.6753 29.1753 61.163 29.0815 61.6162 28.8915C62.0693 28.7014 62.4779 28.4191 62.816 28.0625V29.2986C62.811 30.0413 62.5229 30.7541 62.0104 31.2917C61.7515 31.5558 61.4425 31.7656 61.1014 31.9087C60.7604 32.0518 60.3942 32.1253 60.0243 32.125C59.4564 32.1071 58.9061 31.9236 58.441 31.5972L57.5382 33.1458C58.2315 33.5917 59.0322 33.8424 59.856 33.8714C60.6797 33.9004 61.4961 33.7068 62.219 33.3108C62.942 32.9148 63.5448 32.3313 63.9639 31.6215C64.3831 30.9117 64.6031 30.1021 64.6007 29.2778V20.6667H62.816V21.5C62.4779 21.1434 62.0693 20.8611 61.6162 20.6711C61.163 20.481 60.6753 20.3872 60.184 20.3958V20.4028ZM57.9479 24.7917C57.9073 24.3402 57.9936 23.8863 58.1974 23.4814C58.4011 23.0764 58.714 22.7365 59.1007 22.5C59.8924 22.0139 60.8854 22.0139 61.6701 22.5C62.4549 22.9861 62.8993 23.875 62.8229 24.7917C62.8636 25.2432 62.7772 25.697 62.5735 26.102C62.3698 26.5069 62.0569 26.8469 61.6701 27.0833C60.8785 27.5695 59.8854 27.5695 59.1007 27.0833C58.316 26.5972 57.8715 25.7083 57.9479 24.7917Z" fill="#7F7C82"/>
<path d="M71.0382 22.2222C70.5249 22.2241 70.0332 22.4288 69.6702 22.7917C69.3072 23.1547 69.1025 23.6464 69.1007 24.1597V30.0486H67.316V20.7431H69.1007V21.5278C69.6424 20.8056 70.5035 20.3889 71.4062 20.4028C72.5451 20.375 73.6076 20.9861 74.1701 21.9792C74.8646 21.0069 75.8646 20.4167 76.9479 20.4028C78.9826 20.4028 80.2465 22.0417 80.2535 24.0694V29.9931H78.4687V24.0903C78.5211 23.7226 78.467 23.3476 78.3129 23.0097C78.1588 22.6717 77.9111 22.385 77.5992 22.1834C77.2873 21.9818 76.9242 21.8737 76.5528 21.872C76.1814 21.8703 75.8173 21.9749 75.5035 22.1736C75.1914 22.377 74.9444 22.6658 74.7917 23.0056C74.6391 23.3454 74.5872 23.7219 74.6424 24.0903V29.9792H72.9271V24.0972C72.9252 23.5839 72.7205 23.0922 72.3576 22.7292C71.9946 22.3663 71.5029 22.1616 70.9896 22.1597L71.0382 22.2222ZM89.7882 21.7361C89.382 21.3122 88.8933 20.9759 88.3524 20.7478C87.8114 20.5197 87.2294 20.4046 86.6424 20.4097C83.9826 20.4097 82.1285 22.6597 82.1285 25.2708C82.1285 27.8819 84.0035 30.1319 86.6424 30.1319C87.2294 30.137 87.8114 30.022 88.3524 29.7939C88.8933 29.5658 89.382 29.2294 89.7882 28.8056V29.8611H91.5729V20.5556H89.7882V21.7361ZM83.8854 25.3472C83.7951 24.2361 84.3368 23.1667 85.2882 22.5833C86.2396 22 87.3715 22 88.3854 22.5833C88.8498 22.8715 89.2261 23.2817 89.4735 23.769C89.7208 24.2564 89.8297 24.8023 89.7882 25.3472C89.8785 26.4583 89.3368 27.5278 88.3854 28.1111C87.434 28.6944 86.3021 28.6944 85.2882 28.1111C84.8238 27.8229 84.4475 27.4128 84.2001 26.9254C83.9528 26.4381 83.8439 25.8922 83.8854 25.3472Z" fill="#7F7C82"/>
</svg>
