<svg width="31" height="31" viewBox="0 0 31 31" fill="none" xmlns="http://www.w3.org/2000/svg">
<g clip-path="url(#clip0_675_6)">
<path fill-rule="evenodd" clip-rule="evenodd" d="M15.5004 0.645874C11.8207 0.647783 8.26169 1.95105 5.45973 4.32263C2.65777 6.69422 0.795567 9.97947 0.206104 13.591C-0.38336 17.2024 0.338347 20.9047 2.24219 24.0356C4.14604 27.1666 7.10786 29.5221 10.5981 30.681C11.3681 30.8239 11.6581 30.3466 11.6581 29.9409C11.6581 29.5351 11.6427 28.3586 11.6375 27.0724C7.32558 28.0039 6.41442 25.2528 6.41442 25.2528C5.71116 23.4663 4.69476 22.9967 4.69476 22.9967C3.28824 22.0423 4.80001 22.0601 4.80001 22.0601C6.35796 22.1699 7.17673 23.6501 7.17673 23.6501C8.55758 26.0056 10.8034 25.3242 11.6863 24.9261C11.8249 23.9282 12.2279 23.2494 12.6719 22.864C9.22747 22.4761 5.60849 21.1542 5.60849 15.2487C5.58714 13.7172 6.15872 12.2361 7.20496 11.1118C7.04582 10.7239 6.51452 9.15697 7.35638 7.02856C7.35638 7.02856 8.65768 6.61512 11.6196 8.60828C14.1601 7.91747 16.8406 7.91747 19.3811 8.60828C22.3405 6.61512 23.6392 7.02856 23.6392 7.02856C24.4836 9.15186 23.9523 10.7188 23.7932 11.1118C24.8428 12.2362 25.4155 13.7199 25.3922 15.2538C25.3922 21.172 21.7656 22.4761 18.316 22.8564C18.8704 23.3362 19.3657 24.2728 19.3657 25.7121C19.3657 27.7742 19.3478 29.433 19.3478 29.9409C19.3478 30.3517 19.6275 30.8315 20.4129 30.681C23.9035 29.5219 26.8657 27.166 28.7695 24.0345C30.6733 20.903 31.3946 17.2003 30.8045 13.5884C30.2143 9.97662 28.3512 6.69133 25.5483 4.32016C22.7454 1.94898 19.1856 0.646573 15.5055 0.645874H15.5004Z" fill="#C4C4C4"/>
<path d="M5.86989 22.7747C5.83653 22.8512 5.71333 22.8742 5.61323 22.8206C5.51313 22.767 5.4387 22.6675 5.47463 22.5884C5.51057 22.5093 5.6312 22.4889 5.7313 22.5425C5.8314 22.596 5.90839 22.6981 5.86989 22.7747Z" fill="#C4C4C4"/>
<path d="M6.49875 23.4714C6.4456 23.498 6.38479 23.5054 6.32673 23.4924C6.26867 23.4794 6.21698 23.4467 6.18049 23.3999C6.08039 23.2927 6.05985 23.1447 6.13685 23.0784C6.21385 23.012 6.35246 23.0426 6.45255 23.1498C6.55265 23.257 6.57575 23.405 6.49875 23.4714Z" fill="#C4C4C4"/>
<path d="M7.10962 24.357C7.01466 24.4233 6.85295 24.357 6.76312 24.2243C6.73828 24.2005 6.71853 24.1719 6.70503 24.1403C6.69153 24.1088 6.68457 24.0748 6.68457 24.0405C6.68457 24.0062 6.69153 23.9723 6.70503 23.9407C6.71853 23.9091 6.73828 23.8806 6.76312 23.8568C6.85808 23.793 7.01979 23.8568 7.10962 23.9869C7.19946 24.1171 7.20202 24.2906 7.10962 24.357V24.357Z" fill="#C4C4C4"/>
<path d="M7.93863 25.2144C7.85393 25.3088 7.68197 25.2833 7.5408 25.1557C7.39964 25.0281 7.36626 24.8546 7.45096 24.7627C7.53566 24.6708 7.70763 24.6963 7.85393 24.8214C8.00023 24.9464 8.02846 25.1225 7.93863 25.2144V25.2144Z" fill="#C4C4C4"/>
<path d="M9.10133 25.7146C9.06283 25.8346 8.88829 25.8882 8.71376 25.8371C8.53923 25.7861 8.42373 25.6432 8.4571 25.5207C8.49046 25.3982 8.66756 25.342 8.84466 25.3982C9.02176 25.4543 9.13469 25.5896 9.10133 25.7146Z" fill="#C4C4C4"/>
<path d="M10.3693 25.8014C10.3693 25.9265 10.2256 26.0336 10.0408 26.0362C9.85596 26.0388 9.70453 25.9367 9.70453 25.8116C9.70453 25.6866 9.84825 25.5794 10.0331 25.5768C10.2179 25.5743 10.3693 25.6738 10.3693 25.8014Z" fill="#C4C4C4"/>
<path d="M11.5499 25.6049C11.573 25.7299 11.4447 25.8601 11.2599 25.8907C11.0751 25.9213 10.9134 25.8473 10.8903 25.7248C10.8672 25.6023 11.0007 25.4696 11.1803 25.4365C11.36 25.4033 11.5268 25.4798 11.5499 25.6049Z" fill="#C4C4C4"/>
</g>
<defs>
<clipPath id="clip0_675_6">
<rect width="31" height="31" fill="white"/>
</clipPath>
</defs>
</svg>
