<svg width="300" height="215" viewBox="0 0 550 395" fill="none" xmlns="http://www.w3.org/2000/svg">
<g clip-path="url(#clip0_7_44)">
<path d="M316.949 19.2247C321.667 28.7763 311.67 31.4818 300.219 36.6013C288.767 41.7208 280.198 47.3157 275.48 37.7641C270.763 28.2126 266.935 9.25451 283.135 2.01207C299.893 -5.47986 312.231 9.67319 316.949 19.2247Z" fill="#2F2E41"/>
<path d="M293.585 38.0088C302.099 38.0088 309.001 31.4423 309.001 23.3422C309.001 15.242 302.099 8.67548 293.585 8.67548C285.071 8.67548 278.169 15.242 278.169 23.3422C278.169 31.4423 285.071 38.0088 293.585 38.0088Z" fill="#FFB8B8"/>
<path d="M369.959 88.3859C369.425 87.723 368.892 87.0721 368.352 86.4392C367.655 85.6151 366.954 84.8169 366.249 84.0446C358.259 75.2724 349.761 69.7487 340.402 69.1576H340.39L340.252 69.1456L321.604 86.4392L315.264 92.3151L315.403 92.6376L318.823 100.741H378.759C376.058 96.4769 373.12 92.3527 369.959 88.3859Z" fill="#2F2E41"/>
<path d="M276.822 29.2469L282.34 26.7798L281.571 19.2059L285.261 25.4738L287.899 24.2946L287.45 19.8765L289.603 23.5327L309.201 14.771C307.361 11.0442 304.039 8.16572 299.968 6.76881C295.896 5.37189 291.408 5.57094 287.491 7.32218L284.651 8.59201C280.734 10.3433 277.708 13.5032 276.24 17.3768C274.772 21.2503 274.981 25.5201 276.822 29.2469Z" fill="#2F2E41"/>
<path d="M404.543 295.471H82.6549C79.9092 295.468 77.2768 294.429 75.3353 292.582C73.3937 290.735 72.3016 288.23 72.2985 285.618V101.603C72.3008 99.6895 73.1008 97.8547 74.5232 96.5014C75.9455 95.1481 77.874 94.3869 79.8856 94.3847H407.181C409.227 94.3869 411.189 95.1613 412.636 96.538C414.083 97.9146 414.897 99.7812 414.899 101.728V285.618C414.896 288.23 413.804 290.735 411.862 292.582C409.921 294.429 407.288 295.468 404.543 295.471Z" fill="#F2F2F2"/>
<path d="M92.6975 285.618H394.5C397.164 285.618 399.718 284.611 401.601 282.82C403.485 281.028 404.543 278.598 404.543 276.064V119.88C404.543 117.346 403.485 114.915 401.601 113.124C399.718 111.332 397.164 110.325 394.5 110.325H92.6975C90.034 110.325 87.4796 111.332 85.5963 113.124C83.713 114.915 82.6549 117.346 82.6549 119.88V276.064C82.6549 278.598 83.713 281.028 85.5963 282.82C87.4796 284.611 90.034 285.618 92.6975 285.618Z" fill="white"/>
<path d="M414.755 101.04H72.1532V96.0234C72.1572 93.4024 73.2538 90.89 75.2023 89.0372C77.1509 87.1845 79.7924 86.1428 82.5473 86.1406H404.361C407.116 86.1428 409.757 87.1845 411.706 89.0372C413.654 90.89 414.751 93.4024 414.755 96.0234V101.04Z" fill="#F0D9FF"/>
<path d="M91.0428 96.1628C92.5276 96.1628 93.7313 95.0177 93.7313 93.605C93.7313 92.1923 92.5276 91.0471 91.0428 91.0471C89.558 91.0471 88.3543 92.1923 88.3543 93.605C88.3543 95.0177 89.558 96.1628 91.0428 96.1628Z" fill="white"/>
<path d="M101.248 96.1628C102.733 96.1628 103.936 95.0177 103.936 93.605C103.936 92.1923 102.733 91.0471 101.248 91.0471C99.763 91.0471 98.5593 92.1923 98.5593 93.605C98.5593 95.0177 99.763 96.1628 101.248 96.1628Z" fill="white"/>
<path d="M111.453 96.1628C112.938 96.1628 114.141 95.0177 114.141 93.605C114.141 92.1923 112.938 91.0471 111.453 91.0471C109.968 91.0471 108.764 92.1923 108.764 93.605C108.764 95.0177 109.968 96.1628 111.453 96.1628Z" fill="white"/>
<path d="M253.016 251.747H226.027C224.446 251.745 222.93 251.147 221.812 250.083C220.694 249.02 220.066 247.578 220.064 246.074V220.396C220.066 218.892 220.694 217.45 221.812 216.387C222.93 215.323 224.446 214.725 226.027 214.723H253.016C254.597 214.725 256.112 215.323 257.23 216.387C258.348 217.45 258.977 218.892 258.979 220.396V246.074C258.977 247.578 258.348 249.02 257.23 250.083C256.112 251.147 254.597 251.745 253.016 251.747ZM226.027 215.918C224.778 215.919 223.582 216.391 222.699 217.231C221.817 218.071 221.32 219.209 221.319 220.396V246.074C221.32 247.261 221.817 248.4 222.699 249.239C223.582 250.079 224.778 250.551 226.027 250.553H253.016C254.264 250.551 255.46 250.079 256.343 249.239C257.226 248.4 257.722 247.261 257.723 246.074V220.396C257.722 219.209 257.226 218.071 256.343 217.231C255.46 216.391 254.264 215.919 253.016 215.918H226.027Z" fill="#CCCCCC"/>
<path d="M247.681 244.581H231.362C230.862 244.581 230.384 244.392 230.031 244.056C229.678 243.72 229.479 243.265 229.479 242.79V223.681C229.479 223.206 229.678 222.75 230.031 222.415C230.384 222.079 230.862 221.89 231.362 221.889H243.186C243.615 221.89 244.031 222.029 244.366 222.284L248.86 225.72C249.08 225.888 249.258 226.1 249.38 226.342C249.502 226.584 249.564 226.849 249.564 227.117V242.79C249.563 243.265 249.365 243.72 249.012 244.056C248.659 244.392 248.18 244.581 247.681 244.581ZM231.362 223.084C231.195 223.084 231.036 223.147 230.918 223.259C230.8 223.371 230.734 223.522 230.734 223.681V242.79C230.734 242.948 230.8 243.1 230.918 243.212C231.036 243.324 231.195 243.387 231.362 243.387H247.681C247.847 243.387 248.007 243.324 248.124 243.212C248.242 243.1 248.308 242.948 248.308 242.79V227.117C248.309 227.027 248.288 226.939 248.247 226.859C248.206 226.778 248.147 226.707 248.074 226.651L243.579 223.215C243.468 223.13 243.329 223.084 243.186 223.084H231.362Z" fill="#CCCCCC"/>
<path d="M244.542 230.249H234.5C234.333 230.249 234.174 230.187 234.056 230.075C233.938 229.963 233.872 229.811 233.872 229.652C233.872 229.494 233.938 229.342 234.056 229.23C234.174 229.118 234.333 229.055 234.5 229.055H244.542C244.709 229.055 244.869 229.118 244.986 229.23C245.104 229.342 245.17 229.494 245.17 229.652C245.17 229.811 245.104 229.963 244.986 230.075C244.869 230.187 244.709 230.249 244.542 230.249Z" fill="#CCCCCC"/>
<path d="M244.542 233.832H234.5C234.333 233.832 234.174 233.769 234.056 233.657C233.938 233.545 233.872 233.394 233.872 233.235C233.872 233.077 233.938 232.925 234.056 232.813C234.174 232.701 234.333 232.638 234.5 232.638H244.542C244.709 232.638 244.869 232.701 244.986 232.813C245.104 232.925 245.17 233.077 245.17 233.235C245.17 233.394 245.104 233.545 244.986 233.657C244.869 233.769 244.709 233.832 244.542 233.832Z" fill="#CCCCCC"/>
<path d="M244.542 237.415H234.5C234.333 237.415 234.174 237.352 234.056 237.24C233.938 237.128 233.872 236.976 233.872 236.818C233.872 236.66 233.938 236.508 234.056 236.396C234.174 236.284 234.333 236.221 234.5 236.221H244.542C244.709 236.221 244.869 236.284 244.986 236.396C245.104 236.508 245.17 236.66 245.17 236.818C245.17 236.976 245.104 237.128 244.986 237.24C244.869 237.352 244.709 237.415 244.542 237.415Z" fill="#CCCCCC"/>
<path d="M317.037 251.747H290.048C288.467 251.745 286.951 251.147 285.833 250.083C284.716 249.02 284.087 247.578 284.085 246.074V220.396C284.087 218.892 284.716 217.45 285.833 216.387C286.951 215.323 288.467 214.725 290.048 214.723H317.037C318.618 214.725 320.134 215.323 321.251 216.387C322.369 217.45 322.998 218.892 323 220.396V246.074C322.998 247.578 322.369 249.02 321.251 250.083C320.134 251.147 318.618 251.745 317.037 251.747ZM290.048 215.918C288.8 215.919 287.603 216.391 286.721 217.231C285.838 218.071 285.342 219.209 285.34 220.396V246.074C285.342 247.261 285.838 248.4 286.721 249.239C287.603 250.079 288.8 250.551 290.048 250.553H317.037C318.285 250.551 319.482 250.079 320.364 249.239C321.247 248.4 321.743 247.261 321.745 246.074V220.396C321.743 219.209 321.247 218.071 320.364 217.231C319.482 216.391 318.285 215.919 317.037 215.918H290.048Z" fill="#CCCCCC"/>
<path d="M312.33 239.804H294.755C294.256 239.803 293.777 239.614 293.424 239.279C293.071 238.943 292.873 238.487 292.872 238.012V228.458C292.873 227.983 293.071 227.528 293.424 227.192C293.777 226.856 294.256 226.667 294.755 226.667H312.33C312.829 226.667 313.308 226.856 313.661 227.192C314.014 227.528 314.212 227.983 314.213 228.458V238.012C314.212 238.487 314.014 238.943 313.661 239.279C313.308 239.614 312.829 239.803 312.33 239.804ZM294.755 227.861C294.589 227.861 294.429 227.924 294.312 228.036C294.194 228.148 294.128 228.3 294.128 228.458V238.012C294.128 238.171 294.194 238.323 294.312 238.435C294.429 238.546 294.589 238.609 294.755 238.61H312.33C312.496 238.609 312.656 238.546 312.773 238.435C312.891 238.323 312.957 238.171 312.957 238.012V228.458C312.957 228.3 312.891 228.148 312.773 228.036C312.656 227.924 312.496 227.861 312.33 227.861H294.755Z" fill="#CCCCCC"/>
<path d="M303.542 234.811C303.19 234.811 302.844 234.717 302.545 234.54L293.167 228.964C293.026 228.88 292.926 228.746 292.889 228.592C292.852 228.438 292.88 228.276 292.969 228.142C293.057 228.008 293.197 227.912 293.359 227.877C293.521 227.841 293.692 227.868 293.833 227.952L303.21 233.527C303.31 233.586 303.425 233.617 303.543 233.617C303.66 233.617 303.775 233.586 303.875 233.527L313.252 227.952C313.393 227.868 313.564 227.841 313.726 227.877C313.888 227.912 314.028 228.008 314.116 228.142C314.204 228.276 314.233 228.438 314.196 228.592C314.159 228.746 314.059 228.88 313.918 228.964L304.541 234.54C304.241 234.718 303.895 234.811 303.542 234.811Z" fill="#CCCCCC"/>
<path d="M188.995 251.747H162.005C160.424 251.745 158.909 251.147 157.791 250.083C156.673 249.02 156.044 247.578 156.042 246.074V220.396C156.044 218.892 156.673 217.45 157.791 216.387C158.909 215.323 160.424 214.725 162.005 214.723H188.995C190.575 214.725 192.091 215.323 193.209 216.387C194.327 217.45 194.956 218.892 194.957 220.396V246.074C194.956 247.578 194.327 249.02 193.209 250.083C192.091 251.147 190.575 251.745 188.995 251.747ZM162.005 215.918C160.757 215.919 159.561 216.391 158.678 217.231C157.796 218.071 157.299 219.209 157.298 220.396V246.074C157.299 247.261 157.796 248.4 158.678 249.239C159.561 250.079 160.757 250.551 162.005 250.553H188.995C190.243 250.551 191.439 250.079 192.322 249.239C193.204 248.4 193.701 247.261 193.702 246.074V220.396C193.701 219.209 193.204 218.071 192.322 217.231C191.439 216.391 190.243 215.919 188.995 215.918H162.005Z" fill="#CCCCCC"/>
<path d="M184.287 239.804H166.713C166.213 239.803 165.735 239.614 165.382 239.279C165.029 238.943 164.83 238.487 164.83 238.012V228.458C164.83 227.983 165.029 227.528 165.382 227.192C165.735 226.856 166.213 226.667 166.713 226.667H184.287C184.786 226.667 185.265 226.856 185.618 227.192C185.971 227.528 186.17 227.983 186.17 228.458V238.012C186.17 238.487 185.971 238.943 185.618 239.279C185.265 239.614 184.786 239.803 184.287 239.804ZM166.713 227.861C166.546 227.861 166.387 227.924 166.269 228.036C166.151 228.148 166.085 228.3 166.085 228.458V238.012C166.085 238.171 166.151 238.323 166.269 238.435C166.387 238.546 166.546 238.609 166.713 238.61H184.287C184.454 238.609 184.613 238.546 184.731 238.435C184.848 238.323 184.915 238.171 184.915 238.012V228.458C184.915 228.3 184.848 228.148 184.731 228.036C184.613 227.924 184.454 227.861 184.287 227.861H166.713Z" fill="#CCCCCC"/>
<path d="M181.502 239.804H168.871C168.65 239.804 168.434 239.749 168.243 239.644C168.052 239.539 167.893 239.388 167.783 239.207C167.673 239.025 167.615 238.819 167.615 238.61C167.615 238.4 167.673 238.194 167.784 238.012L171.588 231.742C171.698 231.561 171.857 231.41 172.048 231.305C172.238 231.2 172.455 231.145 172.675 231.145C172.896 231.145 173.112 231.2 173.303 231.305C173.494 231.41 173.652 231.561 173.763 231.742L176.22 235.792L177.643 233.446C177.754 233.264 177.912 233.113 178.103 233.009C178.294 232.904 178.51 232.849 178.731 232.849C178.951 232.849 179.167 232.904 179.358 233.009C179.549 233.113 179.708 233.264 179.818 233.446L182.589 238.012C182.699 238.194 182.757 238.4 182.757 238.61C182.757 238.819 182.699 239.025 182.589 239.207C182.479 239.388 182.32 239.539 182.129 239.644C181.938 239.749 181.722 239.804 181.502 239.804H181.502ZM181.502 238.61L178.731 234.043L176.764 237.285C176.708 237.375 176.629 237.451 176.534 237.503C176.438 237.556 176.33 237.583 176.22 237.583C176.11 237.583 176.001 237.556 175.906 237.503C175.811 237.451 175.731 237.375 175.676 237.285L172.676 232.339L168.871 238.61H181.502Z" fill="#CCCCCC"/>
<path d="M182.404 231.444C183.097 231.444 183.659 230.909 183.659 230.249C183.659 229.59 183.097 229.055 182.404 229.055C181.711 229.055 181.149 229.59 181.149 230.249C181.149 230.909 181.711 231.444 182.404 231.444Z" fill="#CCCCCC"/>
<path d="M482.56 387.044L474.865 387.044L471.204 358.806L482.561 358.806L482.56 387.044Z" fill="#FFB8B8"/>
<path d="M484.522 394.141L459.711 394.14V393.841C459.711 392.635 459.961 391.44 460.446 390.325C460.931 389.21 461.643 388.198 462.539 387.344C463.436 386.491 464.501 385.814 465.673 385.353C466.844 384.891 468.1 384.653 469.368 384.653H469.369L484.523 384.654L484.522 394.141Z" fill="#2F2E41"/>
<path d="M513.943 387.044L506.248 387.044L502.587 358.806L513.944 358.806L513.943 387.044Z" fill="#FFB8B8"/>
<path d="M515.905 394.141L491.094 394.14V393.841C491.094 392.635 491.343 391.44 491.829 390.325C492.314 389.21 493.026 388.198 493.922 387.344C494.819 386.491 495.884 385.814 497.055 385.353C498.227 384.891 499.483 384.653 500.751 384.653H500.752L515.906 384.654L515.905 394.141Z" fill="#2F2E41"/>
<path d="M511.636 374.803L504.51 372.74C503.978 372.587 503.506 372.288 503.153 371.881C502.8 371.474 502.58 370.977 502.523 370.451L495.878 310.541C495.873 310.469 495.839 310.401 495.783 310.351C495.728 310.302 495.654 310.274 495.578 310.274C495.501 310.267 495.425 310.289 495.365 310.335C495.306 310.38 495.267 310.446 495.257 310.519L484.128 368.561C484.061 368.913 483.92 369.249 483.714 369.549C483.508 369.849 483.241 370.106 482.93 370.306C482.618 370.507 482.267 370.646 481.898 370.715C481.529 370.784 481.149 370.783 480.78 370.711L471.672 368.926C471.004 368.793 470.409 368.435 469.996 367.918C469.583 367.401 469.38 366.76 469.424 366.112L476.193 270.978L522.099 266.266L515.278 372.396C515.233 373.078 514.918 373.719 514.395 374.187C513.872 374.656 513.181 374.918 512.463 374.92C512.183 374.92 511.904 374.88 511.636 374.803Z" fill="#2F2E41"/>
<path d="M511.593 188.132C520.107 188.132 527.009 181.565 527.009 173.465C527.009 165.365 520.107 158.798 511.593 158.798C503.079 158.798 496.177 165.365 496.177 173.465C496.177 181.565 503.079 188.132 511.593 188.132Z" fill="#FFB8B8"/>
<path d="M476.122 271.537L486.076 211.911C486.605 208.74 487.838 205.714 489.692 203.032C491.547 200.35 493.98 198.075 496.831 196.358C499.681 194.64 502.884 193.52 506.224 193.072C509.565 192.624 512.968 192.857 516.207 193.758C521.869 195.316 526.718 198.826 529.805 203.603C532.893 208.38 533.997 214.081 532.903 219.592L522.49 272.841L476.122 271.537Z" fill="#F0D9FF"/>
<path d="M515.849 282.206C516.619 281.722 517.268 281.083 517.75 280.335C518.233 279.587 518.537 278.747 518.642 277.875C518.746 277.003 518.648 276.119 518.355 275.287C518.062 274.455 517.581 273.693 516.945 273.057L527.236 254.097L515.647 255.274L507.651 273.098C506.598 274.185 506.001 275.602 505.973 277.08C505.945 278.557 506.487 279.994 507.498 281.116C508.508 282.239 509.916 282.97 511.456 283.171C512.995 283.371 514.558 283.028 515.849 282.206V282.206Z" fill="#FFB8B8"/>
<path d="M518.052 269.713C517.483 269.636 516.952 269.397 516.529 269.026L512.592 265.564C512.166 265.188 511.872 264.697 511.75 264.158C511.627 263.618 511.682 263.055 511.906 262.546L519.776 244.8L518.659 209.735C518.82 208.608 519.212 207.522 519.814 206.539C520.416 205.556 521.216 204.696 522.167 204.007C523.119 203.319 524.204 202.815 525.36 202.526C526.516 202.236 527.721 202.166 528.906 202.32C530.09 202.474 531.231 202.848 532.264 203.422C533.296 203.995 534.2 204.757 534.923 205.663C535.646 206.569 536.174 207.601 536.477 208.702C536.78 209.802 536.853 210.948 536.69 212.075L538.599 234.117C539.179 240.807 537.186 247.47 532.989 252.866L520.717 268.65C520.481 268.954 520.18 269.206 519.835 269.392C519.489 269.577 519.107 269.692 518.712 269.727C518.492 269.747 518.271 269.742 518.052 269.713Z" fill="#F0D9FF"/>
<path d="M422.817 165.474C422.985 166.337 423.35 167.155 423.886 167.869C424.422 168.584 425.116 169.178 425.92 169.61C426.723 170.041 427.616 170.3 428.536 170.368C429.456 170.435 430.381 170.31 431.244 170.002L445.584 186.41L448.963 175.798L434.828 161.843C434.187 160.497 433.048 159.421 431.629 158.821C430.21 158.22 428.608 158.135 427.127 158.583C425.647 159.03 424.39 159.979 423.596 161.249C422.801 162.519 422.524 164.022 422.817 165.474Z" fill="#FFB8B8"/>
<path d="M434.05 172.275C434.345 171.807 434.785 171.435 435.309 171.209L440.194 169.109C440.724 168.883 441.313 168.817 441.884 168.92C442.454 169.023 442.977 169.29 443.382 169.685L457.491 183.499L491.866 196.192C492.894 196.772 493.793 197.539 494.51 198.45C495.226 199.36 495.748 200.397 496.043 201.499C496.339 202.601 496.404 203.748 496.233 204.874C496.062 206 495.66 207.083 495.05 208.061C494.439 209.039 493.631 209.893 492.673 210.574C491.716 211.255 490.626 211.75 489.467 212.03C488.308 212.31 487.102 212.37 485.919 212.206C484.736 212.043 483.598 211.659 482.571 211.077L460.492 204.155C453.79 202.055 448.119 197.711 444.532 191.93L434.039 175.024C433.838 174.699 433.71 174.337 433.665 173.962C433.62 173.587 433.659 173.207 433.778 172.847C433.845 172.647 433.936 172.455 434.05 172.275Z" fill="#F0D9FF"/>
<path opacity="0.1" d="M524.097 224.321L523.469 243.43L511.906 262.546L521.561 241.244L524.097 224.321Z" fill="black"/>
<path d="M509.826 176.221C508.858 176.341 507.877 176.122 507.066 175.606C506.254 175.089 505.667 174.31 505.414 173.413C505.169 172.381 504.634 171.431 503.866 170.666C503.097 169.901 502.124 169.349 501.051 169.07C498.223 168.455 494.767 169.722 492.695 167.683C492.251 167.218 491.93 166.659 491.758 166.052C491.586 165.446 491.568 164.809 491.706 164.194C492.087 162.213 493.577 160.717 495.198 159.52C498.608 157.013 502.736 155.545 507.039 155.31C509.266 155.248 511.495 155.354 513.705 155.625C516.019 155.764 518.308 156.162 520.524 156.811C523.049 157.717 525.292 159.214 527.048 161.164C528.803 163.114 530.014 165.453 530.568 167.966C531.074 170.486 530.996 173.081 530.34 175.57C529.683 178.059 528.463 180.381 526.766 182.375C524.734 184.783 522.113 186.681 519.133 187.904C518.423 188.223 517.61 188.262 516.87 188.013C515.014 187.311 515.317 185.124 516.163 183.665C517.069 182.103 518.463 180.591 517.734 178.691C517.369 177.81 516.668 177.092 515.771 176.681C513.926 175.786 511.862 175.998 509.878 176.216L509.826 176.221Z" fill="#2F2E41"/>
<path d="M417.665 184.504H226.857C224.111 184.501 221.479 183.462 219.537 181.615C217.596 179.767 216.504 177.263 216.501 174.651V135.836C216.504 133.224 217.596 130.719 219.537 128.872C221.479 127.025 224.111 125.986 226.857 125.983H417.665C420.411 125.986 423.043 127.025 424.985 128.872C426.926 130.719 428.019 133.224 428.022 135.836V174.651C428.019 177.263 426.926 179.767 424.985 181.615C423.043 183.462 420.411 184.501 417.665 184.504Z" fill="white"/>
<path d="M417.665 184.802H226.857C224.028 184.799 221.316 183.729 219.315 181.826C217.315 179.923 216.19 177.342 216.187 174.651V135.836C216.19 133.144 217.315 130.564 219.315 128.661C221.316 126.758 224.028 125.687 226.857 125.684H417.665C420.494 125.687 423.206 126.758 425.207 128.661C427.207 130.564 428.332 133.144 428.335 135.836V174.651C428.332 177.342 427.207 179.923 425.207 181.826C423.206 183.729 420.494 184.799 417.665 184.802ZM226.857 126.879C224.361 126.881 221.968 127.826 220.203 129.505C218.438 131.184 217.445 133.461 217.442 135.836V174.651C217.445 177.026 218.438 179.302 220.203 180.982C221.968 182.661 224.361 183.605 226.857 183.608H417.665C420.161 183.605 422.554 182.661 424.319 180.982C426.084 179.302 427.077 177.026 427.08 174.651V135.836C427.077 133.461 426.084 131.184 424.319 129.505C422.554 127.826 420.161 126.881 417.665 126.879H226.857Z" fill="#3F3D56"/>
<path d="M394.442 174.949H250.08C247.334 174.946 244.702 173.907 242.761 172.06C240.819 170.213 239.727 167.709 239.724 165.096V144.793C239.727 142.181 240.819 139.676 242.761 137.829C244.702 135.982 247.334 134.943 250.08 134.94H394.442C397.188 134.943 399.82 135.982 401.761 137.829C403.703 139.676 404.795 142.181 404.798 144.793V165.096C404.795 167.709 403.703 170.213 401.761 172.06C399.82 173.907 397.188 174.946 394.442 174.949Z" fill="#F2F2F2"/>
<path d="M281.146 164.006C287.986 164.006 293.531 158.731 293.531 152.223C293.531 145.715 287.986 140.44 281.146 140.44C274.306 140.44 268.761 145.715 268.761 152.223C268.761 158.731 274.306 164.006 281.146 164.006Z" fill="#FF6584"/>
<path d="M385.471 173.76L367.989 159.811L350.809 146.103C350.355 145.741 349.782 145.543 349.191 145.544C348.599 145.545 348.027 145.745 347.575 146.108L330.45 159.88L326.267 163.244L319.96 158.211L300.793 142.918C300.34 142.556 299.767 142.358 299.175 142.359C298.584 142.36 298.011 142.56 297.56 142.924L278.455 158.287L259.049 173.893C258.951 173.972 258.881 174.078 258.848 174.196C258.815 174.315 258.821 174.44 258.865 174.555C258.91 174.67 258.99 174.769 259.096 174.839C259.201 174.909 259.327 174.947 259.456 174.946L299.241 174.873L311.834 174.85L311.711 174.949L349.25 174.881L385.069 174.815C385.197 174.815 385.323 174.777 385.428 174.706C385.534 174.636 385.614 174.537 385.658 174.421C385.701 174.306 385.707 174.181 385.674 174.063C385.64 173.945 385.569 173.839 385.471 173.76Z" fill="#3F3D56"/>
<path d="M549.372 395H428.862C428.695 395 428.536 394.937 428.418 394.825C428.3 394.713 428.234 394.561 428.234 394.403C428.234 394.244 428.3 394.093 428.418 393.981C428.536 393.869 428.695 393.806 428.862 393.806H549.372C549.539 393.806 549.698 393.869 549.816 393.981C549.934 394.093 550 394.244 550 394.403C550 394.561 549.934 394.713 549.816 394.825C549.698 394.937 549.539 395 549.372 395Z" fill="#CCCCCC"/>
<path d="M379.141 78.7717C378.64 77.9967 377.978 77.3269 377.196 76.8033C376.413 76.2797 375.527 75.9133 374.591 75.7262C374.248 75.6576 373.899 75.6157 373.549 75.6008L325.728 34.9228C324.788 34.0043 323.535 33.4347 322.194 33.3165C321.929 33.2876 321.663 33.2796 321.397 33.2926C320.293 33.3403 319.229 33.6928 318.332 34.3071C317.436 34.9214 316.748 35.7707 316.351 36.7514C315.954 37.732 315.866 38.8014 316.098 39.8288C316.33 40.8562 316.871 41.7972 317.656 42.5365L335.965 57.7221L366.029 82.6532C366.054 83.1228 366.128 83.5888 366.249 84.0446C366.609 85.3648 367.382 86.5498 368.466 87.4424C369.55 88.3351 370.894 88.8932 372.319 89.0427C373.618 89.1872 374.934 88.9802 376.116 88.4456C377.053 88.0287 377.884 87.4236 378.551 86.672C378.62 86.5944 378.683 86.5227 378.746 86.4391C379.624 85.351 380.132 84.0341 380.202 82.6642C380.273 81.2942 379.903 79.9363 379.141 78.7717H379.141Z" fill="#FFB8B8"/>
<path d="M297.345 117.975L296.899 100.741L296.523 86.4392L296.265 76.4309L295.757 56.922C295.656 55.8774 295.238 54.8834 294.554 54.0611C293.869 53.2388 292.948 52.6239 291.902 52.2915C290.857 51.9591 289.732 51.9234 288.665 52.189C287.599 52.4545 286.637 53.0098 285.896 53.7869C285.722 53.9645 285.564 54.1563 285.426 54.3602C284.653 55.4131 284.305 56.6958 284.446 57.9729L285.564 86.4392L286.122 100.741L286.838 118.984C286.631 119.252 286.445 119.533 286.279 119.826C285.833 120.631 285.563 121.514 285.487 122.422C285.41 123.329 285.528 124.242 285.834 125.105C286.153 126.01 286.669 126.84 287.35 127.541C288.03 128.242 288.859 128.797 289.782 129.171C290.705 129.546 291.7 129.729 292.703 129.711C293.706 129.692 294.693 129.472 295.6 129.064C296.653 128.59 297.567 127.877 298.262 126.987C298.957 126.097 299.41 125.059 299.583 123.962C299.755 122.866 299.641 121.747 299.251 120.702C298.861 119.658 298.206 118.721 297.345 117.975H297.345Z" fill="#FFB8B8"/>
<path d="M340.402 69.1576L335.965 57.7221L328.784 39.1985C328.266 37.8507 327.436 36.6312 326.355 35.6305C325.273 34.6299 323.969 33.8737 322.539 33.418C322.426 33.3822 322.307 33.3464 322.194 33.3165C320.808 32.9164 319.348 32.8063 317.914 32.994C316.479 33.1816 315.104 33.6624 313.884 34.4033L289.7 48.9977C287.485 50.3312 285.902 52.4316 285.285 54.8552C284.667 57.2787 285.065 59.8356 286.392 61.9858C289.417 66.9611 292.712 71.7827 296.265 76.4309C299.084 80.0795 304.331 80.4676 305.241 86.4392H323.073L341.124 71.0207L340.402 69.1576Z" fill="#CCCCCC"/>
<path d="M63.4969 208.916C71.5293 208.916 78.0408 202.721 78.0408 195.079C78.0408 187.437 71.5293 181.242 63.4969 181.242C55.4645 181.242 48.953 187.437 48.953 195.079C48.953 202.721 55.4645 208.916 63.4969 208.916Z" fill="#A0616A"/>
<path d="M99.2024 185.554C99.3457 185.663 99.4846 185.778 99.6191 185.9C100.287 186.498 100.815 187.225 101.167 188.031C101.52 188.837 101.689 189.705 101.665 190.578C101.64 191.451 101.422 192.309 101.024 193.097C100.626 193.884 100.058 194.582 99.3573 195.146C99.1939 195.276 99.0234 195.398 98.8465 195.512L99.8308 227.128C99.8589 228.163 99.5354 229.179 98.9085 230.025C98.2815 230.872 97.3845 231.503 96.3505 231.826L96.2905 231.838L69.3083 234.572C68.5747 234.646 67.8329 234.581 67.1258 234.381C66.4187 234.181 65.7603 233.85 65.1885 233.407C64.6167 232.963 64.1429 232.416 63.7945 231.798C63.4461 231.179 63.23 230.501 63.1586 229.802C63.0872 229.104 63.162 228.399 63.3786 227.728C63.5952 227.057 63.9494 226.433 64.4207 225.893C64.8919 225.353 65.471 224.908 66.1243 224.582C66.7777 224.256 67.4925 224.056 68.2273 223.995L87.4615 222.383L90.7878 195.003C90.5703 194.82 90.3665 194.622 90.178 194.412C89.1351 193.237 88.5881 191.736 88.6433 190.2C88.6984 188.663 89.3518 187.201 90.4765 186.097C91.6012 184.993 93.117 184.326 94.7295 184.226C96.342 184.126 97.9362 184.599 99.2024 185.554H99.2024Z" fill="#A0616A"/>
<path d="M87.4505 387.656H94.7106L98.164 361.015H87.4492L87.4505 387.656Z" fill="#A0616A"/>
<path d="M85.599 385.401L99.8959 385.4H99.8964C101.093 385.4 102.278 385.624 103.383 386.06C104.489 386.496 105.493 387.134 106.339 387.939C107.185 388.744 107.856 389.7 108.314 390.751C108.772 391.803 109.008 392.93 109.008 394.068V394.35L85.5995 394.351L85.599 385.401Z" fill="#2F2E41"/>
<path d="M15.2935 378.106L21.5312 381.639L38.8251 360.43L29.6186 355.215L15.2935 378.106Z" fill="#A0616A"/>
<path d="M14.915 375.267L27.1993 382.226L27.1998 382.226C28.2279 382.809 29.1253 383.578 29.8409 384.49C30.5564 385.403 31.0761 386.44 31.3701 387.544C31.6642 388.647 31.727 389.795 31.5549 390.921C31.3827 392.048 30.979 393.131 30.3669 394.109L30.2154 394.351L10.1024 382.958L14.915 375.267Z" fill="#2F2E41"/>
<path d="M96.4235 378.246H88.2942C87.636 378.247 87.0007 378.016 86.5113 377.597C86.0219 377.178 85.7131 376.602 85.6446 375.979L77.4491 302.686C77.4284 302.502 77.3445 302.329 77.2103 302.194C77.0761 302.059 76.8991 301.971 76.7065 301.941C76.514 301.912 76.3166 301.943 76.1449 302.031C75.9731 302.119 75.8365 302.258 75.7562 302.427L60.9714 333.574L34.7958 374.182C34.457 374.703 33.9325 375.09 33.3182 375.272C32.704 375.455 32.0412 375.421 31.4511 375.177L20.9941 370.8C20.6484 370.655 20.3389 370.442 20.0863 370.175C19.8337 369.907 19.6436 369.592 19.5288 369.25C19.414 368.907 19.377 368.545 19.4202 368.188C19.4635 367.831 19.586 367.487 19.7797 367.179L43.8424 328.846L51.2221 296.549C48.9011 282.543 58.8513 261.719 58.9522 261.51L59.0015 261.409L86.4099 251.217L86.5473 251.377C97.3563 285.124 103.943 321.442 99.0796 375.923C99.0196 376.555 98.7143 377.144 98.2232 377.573C97.7321 378.002 97.0905 378.243 96.4235 378.246Z" fill="#2F2E41"/>
<path d="M57.8973 264.821L57.7697 264.566C57.7087 264.444 51.6142 252.215 46.9162 239.144C46.0133 236.617 45.672 233.938 45.9138 231.279C46.1557 228.619 46.9755 226.036 48.3213 223.694C49.6845 221.327 51.5496 219.256 53.7983 217.611C56.0469 215.966 58.6302 214.783 61.3845 214.137C66.166 213.047 71.2001 213.627 75.5696 215.772C79.9392 217.917 83.3534 221.484 85.1902 225.823C88.9168 234.689 87.7291 244.152 86.6114 251.595L86.5892 251.744L86.4466 251.809L57.8973 264.821Z" fill="#3F3D56"/>
<path d="M81.131 187.263H58.037V177.686C63.1059 175.77 68.066 174.14 71.0644 177.686C73.7342 177.686 76.2947 178.695 78.1825 180.491C80.0704 182.287 81.131 184.723 81.131 187.263V187.263Z" fill="#2F2E41"/>
<path d="M56.7584 175.995C42.9524 175.995 39.0881 192.46 39.0881 201.748C39.0881 206.928 41.5504 208.781 45.4196 209.407L46.7861 202.474L49.9865 209.706C51.0734 209.711 52.2152 209.691 53.3989 209.67L54.4841 207.544L56.9039 209.632C66.5955 209.646 74.4285 210.99 74.4285 201.748C74.4285 192.46 71.0395 175.995 56.7584 175.995Z" fill="#2F2E41"/>
<path d="M121.138 395H0.627659C0.461194 395 0.301546 394.937 0.183837 394.825C0.0661277 394.713 0 394.561 0 394.403C0 394.244 0.0661277 394.093 0.183837 393.981C0.301546 393.869 0.461194 393.806 0.627659 393.806H121.138C121.305 393.806 121.464 393.869 121.582 393.981C121.7 394.093 121.766 394.244 121.766 394.403C121.766 394.561 121.7 394.713 121.582 394.825C121.464 394.937 121.305 395 121.138 395Z" fill="#CCCCCC"/>
<path d="M123.404 198.537H96.4149C94.834 198.535 93.3184 197.937 92.2006 196.873C91.0827 195.81 90.4539 194.368 90.4521 192.864V167.186C90.4539 165.682 91.0827 164.24 92.2006 163.177C93.3184 162.113 94.834 161.515 96.4149 161.513H123.404C124.985 161.515 126.501 162.113 127.619 163.177C128.736 164.24 129.365 165.682 129.367 167.186V192.864C129.365 194.368 128.736 195.81 127.619 196.873C126.501 197.937 124.985 198.535 123.404 198.537Z" fill="white"/>
<path d="M123.404 198.537H96.4149C94.834 198.535 93.3184 197.937 92.2006 196.873C91.0827 195.81 90.4539 194.368 90.4521 192.864V167.186C90.4539 165.682 91.0827 164.24 92.2006 163.177C93.3184 162.113 94.834 161.515 96.4149 161.513H123.404C124.985 161.515 126.501 162.113 127.619 163.177C128.736 164.24 129.365 165.682 129.367 167.186V192.864C129.365 194.368 128.736 195.81 127.619 196.873C126.501 197.937 124.985 198.535 123.404 198.537ZM96.4149 162.708C95.1668 162.709 93.9703 163.181 93.0878 164.021C92.2052 164.861 91.7088 165.999 91.7074 167.186V192.864C91.7088 194.051 92.2052 195.19 93.0878 196.029C93.9703 196.869 95.1668 197.341 96.4149 197.343H123.404C124.652 197.341 125.849 196.869 126.731 196.029C127.614 195.19 128.11 194.051 128.112 192.864V167.186C128.11 165.999 127.614 164.861 126.731 164.021C125.849 163.181 124.652 162.709 123.404 162.708H96.4149Z" fill="#3F3D56"/>
<path d="M118.697 188.087H101.122C100.623 188.086 100.144 187.897 99.7915 187.561C99.4385 187.226 99.2399 186.77 99.2393 186.295V173.755C99.2399 173.28 99.4385 172.825 99.7915 172.489C100.144 172.153 100.623 171.964 101.122 171.964H106.07C106.392 171.962 106.708 172.04 106.989 172.19C107.27 172.339 107.506 172.555 107.674 172.816L109.053 174.949H118.697C119.196 174.95 119.675 175.139 120.028 175.475C120.381 175.81 120.579 176.266 120.58 176.741V186.295C120.579 186.77 120.381 187.226 120.028 187.561C119.675 187.897 119.196 188.086 118.697 188.087Z" fill="#F0D9FF"/>
<path d="M118.125 194.422C118.213 194.575 118.294 194.732 118.368 194.894C118.74 195.692 118.93 196.557 118.926 197.43C118.922 198.303 118.724 199.166 118.345 199.961C117.966 200.757 117.415 201.467 116.728 202.046C116.04 202.624 115.232 203.058 114.356 203.319C114.152 203.379 113.945 203.429 113.736 203.468L101.748 232.97C101.352 233.934 100.639 234.751 99.7161 235.3C98.7931 235.848 97.7088 236.099 96.6242 236.015L96.5639 236.004L70.5809 228.562C69.8745 228.36 69.2172 228.026 68.647 227.581C68.0768 227.136 67.605 226.587 67.2589 225.967C66.9127 225.347 66.699 224.669 66.6302 223.97C66.5614 223.271 66.6388 222.566 66.858 221.896C67.0771 221.226 67.4336 220.603 67.907 220.065C68.3803 219.526 68.9611 219.083 69.6157 218.759C70.2704 218.435 70.9859 218.238 71.7211 218.179C72.4562 218.12 73.1964 218.2 73.8988 218.415L92.2832 224.03L106.516 200.024C106.39 199.775 106.283 199.517 106.195 199.254C105.713 197.786 105.821 196.201 106.499 194.805C107.176 193.41 108.375 192.303 109.862 191.701C111.349 191.099 113.017 191.044 114.545 191.547C116.072 192.049 117.348 193.074 118.125 194.422H118.125Z" fill="#A0616A"/>
</g>
<defs>
<clipPath id="clip0_7_44">
<rect width="550" height="395" fill="white"/>
</clipPath>
</defs>
</svg>
