<svg width="100" height="50" viewBox="0 0 100 50" fill="none" xmlns="http://www.w3.org/2000/svg">
<path d="M5.25 17.8958H10V22.5875H14.3442V17.8958H19.0942V32.1042H14.3442V27.3542H10V32.1042H5.25V17.8958ZM25.3392 22.6083H21.15V17.8967H34.2633V22.6083H30.08V32.1058H25.33V22.6083H25.3392ZM36.345 17.8958H41.2975L44.3442 22.8958L47.3875 17.8958H52.3333V32.1042H47.6033V25.0608L44.3367 30.1133H44.255L41 25.0617V32.105H36.3533L36.345 17.8958ZM54.7033 17.8958H59.4533V27.4167H66.1325V32.1133H54.7042L54.7033 17.8958Z" fill="#7F7C82"/>
<path d="M68.3917 10.05H94.7558L92.3542 36.9567L81.5583 39.95L70.7917 36.9608L68.3917 10.05Z" fill="#7F7C82"/>
<path d="M90.3 35.2442L92.3525 12.2508H81.5833V37.6625L90.3 35.2442Z" fill="#9F9EA0"/>
<path d="M77.2083 22.2317L76.9067 18.8517H81.5833V15.5517H73.3083L74.1983 25.5325H81.5833V22.2325L77.2083 22.2317ZM74.3367 27.1833L74.7992 32.3667L81.56 34.2433L81.575 34.2392V30.8058L81.5608 30.81L77.8942 29.81L77.6592 27.1767H75.8733L74.3367 27.1833Z" fill="#EBEBEB"/>
<path d="M89.155 23.1167L89.2358 22.23H81.5642V25.53H85.6283L85.245 29.8108L81.5642 30.8042V34.2375L88.3308 32.3625L88.3808 31.8042L89.155 23.1167ZM81.5717 18.8517H89.5442L89.84 15.5433H81.5717V18.835V18.8517Z" fill="white"/>
</svg>
