<svg width="31" height="31" viewBox="0 0 31 31" fill="none" xmlns="http://www.w3.org/2000/svg">
<path d="M15.5091 2.79176C19.6529 2.79176 20.1436 2.80992 21.7733 2.88259C23.2879 2.94921 24.1057 3.20356 24.651 3.41551C25.3719 3.69408 25.8929 4.03321 26.4321 4.57218C26.9773 5.11721 27.3105 5.63196 27.5892 6.35261C27.8013 6.89764 28.0557 7.72123 28.1223 9.22915C28.195 10.8642 28.2132 11.3548 28.2132 15.4909C28.2132 19.6331 28.195 20.1237 28.1223 21.7527C28.0557 23.2667 27.8013 24.0842 27.5892 24.6292C27.3105 25.3499 26.9713 25.8707 26.4321 26.4097C25.8868 26.9547 25.3719 27.2878 24.651 27.5663C24.1057 27.7783 23.2818 28.0326 21.7733 28.0992C20.1376 28.1719 19.6469 28.1901 15.5091 28.1901C11.3653 28.1901 10.8745 28.1719 9.24487 28.0992C7.73031 28.0326 6.91245 27.7783 6.36721 27.5663C5.64628 27.2878 5.12527 26.9486 4.58609 26.4097C4.04084 25.8646 3.70764 25.3499 3.42896 24.6292C3.21692 24.0842 2.96248 23.2606 2.89584 21.7527C2.82314 20.1176 2.80496 19.6271 2.80496 15.4909C2.80496 11.3487 2.82314 10.8582 2.89584 9.22915C2.96248 7.71518 3.21692 6.89764 3.42896 6.35261C3.70764 5.63196 4.0469 5.11115 4.58609 4.57218C5.13133 4.02715 5.64628 3.69408 6.36721 3.41551C6.91245 3.20356 7.73637 2.94921 9.24487 2.88259C10.8745 2.80992 11.3653 2.79176 15.5091 2.79176ZM15.5091 0C11.2986 0 10.7715 0.0181676 9.11765 0.0908381C7.46981 0.163509 6.33692 0.429967 5.35548 0.811487C4.33164 1.21117 3.46531 1.73803 2.60504 2.60402C1.73871 3.46396 1.21165 4.32995 0.811804 5.34733C0.430135 6.33444 0.163572 7.46083 0.0908736 9.10803C0.0181747 10.7673 0 11.2942 0 15.503C0 19.7119 0.0181747 20.2387 0.0908736 21.892C0.163572 23.5392 0.430135 24.6716 0.811804 25.6527C1.21165 26.6761 1.73871 27.5421 2.60504 28.402C3.46531 29.262 4.33164 29.7949 5.34942 30.1885C6.33692 30.57 7.46375 30.8365 9.11159 30.9092C10.7655 30.9818 11.2926 31 15.503 31C19.7135 31 20.2406 30.9818 21.8945 30.9092C23.5423 30.8365 24.6752 30.57 25.6566 30.1885C26.6744 29.7949 27.5407 29.262 28.401 28.402C29.2613 27.5421 29.7944 26.6761 30.1882 25.6587C30.5699 24.6716 30.8364 23.5452 30.9091 21.898C30.9818 20.2448 31 19.7179 31 15.5091C31 11.3003 30.9818 10.7734 30.9091 9.12014C30.8364 7.47294 30.5699 6.3405 30.1882 5.35945C29.8065 4.32995 29.2795 3.46396 28.4131 2.60402C27.5529 1.74409 26.6865 1.21117 25.6688 0.817542C24.6813 0.436023 23.5544 0.169564 21.9066 0.0968939C20.2466 0.0181676 19.7196 0 15.5091 0Z" fill="#C4C4C4"/>
<path d="M15.5091 7.53955C11.1108 7.53955 7.54248 11.1065 7.54248 15.503C7.54248 19.8996 11.1108 23.4665 15.5091 23.4665C19.9073 23.4665 23.4756 19.8996 23.4756 15.503C23.4756 11.1065 19.9073 7.53955 15.5091 7.53955ZM15.5091 20.6687C12.6556 20.6687 10.3414 18.3553 10.3414 15.503C10.3414 12.6507 12.6556 10.3374 15.5091 10.3374C18.3625 10.3374 20.6767 12.6507 20.6767 15.503C20.6767 18.3553 18.3625 20.6687 15.5091 20.6687Z" fill="#C4C4C4"/>
<path d="M25.6505 7.22463C25.6505 8.25413 24.8145 9.08379 23.7907 9.08379C22.7608 9.08379 21.9308 8.24808 21.9308 7.22463C21.9308 6.19513 22.7668 5.36548 23.7907 5.36548C24.8145 5.36548 25.6505 6.20119 25.6505 7.22463Z" fill="#C4C4C4"/>
</svg>
