<svg width="100" height="40" viewBox="0 0 100 40" fill="none" xmlns="http://www.w3.org/2000/svg">
<path d="M87.1454 16.1293C86.9311 16.1293 86.7228 16.1767 86.5385 16.2887L80.7053 19.9043C80.3279 20.1377 80.0984 20.5787 80.0984 21.0476V28.2658C80.0984 28.7346 80.3279 29.1748 80.7053 29.4089L82.2287 30.3511C82.9689 30.7428 83.2419 30.7365 83.5787 30.7365C84.6745 30.7365 85.3 30.0228 85.3 28.7824V21.6611C85.3 21.5604 85.2188 21.4884 85.1267 21.4884H84.396C84.3023 21.4884 84.2227 21.5623 84.2227 21.6611V28.7861C84.2227 29.3359 83.6891 29.8891 82.8232 29.4242L81.2396 28.4273C81.1837 28.3946 81.1405 28.3349 81.1405 28.2679V21.0496C81.1405 20.9812 81.1832 20.9114 81.2396 20.8768L87.0606 17.2742C87.1151 17.2405 87.18 17.2405 87.2339 17.2742L93.0548 20.8768C93.1102 20.9125 93.154 20.979 93.154 21.0496V28.2679C93.154 28.3368 93.1218 28.4074 93.0672 28.4406L87.2341 32.0433C87.1824 32.0753 87.1136 32.0753 87.0607 32.0433L85.5622 31.0863C85.5174 31.0582 85.4567 31.0604 85.4136 31.0863C85 31.3379 84.9222 31.3671 84.5344 31.5116C84.4388 31.5472 84.2934 31.6028 84.584 31.7776L86.5407 33.0155C86.727 33.1311 86.9346 33.1882 87.1477 33.1882C87.3637 33.1882 87.5682 33.1328 87.7546 33.0155L93.5877 29.4128C93.9652 29.177 94.1946 28.7384 94.1946 28.2697V21.0514C94.1946 20.5825 93.9652 20.1425 93.5877 19.9082L87.7546 16.2926C87.5718 16.1806 87.3621 16.1331 87.1477 16.1331L87.1454 16.1293ZM88.7059 21.2872C87.0449 21.2872 86.0557 22.046 86.0557 23.3076C86.0557 24.6748 87.0375 25.0524 88.6318 25.2217C90.539 25.4221 90.6877 25.7227 90.6877 26.1257C90.6877 26.8246 90.1685 27.1226 88.9414 27.1226C87.3998 27.1226 87.0609 26.7095 86.9475 25.8848C86.934 25.7964 86.8707 25.7253 86.7865 25.7253H86.0292C85.9835 25.7264 85.94 25.7463 85.9077 25.781C85.8754 25.8157 85.8568 25.8624 85.8558 25.9114C85.8558 26.965 86.3898 28.211 88.9397 28.211C90.7854 28.211 91.8501 27.435 91.8501 26.0708C91.8501 24.7221 90.9901 24.3576 89.1998 24.1032C87.3924 23.8445 87.2182 23.7207 87.2182 23.2657C87.2182 22.8903 87.3645 22.3881 88.7044 22.3881C89.9012 22.3881 90.3436 22.6653 90.525 23.5314C90.5408 23.6127 90.6076 23.6792 90.686 23.6792H91.4433C91.4898 23.6792 91.5349 23.6485 91.5673 23.6127C91.5989 23.5744 91.6213 23.5314 91.6168 23.4796C91.4998 21.9879 90.573 21.2863 88.7065 21.2863L88.7059 21.2872Z" fill="#7F7C82"/>
<path d="M52.852 6.66678C52.7868 6.6669 52.7228 6.68524 52.6663 6.71998C52.61 6.75532 52.5633 6.80578 52.5307 6.8664C52.4981 6.92701 52.4809 6.99569 52.4805 7.06566V17.2348C52.4805 17.3346 52.4372 17.424 52.3566 17.4741C52.3171 17.4988 52.2723 17.5118 52.2266 17.5118C52.1809 17.5118 52.136 17.4988 52.0965 17.4741L50.5484 16.5171C50.4355 16.4469 50.3073 16.41 50.1768 16.41C50.0464 16.41 49.9182 16.4469 49.8053 16.5171L43.6255 20.3453C43.3945 20.4883 43.2537 20.7636 43.2537 21.0498V28.7065C43.2535 28.8466 43.2878 28.9843 43.353 29.1056C43.4183 29.227 43.5122 29.3277 43.6253 29.3976L49.8053 33.2261C49.9182 33.2964 50.0463 33.3334 50.1768 33.3334C50.3073 33.3334 50.4355 33.2964 50.5484 33.2261L56.7284 29.3976C56.8415 29.3277 56.9354 29.227 57.0007 29.1056C57.0659 28.9843 57.1002 28.8466 57.1 28.7065V9.61783C57.1 9.3274 56.9523 9.05489 56.7161 8.91337L53.0379 6.7065C52.9801 6.67195 52.916 6.66585 52.852 6.66659V6.66678ZM13.0969 16.2244C12.979 16.2296 12.8683 16.2516 12.7624 16.3175L6.58264 20.1458C6.46943 20.2156 6.37544 20.3163 6.31021 20.4377C6.24497 20.5591 6.21081 20.6968 6.21118 20.8369L6.22375 31.1127C6.22375 31.2557 6.2926 31.3884 6.40965 31.4582C6.52446 31.5321 6.66681 31.5321 6.78111 31.4582L10.447 29.1983C10.6793 29.0505 10.8308 28.7926 10.8308 28.5073V23.7084C10.8308 23.422 10.9711 23.1597 11.2026 23.0174L12.7631 22.0471C12.8759 21.9767 13.0041 21.9399 13.1346 21.9407C13.2651 21.9398 13.3934 21.9766 13.5062 22.0471L15.0661 23.0168C15.2972 23.1591 15.4375 23.4218 15.4375 23.7078V28.5066C15.4375 28.7922 15.5924 29.0516 15.8214 29.1976L19.4872 31.4574C19.6025 31.5314 19.7445 31.5314 19.8587 31.4574C19.9723 31.3872 20.0446 31.2548 20.0446 31.112L20.057 20.8366C20.0577 20.6964 20.0237 20.5585 19.9584 20.437C19.8931 20.3156 19.799 20.2149 19.6855 20.1454L13.5057 16.3173C13.4012 16.2516 13.29 16.2294 13.1713 16.2242H13.0972L13.0969 16.2244ZM68.6301 16.3175C68.4996 16.3171 68.3714 16.3539 68.2585 16.4239L62.0785 20.2524C61.8478 20.3956 61.7067 20.6574 61.7067 20.9434V28.6001C61.7067 28.8879 61.8578 29.1488 62.0905 29.291L68.221 33.0415C68.4473 33.1801 68.7236 33.1906 68.9516 33.0545L72.6671 30.8345C72.785 30.7643 72.8647 30.6331 72.865 30.489C72.8654 30.3449 72.7956 30.2152 72.6791 30.1435L66.4618 26.315C66.3454 26.2437 66.2638 26.0994 66.2638 25.9561V23.5619C66.2638 23.4189 66.3465 23.2877 66.4618 23.2164L68.3938 22.0199C68.5088 21.9486 68.6499 21.9486 68.7656 22.0199L70.6984 23.2164C70.755 23.2513 70.802 23.3016 70.8346 23.3623C70.8672 23.423 70.8843 23.4918 70.8841 23.5619V25.4495C70.884 25.5195 70.9011 25.5884 70.9337 25.6491C70.9663 25.7097 71.0133 25.7601 71.0699 25.795C71.1857 25.8666 71.326 25.867 71.4417 25.795L75.1445 23.4824C75.3743 23.339 75.5163 23.0765 75.5163 22.7914V20.9439C75.5163 20.8038 75.482 20.6662 75.4168 20.5449C75.3515 20.4236 75.2577 20.3228 75.1447 20.2528L69.0019 16.4243C68.889 16.3541 68.7607 16.3174 68.6303 16.3179L68.6301 16.3175ZM50.152 22.0338C50.1866 22.0336 50.2206 22.0427 50.2511 22.0602L52.3688 23.3762C52.4263 23.4118 52.468 23.4778 52.468 23.5489V26.1809C52.468 26.2524 52.4267 26.3182 52.3688 26.3537L50.2511 27.6697C50.1935 27.7048 50.1231 27.7048 50.0652 27.6697L47.9475 26.3537C47.8898 26.318 47.8484 26.252 47.8484 26.1809V23.5486C47.8484 23.4772 47.89 23.4118 47.9475 23.3758L50.0652 22.06C50.0941 22.0421 50.1196 22.0336 50.152 22.0336V22.0334V22.0338Z" fill="#7F7C82"/>
<path d="M31.6618 16.2774C31.5313 16.2772 31.403 16.3139 31.29 16.3838L25.11 20.199C24.879 20.342 24.7386 20.6175 24.7386 20.9035V28.5602C24.7382 28.7003 24.7724 28.838 24.8376 28.9593C24.9029 29.0807 24.9968 29.1813 25.11 29.2511L31.29 33.0796C31.4029 33.1499 31.531 33.1869 31.6615 33.1869C31.792 33.1869 31.9202 33.1499 32.0331 33.0796L38.2131 29.2511C38.3262 29.1812 38.4201 29.0805 38.4854 28.9591C38.5506 28.8378 38.5849 28.7001 38.5847 28.56V20.9033C38.5847 20.6169 38.4442 20.3416 38.2129 20.1988L32.0329 16.3837C31.92 16.3134 31.7916 16.2766 31.6611 16.2772L31.6618 16.2774ZM68.6181 23.1101C68.5935 23.1101 68.5661 23.1101 68.5437 23.1231L67.3548 23.8676C67.3327 23.8808 67.3141 23.9001 67.3011 23.9234C67.288 23.9467 67.2809 23.9733 67.2804 24.0005V25.4628C67.2804 25.5178 67.3102 25.5681 67.3548 25.5958L68.5437 26.3269C68.5641 26.3404 68.5877 26.3476 68.6117 26.3476C68.6357 26.3476 68.6593 26.3404 68.6797 26.3269L69.8686 25.5958C69.9127 25.5686 69.9429 25.5178 69.9429 25.4628V24.0005C69.9429 23.9454 69.9128 23.8952 69.8686 23.8674L68.6797 23.1229C68.6577 23.1088 68.6425 23.11 68.6177 23.11L68.6181 23.1101Z" fill="#7F7C82"/>
</svg>
