<svg width="41" height="42" viewBox="0 0 41 42" fill="none" xmlns="http://www.w3.org/2000/svg">
<path d="M0.408653 5.15385C0.408653 2.7854 2.18466 0.865387 4.37548 0.865387H36.1101C38.3009 0.865387 40.0769 2.7854 40.0769 5.15385V28.7404C40.0769 31.1088 38.3009 33.0288 36.1101 33.0288H22.2262V37.3173H28.1764C29.2719 37.3173 30.1599 38.2773 30.1599 39.4615C30.1599 40.6458 29.2719 41.6058 28.1764 41.6058H12.3091C11.2137 41.6058 10.3257 40.6458 10.3257 39.4615C10.3257 38.2773 11.2137 37.3173 12.3091 37.3173H18.2594V33.0288H4.37548C2.18466 33.0288 0.408653 31.1088 0.408653 28.7404V5.15385ZM36.1101 28.7404V5.15385H4.37548V28.7404H36.1101Z" fill="#7F7C82"/>
</svg>
