<svg width="100" height="50" viewBox="0 0 100 50" fill="none" xmlns="http://www.w3.org/2000/svg">
<path d="M21.7003 27.8698C23.2999 27.8698 24.5966 26.5731 24.5966 24.9735C24.5966 23.3739 23.2999 22.0772 21.7003 22.0772C20.1007 22.0772 18.804 23.3739 18.804 24.9735C18.804 26.5731 20.1007 27.8698 21.7003 27.8698Z" fill="#7F7C82"/>
<path fill-rule="evenodd" clip-rule="evenodd" d="M21.7004 19.0847C25.589 19.0847 29.2015 19.6427 31.9253 20.5804C35.2071 21.7102 37.2249 23.4228 37.2249 24.9735C37.2249 26.5894 35.0865 28.4088 31.5623 29.5765C28.8979 30.4592 25.3917 30.92 21.7004 30.92C17.9157 30.92 14.3319 30.4875 11.6374 29.5668C8.22852 28.4016 6.17529 26.5587 6.17529 24.9735C6.17529 23.4354 8.10185 21.736 11.3375 20.6079C14.0715 19.6547 17.7732 19.0847 21.6998 19.0847H21.7004Z" stroke="#7F7C82" stroke-width="1.66272"/>
<path fill-rule="evenodd" clip-rule="evenodd" d="M16.574 22.0461C18.5167 18.6774 20.8047 15.8268 22.9778 13.9357C25.596 11.6572 28.0876 10.7649 29.4309 11.5395C30.8308 12.3467 31.3385 15.1082 30.5894 18.7444C30.0236 21.4935 28.6707 24.7609 26.8266 27.9586C24.9358 31.2372 22.7708 34.1257 20.6273 35.9992C17.915 38.3702 15.2928 39.2283 13.9196 38.4363C12.5871 37.6685 12.0775 35.1501 12.7168 31.7835C13.2569 28.939 14.6123 25.4476 16.5734 22.046L16.574 22.0461Z" stroke="#7F7C82" stroke-width="1.66272"/>
<path fill-rule="evenodd" clip-rule="evenodd" d="M16.5788 27.9672C14.6306 24.6024 13.3042 21.1958 12.7505 18.3687C12.0841 14.9625 12.5553 12.3581 13.8974 11.5813C15.2959 10.7716 17.9419 11.7108 20.718 14.1758C22.8169 16.0394 24.9722 18.8428 26.8217 22.0375C28.7179 25.3129 30.1391 28.6312 30.6919 31.4239C31.3915 34.9579 30.8253 37.6582 29.4534 38.4524C28.1222 39.223 25.6863 38.4071 23.0888 36.1719C20.8942 34.2835 18.5463 31.3654 16.5788 27.9671V27.9672Z" stroke="#7F7C82" stroke-width="1.66272"/>
<path fill-rule="evenodd" clip-rule="evenodd" d="M53.85 32.3733L50.3 27.01C52.0942 26.8517 53.7108 25.5517 53.7108 23.1767C53.7108 20.76 51.9958 19.2133 49.59 19.2133H44.3067V32.3633H45.9433V27.1383H48.5658L51.9175 32.3633L53.85 32.3733ZM49.3942 25.7092H45.9442V20.6817H49.3942C50.9525 20.6817 52.0167 21.7067 52.0167 23.1858C52.0167 24.665 50.9517 25.7108 49.3942 25.7108V25.7092ZM59.9425 32.6092C61.5008 32.6092 62.7817 32.0967 63.7283 31.1508L63.0183 30.1842C62.2683 30.9533 61.165 31.3867 60.0808 31.3867C58.0308 31.3867 56.7683 29.8883 56.65 28.095H64.3583V27.72C64.3583 24.8617 62.6625 22.6133 59.7833 22.6133C57.0625 22.6133 55.0917 24.8417 55.0917 27.6017C55.0917 30.5792 57.1225 32.6017 59.9417 32.6017L59.9425 32.6092ZM62.9008 27.0092H56.6508C56.73 25.5508 57.7342 23.8342 59.7658 23.8342C61.935 23.8342 62.8808 25.5892 62.9008 27.0092ZM74.1792 32.3725V25.8267C74.1792 23.52 72.5042 22.6125 70.4925 22.6125C68.9342 22.6125 67.7125 23.125 66.6875 24.19L67.3775 25.215C68.225 24.3083 69.1525 23.8942 70.2958 23.8942C71.6758 23.8942 72.7017 24.6233 72.7017 25.905V27.62C71.9325 26.7325 70.8483 26.3183 69.5467 26.3183C67.93 26.3183 66.2133 27.3242 66.2133 29.4533C66.2133 31.5233 67.9283 32.6083 69.5467 32.6083C70.8283 32.6083 71.9133 32.155 72.7017 31.2875V32.3708L74.1792 32.3725ZM70.0792 31.5442C68.6992 31.5442 67.7325 30.6775 67.7325 29.4742C67.7325 28.2517 68.6992 27.3842 70.0792 27.3842C71.1242 27.3842 72.1292 27.7783 72.7017 28.5675V30.3617C72.13 31.15 71.1242 31.545 70.0792 31.545V31.5442ZM81.3292 32.6092C83.0642 32.6092 84.0892 31.8992 84.8192 30.9533L83.8333 30.0467C83.2025 30.8942 82.3942 31.2883 81.4167 31.2883C79.3858 31.2883 78.125 29.7108 78.125 27.6017C78.125 25.4925 79.3867 23.935 81.4167 23.935C82.4025 23.935 83.2108 24.31 83.8333 25.1767L84.8192 24.27C84.09 23.3233 83.0642 22.6142 81.3292 22.6142C78.49 22.6142 76.5775 24.7833 76.5775 27.6025C76.5775 30.4417 78.49 32.6025 81.3292 32.6025V32.6092ZM89.2958 32.6092C90.1625 32.6092 90.6958 32.3525 91.0708 31.9983L90.6375 30.8942C90.44 31.1108 90.0542 31.2883 89.6317 31.2883C88.9817 31.2883 88.665 30.7758 88.665 30.0658V24.1508H90.5983V22.85H88.665V20.2475H87.1858V22.85H85.6083V24.1517H87.1858V30.3825C87.1858 31.8025 87.8958 32.6108 89.2958 32.6108V32.6092Z" fill="#7F7C82"/>
</svg>
