<svg width="41" height="41" viewBox="0 0 41 41" fill="none" xmlns="http://www.w3.org/2000/svg">
<path d="M16.2962 4.07404C9.54607 4.07404 4.07404 9.54607 4.07404 16.2962C4.07404 23.0462 9.54607 28.5183 16.2962 28.5183C23.0462 28.5183 28.5183 23.0462 28.5183 16.2962C28.5183 9.54607 23.0462 4.07404 16.2962 4.07404ZM0 16.2962C0 7.29604 7.29604 0 16.2962 0C25.2963 0 32.5923 7.29604 32.5923 16.2962C32.5923 20.062 31.3149 23.5295 29.1698 26.289L40.1438 37.263C40.9393 38.0585 40.9393 39.3482 40.1438 40.1438C39.3482 40.9393 38.0585 40.9393 37.263 40.1438L26.289 29.1698C23.5295 31.3149 20.062 32.5923 16.2962 32.5923C7.29604 32.5923 0 25.2963 0 16.2962Z" fill="white"/>
</svg>
