<svg width="42" height="42" viewBox="0 0 42 42" fill="none" xmlns="http://www.w3.org/2000/svg">
<path d="M17.2191 4.93943C10.469 4.93943 4.99701 10.4115 4.99701 17.1615C4.99701 23.9116 10.469 29.3837 17.2191 29.3837C23.9692 29.3837 29.4412 23.9116 29.4412 17.1615C29.4412 10.4115 23.9692 4.93943 17.2191 4.93943ZM0.922974 17.1615C0.922974 8.16142 8.21901 0.865387 17.2191 0.865387C26.2192 0.865387 33.5153 8.16142 33.5153 17.1615C33.5153 20.9274 32.2379 24.3949 30.0928 27.1544L41.0667 38.1284C41.8622 38.9239 41.8622 40.2136 41.0667 41.0091C40.2712 41.8046 38.9815 41.8046 38.1859 41.0091L27.212 30.0352C24.4525 32.1803 20.985 33.4577 17.2191 33.4577C8.21901 33.4577 0.922974 26.1617 0.922974 17.1615Z" fill="#7F7C82"/>
</svg>
