<svg width="100" height="50" viewBox="0 0 100 50" fill="none" xmlns="http://www.w3.org/2000/svg">
<path d="M30.8933 15.97C30.8831 15.9061 30.8519 15.8475 30.8047 15.8033C30.7575 15.7591 30.6969 15.7319 30.6325 15.7258C30.5283 15.7092 28.2408 15.5508 28.2408 15.5508L26.4967 13.8067C26.34 13.6317 25.9917 13.6833 25.86 13.72C25.8433 13.72 25.5117 13.8242 24.9708 14C24.4442 12.4783 23.5125 11.0817 21.8725 11.0817H21.7325C21.2617 10.4733 20.6867 10.1925 20.1992 10.1925C16.3792 10.2092 14.5575 14.9742 13.9825 17.4092L11.3125 18.2283C10.4933 18.4892 10.4625 18.5083 10.3542 19.2892L8.10333 36.65L24.9767 39.8083L34.1217 37.8367C34.1217 37.82 30.9108 16.1367 30.8942 15.9717L30.8933 15.97ZM24.035 14.2933C23.61 14.4333 23.1183 14.5733 22.605 14.7308V14.4167C22.6217 13.6317 22.5025 12.85 22.2567 12.1033C23.1117 12.235 23.6867 13.195 24.035 14.2933ZM21.2267 12.305C21.5058 13.1275 21.6433 13.9942 21.6083 14.8633V15.02L18.6583 15.9367C19.2358 13.7808 20.3 12.715 21.225 12.3142L21.2267 12.305ZM20.0933 11.2442C20.2683 11.2483 20.4375 11.3025 20.5817 11.4008C19.3508 11.9742 18.05 13.4208 17.4917 16.3175L15.1583 17.0325C15.8167 14.8342 17.3525 11.2392 20.0917 11.2392L20.0933 11.2442Z" fill="#9F9EA0"/>
<path d="M30.6333 15.725C30.5292 15.7083 28.2417 15.55 28.2417 15.55L26.4975 13.8058C26.4333 13.7392 26.3458 13.7025 26.2533 13.7017L24.98 39.805L34.125 37.8333L30.895 15.985C30.8733 15.8517 30.7683 15.745 30.6342 15.7242L30.6333 15.725Z" fill="#7F7C82"/>
<path d="M21.8717 20.785L20.7367 24.135C20.0508 23.8017 19.3 23.6242 18.5383 23.61C16.7575 23.61 16.6717 24.7267 16.6717 25.0067C16.6717 26.5317 20.6675 27.1183 20.6675 30.7133C20.6675 33.54 18.87 35.355 16.4617 35.355C13.565 35.355 12.0817 33.5575 12.0817 33.5575L12.8517 30.9908C12.8517 30.9908 14.3683 32.2992 15.6617 32.2992C15.8163 32.3053 15.9705 32.2799 16.1149 32.2246C16.2594 32.1693 16.3911 32.0852 16.5021 31.9774C16.6131 31.8696 16.701 31.7404 16.7605 31.5976C16.8201 31.4548 16.8499 31.3014 16.8483 31.1467C16.8483 29.1383 13.5675 29.0517 13.5675 25.7717C13.5675 23.0133 15.5558 20.3258 19.5525 20.3258C21.1233 20.3492 21.8742 20.7842 21.8742 20.7842L21.8717 20.785Z" fill="white"/>
<path d="M42.0617 25.775C41.4092 25.425 41.0717 25.1225 41.0717 24.7083C41.0717 24.1833 41.53 23.8442 42.2742 23.8442C42.8266 23.8561 43.3714 23.9753 43.8783 24.195L44.48 22.3667C44.48 22.3667 43.9283 21.94 42.3117 21.94C40.0567 21.94 38.49 23.2317 38.49 25.0467C38.49 26.0733 39.2167 26.8633 40.1933 27.4267C40.9825 27.885 41.26 28.1883 41.26 28.6667C41.26 29.145 40.8717 29.5442 40.1325 29.5442C39.0433 29.5442 38.0158 28.9808 38.0158 28.9808L37.3775 30.8092C37.3775 30.8092 38.33 31.4475 39.9208 31.4475C42.2375 31.4475 43.9042 30.3075 43.9042 28.2475C43.9167 27.1325 43.0767 26.3558 42.0708 25.7667L42.0617 25.775ZM51.3067 21.9292C50.1667 21.9292 49.265 22.4683 48.575 23.3008L48.5367 23.2883L49.5267 18.1083H46.9475L44.4417 31.3H47.0225L47.8867 26.79C48.225 25.0867 49.1058 24.0333 49.9283 24.0333C50.5033 24.0333 50.73 24.4217 50.73 24.9858C50.73 25.3692 50.6917 25.75 50.6175 26.1258L49.6408 31.2875H52.2217L53.2367 25.9542C53.3475 25.4017 53.4117 24.8408 53.4242 24.2792C53.4117 22.8258 52.6475 21.9492 51.3075 21.9492L51.3067 21.9292ZM59.2483 21.9292C56.1417 21.9292 54.0867 24.7358 54.0867 27.8458C54.0867 29.8508 55.3267 31.4542 57.645 31.4542C60.6925 31.4542 62.7567 28.7225 62.7567 25.5375C62.7567 23.6833 61.6675 21.9292 59.2525 21.9292H59.2483ZM57.9817 29.4833C57.1042 29.4833 56.7292 28.7333 56.7292 27.8083C56.7292 26.33 57.4908 23.9125 58.8975 23.9125C59.8117 23.9125 60.1167 24.7017 60.1167 25.4667C60.1133 27.0542 59.35 29.4833 57.9833 29.4833H57.9817ZM69.3567 21.9292C67.6067 21.9292 66.625 23.4525 66.625 23.4525H66.5867L66.7392 22.0808H64.4533L63.9283 25.5017L62.1367 34.9483H64.7058L65.4208 31.1267H65.4708C65.4708 31.1267 65.9958 31.465 66.9875 31.465C70.0192 31.465 71.9983 28.3583 71.9983 25.2183C72.0108 23.4892 71.2367 21.9367 69.355 21.9367L69.3567 21.9292ZM66.8883 29.5208C66.4989 29.5286 66.1199 29.3947 65.8217 29.1442L66.2483 26.7258C66.5533 25.1217 67.3883 24.0442 68.29 24.0442C69.0792 24.0442 69.3167 24.7708 69.3167 25.4608C69.3208 27.1417 68.3333 29.5217 66.8917 29.5217L66.8883 29.5208ZM75.6967 18.2208C75.3017 18.2183 74.9217 18.375 74.6442 18.6558C74.3667 18.9367 74.2125 19.3175 74.2275 19.7125C74.2275 20.4742 74.7167 21.0042 75.4467 21.0042H75.485C75.6841 21.0121 75.8828 20.9791 76.0687 20.9072C76.2546 20.8354 76.4237 20.7262 76.5658 20.5864C76.7078 20.4466 76.8197 20.2792 76.8946 20.0945C76.9694 19.9098 77.0055 19.7117 77.0008 19.5125C77.0008 18.7625 76.4992 18.2208 75.7092 18.2208H75.6967ZM72.0917 31.275H74.6725L76.4258 22.1333H73.8358L72.0917 31.275ZM83.0025 22.1208H81.2L81.2883 21.6942C81.4408 20.8167 81.965 20.0275 82.8117 20.0275C83.0922 20.0276 83.3711 20.0697 83.6392 20.1525L84.1375 18.1333C84.1375 18.1333 83.6792 17.9083 82.7342 17.9083C81.8145 17.8855 80.917 18.1919 80.2033 18.7725C79.3258 19.5225 78.9117 20.6008 78.7033 21.6917L78.62 22.1183H77.4175L77.0408 24.06H78.2433L76.8717 31.2767H79.4617L80.8333 24.06H82.6133L82.9633 22.1183L83.0025 22.1208ZM89.2175 22.1333L86.8742 28.4225H86.8358L86.1975 22.1333H83.4775L85.0317 30.5267C85.069 30.6701 85.0512 30.8224 84.9817 30.9533C84.6442 31.5758 84.1633 32.1083 83.5783 32.5075C83.13 32.8158 82.6408 33.0608 82.125 33.2342L82.84 35.4258C83.7854 35.1728 84.6533 34.6892 85.3658 34.0183C86.5433 32.915 87.6325 31.2117 88.7492 28.8933L91.9058 22.1283H89.2167L89.2175 22.1333Z" fill="#7F7C82"/>
</svg>
