<svg width="365" height="209" viewBox="0 0 365 209" fill="none" xmlns="http://www.w3.org/2000/svg">
<g clip-path="url(#clip0_46_730)">
<path d="M59.9957 95.0293V36.2932C59.9957 35.4544 60.3281 34.65 60.9199 34.0568C61.5117 33.4637 62.3143 33.1305 63.1513 33.1305C63.9882 33.1305 64.7908 33.4637 65.3826 34.0568C65.9744 34.65 66.3068 35.4544 66.3068 36.2932V95.0293C66.3068 95.8681 65.9744 96.6726 65.3826 97.2657C64.7908 97.8588 63.9882 98.192 63.1513 98.192C62.3143 98.192 61.5117 97.8588 60.9199 97.2657C60.3281 96.6726 59.9957 95.8681 59.9957 95.0293Z" fill="#F0F0F0"/>
<path d="M52.4448 95.0293V36.2932C52.4448 35.4544 52.7773 34.65 53.369 34.0568C53.9608 33.4637 54.7635 33.1305 55.6004 33.1305C56.4373 33.1305 57.2399 33.4637 57.8317 34.0568C58.4235 34.65 58.756 35.4544 58.756 36.2932V95.0293C58.756 95.8681 58.4235 96.6726 57.8317 97.2657C57.2399 97.8588 56.4373 98.192 55.6004 98.192C54.7635 98.192 53.9608 97.8588 53.369 97.2657C52.7773 96.6726 52.4448 95.8681 52.4448 95.0293Z" fill="#F0F0F0"/>
<path d="M44.8939 95.0293V36.2932C44.8939 35.4544 45.2264 34.65 45.8182 34.0568C46.41 33.4637 47.2126 33.1305 48.0495 33.1305C48.8864 33.1305 49.689 33.4637 50.2808 34.0568C50.8726 34.65 51.2051 35.4544 51.2051 36.2932V95.0293C51.2051 95.8681 50.8726 96.6726 50.2808 97.2657C49.689 97.8588 48.8864 98.192 48.0495 98.192C47.2126 98.192 46.41 97.8588 45.8182 97.2657C45.2264 96.6726 44.8939 95.8681 44.8939 95.0293Z" fill="#F0F0F0"/>
<path d="M329.98 188.843C328.71 188.844 327.448 188.624 326.252 188.194L326.068 188.127L326.153 187.718C324.01 183.381 324.759 177.438 328.07 172.552C331.08 168.11 335.656 164.881 339.694 162.032C340.207 161.671 340.815 161.471 341.442 161.459C342.068 161.447 342.684 161.623 343.21 161.964C343.735 162.306 344.147 162.797 344.392 163.375C344.637 163.953 344.704 164.592 344.584 165.208L343.14 172.633C342.098 177.989 340.859 183.059 337.182 186.22C335.163 187.914 332.614 188.842 329.98 188.843Z" fill="#E6E6E6"/>
<path d="M339.437 201.673C338.038 201.665 336.664 201.307 335.439 200.631C334.213 199.955 333.176 198.983 332.421 197.803L332.316 197.64L332.566 197.419C333.211 193.887 336.25 190.739 340.33 189.386C344.038 188.156 348.131 188.357 351.74 188.534C352.217 188.557 352.676 188.722 353.06 189.007C353.443 189.292 353.733 189.685 353.894 190.136C354.054 190.586 354.078 191.075 353.961 191.539C353.844 192.003 353.593 192.422 353.238 192.742L349.177 196.416C346.226 199.085 343.283 201.495 339.733 201.667C339.634 201.671 339.535 201.673 339.437 201.673Z" fill="#E6E6E6"/>
<path d="M326.835 205.6C326.235 201.125 325.618 196.592 326.039 192.069C326.412 188.051 327.609 184.128 330.044 180.911C331.331 179.212 332.904 177.751 334.692 176.595C335.157 176.295 335.584 177.049 335.122 177.349C332.021 179.366 329.637 182.313 328.309 185.77C326.826 189.636 326.588 193.849 326.844 197.955C326.998 200.438 327.326 202.905 327.656 205.368C327.682 205.479 327.667 205.595 327.611 205.695C327.556 205.794 327.466 205.869 327.358 205.905C327.304 205.92 327.247 205.923 327.192 205.916C327.136 205.908 327.082 205.89 327.033 205.862C326.985 205.833 326.942 205.796 326.908 205.751C326.874 205.706 326.849 205.655 326.835 205.6V205.6Z" fill="#F2F2F2"/>
<path d="M325.14 208.173C328.026 202.94 331.374 197.125 337.356 195.266C339.017 194.751 340.762 194.567 342.494 194.722C343.04 194.771 342.904 195.632 342.359 195.584C339.45 195.339 336.548 196.126 334.159 197.807C331.847 199.419 330.047 201.661 328.523 204.038C327.59 205.495 326.754 207.012 325.918 208.528C325.651 209.013 324.87 208.663 325.14 208.173H325.14Z" fill="#F2F2F2"/>
<path d="M323.841 208.096L326.755 208.163L309.183 114.078L306.269 114.628L310.857 139.035H296.074L300.663 114.628L297.749 114.078L280.323 208.163L283.091 208.096L292.252 159.367H314.68L323.841 208.096ZM292.931 155.753L295.395 142.65H311.537L314 155.753H292.931Z" fill="#CACACA"/>
<path d="M196.587 96.528V65.6304C196.587 64.713 198.003 63.9667 199.743 63.9667C201.483 63.9667 202.899 64.713 202.899 65.6304V96.528C202.899 97.4454 201.483 98.1917 199.743 98.1917C198.003 98.1917 196.587 97.4454 196.587 96.528Z" fill="#F0F0F0"/>
<path d="M189.037 96.528V65.6304C189.037 64.713 190.452 63.9667 192.192 63.9667C193.932 63.9667 195.348 64.713 195.348 65.6304V96.528C195.348 97.4454 193.932 98.1917 192.192 98.1917C190.452 98.1917 189.037 97.4454 189.037 96.528Z" fill="#F0F0F0"/>
<path d="M181.486 96.528V65.6304C181.486 64.713 182.901 63.9667 184.641 63.9667C186.381 63.9667 187.797 64.713 187.797 65.6304V96.528C187.797 97.4454 186.381 98.1917 184.641 98.1917C182.901 98.1917 181.486 97.4454 181.486 96.528Z" fill="#F0F0F0"/>
<path d="M245.009 73.8059C244.995 73.712 244.962 73.6221 244.911 73.5421C244.86 73.462 244.793 73.3936 244.714 73.3413L220.924 57.6006C221.282 57.4506 221.582 57.1873 221.778 56.8509H221.778C222.015 56.4354 222.079 55.9426 221.956 55.4801C221.832 55.0175 221.531 54.6228 221.118 54.3821L219.166 53.2526C218.751 53.0143 218.259 52.9502 217.798 53.0741C217.336 53.1981 216.943 53.5001 216.703 53.9141C216.573 54.1416 216.495 54.3951 216.474 54.6563L199.301 43.2939C198.725 41.894 197.85 40.637 196.739 39.6104C195.628 38.5838 194.307 37.8123 192.868 37.3497V32.3398H186.557V37.3498C184.463 38.0208 182.636 39.3414 181.34 41.1208C180.043 42.9002 179.345 45.0465 179.344 47.2498V48.6052H185.656C185.656 49.6837 186.083 50.718 186.844 51.4806C187.605 52.2432 188.637 52.6716 189.713 52.6716C190.789 52.6716 191.821 52.2432 192.582 51.4806C193.342 50.718 193.77 49.6837 193.77 48.6052H200.081V47.2498C200.081 46.6 200.019 45.9517 199.899 45.3133L243.342 74.0578L225.296 96.0479C225.155 96.0472 225.016 96.046 224.875 96.046C223.435 96.046 222.04 96.0801 220.711 96.1388C220.791 95.9155 220.826 95.6784 220.814 95.4413C220.788 94.9632 220.574 94.5148 220.219 94.1943C219.864 93.8737 219.397 93.707 218.919 93.7305L216.668 93.8481C216.191 93.8744 215.744 94.0889 215.424 94.4447C215.104 94.8005 214.938 95.2687 214.961 95.747C214.978 96.0295 215.062 96.304 215.206 96.5475C211.226 96.9715 208.646 97.5559 208.646 97.8532C208.646 98.3404 215.572 97.8766 224.24 97.8543C224.28 97.9672 224.349 98.0676 224.44 98.145C224.532 98.2224 224.642 98.2741 224.759 98.2948C224.877 98.3156 224.998 98.3045 225.11 98.2628C225.222 98.2212 225.321 98.1504 225.397 98.0577L225.564 97.8544C234.207 97.8785 241.104 98.3394 241.104 97.8532C241.104 97.3948 234.972 96.2545 227.027 96.0716L244.863 74.3374C244.923 74.264 244.968 74.1787 244.993 74.0872C245.018 73.9956 245.024 73.8998 245.009 73.8059Z" fill="#CCCCCC"/>
<path d="M245.66 208.322H190.115C188.992 208.321 187.916 207.873 187.122 207.078C186.329 206.282 185.882 205.204 185.881 204.079V112.714C185.88 111.709 185.481 110.745 184.772 110.035C184.062 109.324 183.101 108.924 182.098 108.923H52.1708C51.1678 108.924 50.2062 109.324 49.497 110.035C48.7878 110.745 48.3888 111.709 48.3876 112.714V204.079C48.3864 205.204 47.9399 206.282 47.1461 207.078C46.3524 207.874 45.2762 208.321 44.1537 208.322H42.2532C41.1307 208.321 40.0545 207.874 39.2608 207.078C38.467 206.282 38.0206 205.204 38.0193 204.079V107.793C38.0223 105.098 39.0919 102.514 40.9934 100.608C42.8949 98.7025 45.4731 97.6305 48.1622 97.6274H239.751C242.44 97.6305 245.019 98.7025 246.92 100.608C248.822 102.514 249.891 105.098 249.894 107.793V204.079C249.893 205.204 249.446 206.282 248.653 207.078C247.859 207.874 246.783 208.321 245.66 208.322Z" fill="#D8D8D8"/>
<path d="M249.669 121.348H186.106V124.059H249.669V121.348Z" fill="white"/>
<path d="M249.669 157.945H186.106V160.656H249.669V157.945Z" fill="white"/>
<path d="M133.491 97.1812L131.664 96.4102L130.411 87.2316H113.722L112.364 96.3727L110.729 97.1917C110.651 97.231 110.589 97.2955 110.552 97.3748C110.514 97.4542 110.505 97.5438 110.525 97.629C110.545 97.7143 110.594 97.7903 110.662 97.8447C110.731 97.899 110.816 97.9286 110.903 97.9286H133.34C133.43 97.9287 133.517 97.8976 133.586 97.8407C133.655 97.7838 133.703 97.7047 133.721 97.6166C133.738 97.5286 133.725 97.4372 133.683 97.3578C133.641 97.2784 133.573 97.216 133.491 97.1812Z" fill="#E6E6E6"/>
<path d="M163.148 88.4527H81.1685C80.7384 88.4518 80.3262 88.2798 80.0224 87.9747C79.7186 87.6695 79.548 87.256 79.548 86.8249V75.2386H164.768V86.8249C164.768 87.256 164.598 87.6695 164.294 87.9747C163.99 88.2798 163.578 88.4518 163.148 88.4527Z" fill="#CCCCCC"/>
<path d="M164.854 80.7146H79.4731V31.1394C79.4737 30.6192 79.6802 30.1204 80.0473 29.7525C80.4143 29.3846 80.912 29.1777 81.4311 29.1771H162.896C163.415 29.1777 163.913 29.3846 164.28 29.7525C164.647 30.1204 164.853 30.6192 164.854 31.1394V80.7146Z" fill="#3F3D56"/>
<path d="M159.755 77.1165H84.5726C84.1724 77.1161 83.7888 76.9565 83.5058 76.6729C83.2228 76.3893 83.0636 76.0048 83.0632 75.6037V34.2882C83.0636 33.8871 83.2228 33.5025 83.5058 33.2189C83.7887 32.9353 84.1724 32.7757 84.5726 32.7753H159.755C160.155 32.7757 160.538 32.9353 160.821 33.2189C161.104 33.5025 161.264 33.8871 161.264 34.2882V75.6037C161.264 76.0048 161.104 76.3893 160.821 76.6729C160.538 76.9565 160.155 77.1161 159.755 77.1165Z" fill="white"/>
<path d="M244.035 37.5182C244.754 37.4143 245.487 37.4698 246.182 37.6806C246.878 37.8915 247.519 38.2526 248.06 38.7386C248.601 39.2245 249.03 39.8235 249.315 40.4933C249.6 41.1631 249.735 41.8874 249.711 42.6153L266.194 48.9743L258.726 54.3221L244.218 47.4635C243.001 47.3416 241.871 46.7763 241.041 45.8749C240.212 44.9735 239.742 43.7985 239.719 42.5726C239.696 41.3467 240.123 40.1551 240.919 39.2235C241.714 38.292 242.823 37.6852 244.035 37.5182V37.5182Z" fill="#9E616A"/>
<path d="M306.622 34.3966L309.411 39.4781C308.737 42.701 306.996 45.6008 304.469 47.706C300.2 51.3149 277.876 64.756 277.876 64.756L249.693 50.5756L254.623 44.0093L276.749 51.4412C284.957 43.6731 294.862 37.9341 305.675 34.6817L306.622 34.3966Z" fill="#E4E4E4"/>
<path d="M301.437 118.482C313.584 118.482 323.432 115.266 323.432 111.299C323.432 107.332 313.584 104.116 301.437 104.116C289.29 104.116 279.442 107.332 279.442 111.299C279.442 115.266 289.29 118.482 301.437 118.482Z" fill="#CACACA"/>
<path d="M252.094 202.009L246.253 200.391L249.701 177.042L258.321 179.431L252.094 202.009Z" fill="#9E616A"/>
<path d="M252.018 208.096L233.186 202.879L233.252 202.64C233.789 200.692 235.077 199.037 236.832 198.04C238.586 197.043 240.664 196.786 242.608 197.324L242.608 197.324L254.111 200.511L252.018 208.096Z" fill="#2F2E41"/>
<path d="M235.16 202.085L229.617 199.632L236.42 177.036L244.601 180.656L235.16 202.085Z" fill="#9E616A"/>
<path d="M234.201 208.096L216.328 200.186L216.427 199.96C217.242 198.11 218.756 196.661 220.637 195.931C222.518 195.201 224.611 195.249 226.456 196.066L226.457 196.066L237.373 200.897L234.201 208.096Z" fill="#2F2E41"/>
<path d="M318.555 93.7369C318.555 93.7369 321.493 102.86 303.466 114.398L280.249 137.585L256.126 195.42L241.804 188.985L244.613 181.47L246.498 176.428L247.462 173.848L248.496 171.083L263.828 130.064L276.708 107.463L277.081 95.1988L280.249 86.5539L303.233 78.3801L318.555 93.7369Z" fill="#2F2E41"/>
<path d="M306.834 94.1888C306.834 94.1888 309.772 103.312 291.745 114.85L268.529 138.037L244.405 195.872L230.084 189.437L232.892 181.922L234.777 176.88L235.742 174.3L236.775 171.535L252.108 130.516L256.42 122.948C262.109 112.965 269.022 103.734 276.997 95.4711L281.225 91.0912L281.676 84.314L291.512 78.832L306.834 94.1888Z" fill="#2F2E41"/>
<path d="M292.946 49.5241L300.158 34.1624L312.745 32.4415C312.745 32.4415 322.574 44.9916 319.993 62.6268C319.026 69.24 318.237 75.8239 318.19 81.6031C318.178 83.1408 319.52 83.8275 319.543 85.2176C319.565 86.5832 316.999 88.8078 317.739 89.7358C318.799 91.0149 319.429 92.5956 319.543 94.254C318.649 96.3848 291.613 84.8408 280.249 86.554L292.946 49.5241Z" fill="#E4E4E4"/>
<path d="M310.823 24.7078C314.036 19.2908 312.259 12.289 306.854 9.06894C301.45 5.84885 294.464 7.62979 291.251 13.0468C288.038 18.4638 289.815 25.4655 295.22 28.6856C300.624 31.9057 307.61 30.1247 310.823 24.7078Z" fill="#9E616A"/>
<path d="M308.316 14.7802C308.294 15.0805 308.264 15.4781 308.229 15.928C308.194 17.1595 308.54 18.3718 309.22 19.3979C309.857 20.4775 309.097 26.9978 309.097 26.9978C327.746 13.9691 313.011 0.87971 307.247 2.04327C307.367 0.386399 302.666 1.04277 302.666 1.04277C300.875 -1.75298 296.949 1.95815 296.949 1.95815L297.707 0.680898C294.659 1.4579 291.646 10.8989 291.646 10.8989C292.68 14.9718 308.436 13.1234 308.316 14.7802Z" fill="#2F2E41"/>
<path d="M235.972 55.5671C242.38 47.0238 247.446 37.5478 250.994 27.4682C251.199 26.8653 251.185 26.2088 250.952 25.6157C250.72 25.0226 250.286 24.5313 249.726 24.2292L227.797 12.4525C227.442 12.2605 227.048 12.1522 226.645 12.1359C226.242 12.1195 225.841 12.1954 225.472 12.3579C225.096 12.5217 224.762 12.7693 224.496 13.0818C224.23 13.3943 224.039 13.7636 223.936 14.1615C221.384 23.8745 216.586 32.8489 209.931 40.3586C209.657 40.6643 209.456 41.0286 209.344 41.4238C209.232 41.819 209.211 42.2346 209.283 42.6391C209.353 43.0371 209.512 43.414 209.749 43.7411C209.985 44.0682 210.293 44.3368 210.649 44.5265L232.579 56.3033C233.14 56.603 233.788 56.6936 234.41 56.5588C235.031 56.424 235.585 56.0726 235.972 55.5671Z" fill="#CCCCCC"/>
<path d="M234.475 54.4401C234.357 54.5876 234.191 54.6893 234.007 54.7276C233.822 54.7658 233.63 54.7382 233.463 54.6496L211.534 42.8726C211.427 42.817 211.335 42.7374 211.264 42.6401C211.194 42.5428 211.146 42.4304 211.126 42.3117C211.104 42.1864 211.11 42.0575 211.145 41.9351C211.18 41.8127 211.243 41.7002 211.329 41.6063C218.18 33.8753 223.12 24.6365 225.747 14.6373C225.777 14.5137 225.836 14.3989 225.918 14.3018C226 14.2047 226.103 14.128 226.22 14.0776C226.33 14.0284 226.45 14.0053 226.57 14.0103C226.69 14.0153 226.807 14.0481 226.913 14.1063L248.842 25.8829C249.008 25.9729 249.137 26.1182 249.208 26.2937C249.279 26.4692 249.286 26.6639 249.228 26.8442C245.744 36.7433 240.769 46.0497 234.475 54.4401Z" fill="white"/>
<path d="M226.803 25.2952L241.928 34.1807C243.433 35.0648 244.796 32.7226 243.293 31.8399L228.168 22.9544C226.663 22.0704 225.301 24.4126 226.803 25.2952V25.2952Z" fill="#F0D9FF"/>
<path d="M224.098 30.2652L239.223 39.1507C240.728 40.0347 242.091 37.6926 240.589 36.8099L225.463 27.9244C223.959 27.0403 222.596 29.3825 224.098 30.2652V30.2652Z" fill="#F0D9FF"/>
<path d="M220.943 35.687L236.068 44.5724C237.573 45.4565 238.936 43.1143 237.433 42.2317L222.308 33.3462C220.803 32.4621 219.44 34.8043 220.943 35.6869V35.687Z" fill="#F0D9FF"/>
<path d="M217.787 40.2051L232.912 49.0906C234.417 49.9747 235.78 47.6325 234.278 46.7499L219.152 37.8643C217.647 36.9803 216.285 39.3225 217.787 40.2051V40.2051Z" fill="#F0D9FF"/>
<path d="M286.739 92.4705L292.417 105.268C292.554 105.575 292.613 105.91 292.588 106.245C292.563 106.58 292.455 106.903 292.273 107.186C292.06 107.523 291.752 107.79 291.388 107.952C291.024 108.115 290.62 108.165 290.227 108.098C290.093 108.077 289.962 108.042 289.835 107.993C289.334 107.799 288.929 107.413 288.71 106.921L283.032 94.1228C282.923 93.8788 282.864 93.6158 282.857 93.3489C282.85 93.082 282.896 92.8164 282.992 92.5671C283.185 92.0638 283.569 91.6579 284.061 91.4388C284.553 91.2197 285.111 91.2053 285.613 91.3988C286.115 91.5923 286.52 91.9777 286.739 92.4705Z" fill="#F0D9FF"/>
<path d="M291.959 104.236L293.097 106.819L293.679 110.481C293.717 110.722 293.675 110.969 293.559 111.184C293.443 111.399 293.259 111.569 293.036 111.668C292.814 111.767 292.565 111.79 292.328 111.732C292.091 111.675 291.88 111.541 291.727 111.351L289.373 108.415L288.252 105.889L291.959 104.236Z" fill="#3F3D56"/>
<path d="M281.77 88.9098L282.583 94.0335C282.61 94.2012 282.675 94.3606 282.773 94.4993C282.871 94.6379 282.999 94.7522 283.148 94.8332C283.297 94.9143 283.462 94.9599 283.632 94.9666C283.801 94.9733 283.97 94.9408 284.124 94.8718L284.931 94.5123L286.488 98.0214C286.537 98.1307 286.627 98.2161 286.738 98.259C286.85 98.3018 286.974 98.2986 287.083 98.25C287.192 98.2013 287.277 98.1113 287.32 97.9996C287.363 97.8879 287.36 97.7636 287.312 97.6542L285.755 94.1451L286.562 93.7855C286.829 93.6661 287.039 93.4455 287.144 93.1718C287.249 92.898 287.242 92.5936 287.124 92.3251C287.085 92.2361 287.034 92.1528 286.973 92.0771L283.722 88.0397C283.569 87.8498 283.358 87.7158 283.121 87.6586C282.884 87.6013 282.635 87.6241 282.412 87.7233C282.19 87.8225 282.006 87.9926 281.89 88.2071C281.774 88.4217 281.731 88.6687 281.77 88.9098Z" fill="#3F3D56"/>
<path d="M284.125 98.1577C284.253 97.4409 284.537 96.7608 284.955 96.1655C285.374 95.5703 285.917 95.0742 286.548 94.7123C287.178 94.3504 287.88 94.1314 288.605 94.0708C289.329 94.0103 290.057 94.1096 290.739 94.3617L301.948 80.6815L304.663 89.4691L293.602 101.113C293.103 102.232 292.212 103.13 291.098 103.635C289.983 104.14 288.722 104.218 287.554 103.854C286.386 103.49 285.392 102.709 284.76 101.659C284.128 100.609 283.902 99.3633 284.125 98.1577Z" fill="#9E616A"/>
<path d="M298.237 97.2688L293.3 90.1214L307.32 71.3867L300.098 55.8758L300.624 37.4259L306.591 36.3209L306.666 36.3582C309.567 38.0321 311.81 40.6504 313.021 43.7782C314.51 47.5086 317.834 61.5122 319.682 69.5273C320.046 71.0805 320.006 72.7011 319.567 74.2346C319.128 75.768 318.305 77.1634 317.176 78.2876L298.237 97.2688Z" fill="#E4E4E4"/>
<path d="M159.228 62.7327C159.187 63.0799 159.173 63.4297 159.187 63.779L133.91 82.2103L126.965 79.1301L120.957 89.0264L132.722 95.6768C133.673 96.214 134.771 96.4278 135.853 96.286C136.935 96.1441 137.942 95.6544 138.723 94.8902L164.164 69.9846C165.466 70.3162 166.838 70.2426 168.098 69.7736C169.357 69.3046 170.444 68.4624 171.214 67.359C171.985 66.2556 172.402 64.9433 172.409 63.5967C172.417 62.2501 172.016 60.933 171.259 59.8205C170.502 58.708 169.425 57.853 168.171 57.369C166.917 56.8851 165.546 56.7952 164.24 57.1114C162.934 57.4275 161.755 58.1347 160.859 59.1388C159.964 60.143 159.395 61.3965 159.228 62.7327V62.7327Z" fill="#FFB6B6"/>
<path d="M133.092 82.8841L125.721 95.1952C125.511 95.5455 125.228 95.8464 124.892 96.0773C124.556 96.3083 124.174 96.4639 123.772 96.5335C123.371 96.6032 122.959 96.5853 122.565 96.481C122.171 96.3768 121.804 96.1886 121.489 95.9294L110.452 86.8445C108.67 85.7586 107.391 84.0091 106.894 81.9793C106.397 79.9496 106.724 77.8053 107.802 76.0164C108.88 74.2276 110.622 72.9403 112.646 72.4365C114.67 71.9328 116.81 72.2538 118.598 73.3292L131.748 78.7958C132.124 78.9524 132.462 79.1885 132.74 79.488C133.017 79.7876 133.226 80.1434 133.354 80.5314C133.482 80.9194 133.524 81.3304 133.479 81.7364C133.434 82.1424 133.302 82.5339 133.092 82.8841L133.092 82.8841Z" fill="#F0D9FF"/>
<path d="M101.508 189.891H115.957V165.892H101.508V189.891Z" fill="#CACACA"/>
<path d="M115.233 178.591L113.379 181.33L148.057 204.915L149.911 202.175L115.233 178.591Z" fill="#CACACA"/>
<path d="M102.232 178.591L67.554 202.175L69.4086 204.915L104.087 181.33L102.232 178.591Z" fill="#CACACA"/>
<path d="M148.984 208.096C151.492 208.096 153.525 206.059 153.525 203.545C153.525 201.031 151.492 198.994 148.984 198.994C146.476 198.994 144.443 201.031 144.443 203.545C144.443 206.059 146.476 208.096 148.984 208.096Z" fill="#CACACA"/>
<path d="M108.526 208.096C111.034 208.096 113.067 206.059 113.067 203.545C113.067 201.031 111.034 198.994 108.526 198.994C106.018 198.994 103.985 201.031 103.985 203.545C103.985 206.059 106.018 208.096 108.526 208.096Z" fill="#CACACA"/>
<path d="M68.4813 208.096C70.9893 208.096 73.0225 206.059 73.0225 203.545C73.0225 201.031 70.9893 198.994 68.4813 198.994C65.9733 198.994 63.9401 201.031 63.9401 203.545C63.9401 206.059 65.9733 208.096 68.4813 208.096Z" fill="#CACACA"/>
<path d="M110.178 179.96H106.875V203.545H110.178V179.96Z" fill="#CACACA"/>
<path d="M105.636 176.65H111.829V144.79H105.636V176.65Z" fill="#CACACA"/>
<path d="M90.9808 149.755V142.308C90.9823 140.936 91.5265 139.622 92.4939 138.652C93.4613 137.682 94.773 137.137 96.1412 137.135H123.801C125.169 137.137 126.481 137.682 127.448 138.652C128.416 139.622 128.96 140.936 128.961 142.308V149.755C128.96 151.127 128.416 152.441 127.448 153.411C126.481 154.381 125.169 154.926 123.801 154.927H96.1412C94.773 154.926 93.4613 154.381 92.4939 153.411C91.5265 152.441 90.9823 151.127 90.9808 149.755Z" fill="#3F3D56"/>
<path d="M140.938 200.665L148.587 200.664L152.227 180.779L140.937 180.78L140.938 200.665Z" fill="#FFB8B8"/>
<path d="M138.987 208.096L163.652 208.095V207.783C163.652 206.519 163.404 205.268 162.922 204.101C162.439 202.933 161.732 201.873 160.841 200.979C159.949 200.086 158.891 199.377 157.726 198.893C156.561 198.41 155.313 198.161 154.052 198.161H154.051L138.987 198.161L138.987 208.096Z" fill="#2F2E41"/>
<path d="M152.379 188.334L167.629 154.059C168.903 151.17 169.043 147.906 168.024 144.918C167.004 141.93 164.899 139.436 162.127 137.934L129.049 120.156L113.954 118.87L100.031 117.601L99.9306 117.771C99.8022 117.989 96.8085 123.171 98.8321 128.854C100.367 133.164 104.36 136.531 110.699 138.861C125.496 144.299 142.589 148.946 149.251 150.692C149.546 150.767 149.821 150.904 150.059 151.094C150.296 151.284 150.491 151.522 150.631 151.792C150.771 152.06 150.854 152.354 150.875 152.655C150.896 152.956 150.855 153.258 150.753 153.543L136.585 185.446C136.437 185.85 136.384 186.284 136.43 186.712C136.475 187.141 136.618 187.553 136.848 187.917C137.078 188.282 137.388 188.588 137.754 188.813C138.121 189.039 138.534 189.176 138.962 189.216L149.549 189.989C149.639 189.997 149.728 190.002 149.817 190.002C150.359 190.001 150.89 189.844 151.345 189.548C151.799 189.252 152.159 188.83 152.379 188.334Z" fill="#2F2E41"/>
<path d="M135.946 200.665L143.595 200.664L147.235 180.779L135.945 180.78L135.946 200.665Z" fill="#FFB8B8"/>
<path d="M133.995 208.096L158.661 208.095V207.783C158.661 206.519 158.412 205.268 157.93 204.101C157.448 202.933 156.74 201.873 155.849 200.979C154.958 200.086 153.899 199.377 152.734 198.893C151.57 198.41 150.321 198.161 149.061 198.161H149.06L133.995 198.161L133.995 208.096Z" fill="#2F2E41"/>
<path d="M146.764 190.21L162.014 155.935C163.287 153.046 163.428 149.782 162.408 146.794C161.388 143.806 159.283 141.312 156.511 139.81L123.433 122.032L108.339 120.746L97.4333 119.797L97.4348 119.647C97.3063 119.865 94.3127 125.047 96.3363 130.73C97.8712 135.04 98.7441 138.407 105.083 140.737C119.88 146.175 136.973 150.823 143.636 152.568C143.93 152.643 144.205 152.78 144.443 152.97C144.681 153.16 144.876 153.398 145.015 153.668C145.155 153.936 145.238 154.229 145.259 154.531C145.28 154.832 145.239 155.134 145.138 155.419L130.97 187.322C130.822 187.726 130.769 188.16 130.814 188.588C130.86 189.017 131.003 189.429 131.232 189.793C131.462 190.158 131.772 190.464 132.139 190.689C132.505 190.915 132.919 191.052 133.347 191.092L143.933 191.865C144.023 191.873 144.112 191.878 144.202 191.878C144.744 191.877 145.274 191.72 145.729 191.424C146.184 191.128 146.543 190.706 146.764 190.21Z" fill="#2F2E41"/>
<path d="M137.198 42.5786C139.156 34.3258 134.068 26.0446 125.834 24.082C117.6 22.1193 109.337 27.2185 107.379 35.4712C105.421 43.724 110.508 52.0052 118.743 53.9678C126.977 55.9305 135.239 50.8313 137.198 42.5786Z" fill="#FFB8B8"/>
<path d="M175.114 98.0378C181.522 89.4945 186.588 80.0185 190.136 69.9389C190.341 69.336 190.327 68.6795 190.095 68.0864C189.862 67.4933 189.428 67.002 188.868 66.6999L166.939 54.9232C166.584 54.7312 166.19 54.6229 165.788 54.6066C165.385 54.5902 164.983 54.6661 164.614 54.8286C164.238 54.9924 163.905 55.24 163.638 55.5525C163.372 55.865 163.181 56.2343 163.079 56.6322C160.526 66.3452 155.728 75.3196 149.073 82.8293C148.799 83.135 148.599 83.4993 148.486 83.8945C148.374 84.2897 148.353 84.7053 148.426 85.1098C148.495 85.5078 148.654 85.8847 148.891 86.2118C149.128 86.5389 149.436 86.8075 149.792 86.9972L171.721 98.774C172.282 99.0737 172.931 99.1643 173.552 99.0295C174.173 98.8947 174.727 98.5433 175.114 98.0378Z" fill="#CCCCCC"/>
<path d="M173.617 96.9108C173.499 97.0583 173.334 97.16 173.149 97.1983C172.964 97.2365 172.772 97.2089 172.605 97.1203L150.676 85.3433C150.569 85.2877 150.477 85.2081 150.407 85.1108C150.336 85.0135 150.289 84.9011 150.269 84.7824C150.246 84.6571 150.252 84.5282 150.287 84.4058C150.323 84.2834 150.386 84.1709 150.472 84.077C157.323 76.346 162.262 67.1072 164.889 57.108C164.92 56.9844 164.978 56.8696 165.06 56.7725C165.142 56.6754 165.246 56.5987 165.362 56.5483C165.472 56.4991 165.592 56.476 165.712 56.481C165.832 56.486 165.95 56.5188 166.055 56.577L187.984 68.3536C188.15 68.4436 188.28 68.5889 188.35 68.7644C188.421 68.9399 188.428 69.1346 188.371 69.3149C184.886 79.214 179.911 88.5204 173.617 96.9108Z" fill="white"/>
<path d="M165.945 67.7659L181.071 76.6514C182.575 77.5355 183.938 75.1933 182.436 74.3106L167.31 65.4251C165.806 64.5411 164.443 66.8833 165.945 67.7659V67.7659Z" fill="#CCCCCC"/>
<path d="M163.241 72.7359L178.366 81.6214C179.871 82.5055 181.233 80.1633 179.731 79.2806L164.606 70.3951C163.101 69.511 161.738 71.8532 163.241 72.7359V72.7359Z" fill="#CCCCCC"/>
<path d="M161.115 77.6866L174.871 85.8711C176.24 86.6854 177.703 85.0018 176.337 84.1888L162.581 76.0043C161.213 75.19 159.749 76.8735 161.115 77.6866Z" fill="#CCCCCC"/>
<path d="M156.929 82.6758L172.055 91.5613C173.559 92.4454 174.922 90.1032 173.42 89.2205L158.294 80.335C156.79 79.451 155.427 81.7932 156.929 82.6758V82.6758Z" fill="#CCCCCC"/>
<path d="M131.124 121.4L100.798 121.219L100.789 121.002C100.211 105.752 102.071 91.9371 106.475 78.7691C106.537 78.2763 106.604 77.7495 106.67 77.2323C107.422 71.3411 108.02 66.6636 113.609 64.9217C113.143 64.3011 112.869 63.5575 112.819 62.7826C112.784 62.2676 112.852 61.7507 113.018 61.262C113.184 60.7734 113.445 60.3227 113.786 59.9363C114.113 59.563 114.511 59.2587 114.956 59.041C115.401 58.8233 115.885 58.6965 116.38 58.6682L127.174 58.2997C127.741 58.2959 128.293 58.4835 128.741 58.8323C129.563 59.4442 130.141 60.3293 130.371 61.3292C130.601 62.329 130.468 63.3783 129.996 64.289C129.869 64.5427 129.821 64.6583 129.802 64.7086C130.186 66.7237 131.324 69.1173 132.529 71.6504C134.254 75.2773 136.21 79.3877 136.713 83.7854C136.984 86.1599 136.871 88.5627 136.378 90.9011C136.153 92.1612 136.102 93.4462 136.224 94.7204C136.323 96.6097 136.416 98.3936 135.351 100.119C135.079 100.586 134.768 101.085 134.404 101.637L132.905 105.229L131.124 121.4Z" fill="#F0D9FF"/>
<path d="M85.6139 142.743V80.6352C85.6162 78.6114 86.4193 76.6711 87.8472 75.24C89.275 73.809 91.2109 73.004 93.2302 73.0017H95.3367C97.3559 73.004 99.2918 73.809 100.72 75.24C102.148 76.6711 102.951 78.6114 102.953 80.6352V142.743C102.951 144.766 102.148 146.707 100.72 148.138C99.2918 149.569 97.3559 150.374 95.3367 150.376H93.2302C91.2109 150.374 89.275 149.569 87.8472 148.138C86.4193 146.707 85.6162 144.766 85.6139 142.743Z" fill="#3F3D56"/>
<path d="M166.94 86.834C166.722 87.1071 166.526 87.397 166.354 87.701L135.178 89.9825L130.902 83.6925L120.587 88.9194L127.077 100.792C127.601 101.751 128.422 102.514 129.415 102.966C130.409 103.418 131.522 103.534 132.588 103.298L167.312 95.6044C168.244 96.5751 169.448 97.2385 170.765 97.5064C172.081 97.7744 173.448 97.6342 174.684 97.1046C175.919 96.5749 176.964 95.6809 177.68 94.5414C178.396 93.4018 178.749 92.0708 178.692 90.7254C178.635 89.38 178.17 88.0839 177.36 87.0096C176.55 85.9352 175.433 85.1335 174.157 84.711C172.881 84.2886 171.507 84.2654 170.218 84.6446C168.929 85.0239 167.785 85.7875 166.94 86.834Z" fill="#FFB6B6"/>
<path d="M134.129 90.1224L121.384 96.6788C121.021 96.8654 120.623 96.9714 120.216 96.9897C119.809 97.0079 119.402 96.938 119.024 96.7847C118.647 96.6314 118.306 96.3983 118.026 96.1013C117.747 95.8042 117.534 95.4502 117.403 95.0634L112.813 81.5083C111.872 79.6474 111.705 77.4888 112.348 75.5045C112.99 73.5202 114.391 71.8718 116.243 70.9197C110.594 73.8261 122.36 65.5704 126.85 74.339L135.14 85.9386C135.377 86.2708 135.54 86.6504 135.618 87.0514C135.695 87.4524 135.686 87.8655 135.59 88.2626C135.494 88.6596 135.314 89.0312 135.062 89.3522C134.809 89.6731 134.491 89.9358 134.129 90.1224H134.129Z" fill="#F0D9FF"/>
<path d="M115.365 53.9643C114.443 53.9643 113.425 53.5186 112.278 52.6159C108.901 49.9585 106.487 46.2643 105.407 42.0999C104.327 37.9355 104.64 33.5309 106.298 29.5618C107.132 27.5643 108.692 24.8495 111.388 23.2584C113.326 22.1152 115.603 21.7022 117.584 21.4048C119.3 21.1471 121.037 20.942 122.747 20.7959C124.791 20.6207 127.152 20.5025 129.305 21.3223C130.882 21.9232 132.225 22.9844 133.523 24.0107C133.976 24.3681 134.444 24.7383 134.913 25.0807C136.048 25.9687 137.358 26.6063 138.757 26.9519C139.052 27.0132 139.331 27.1373 139.574 27.3158C139.817 27.4943 140.019 27.7231 140.166 27.9866C140.317 28.2544 140.408 28.5515 140.434 28.8577C140.46 29.1639 140.42 29.4722 140.317 29.7616C140.114 30.3308 139.931 30.8439 140.301 31.3999C140.438 31.5957 140.621 31.7549 140.834 31.8636C141.047 31.9722 141.282 32.0269 141.521 32.0229C141.647 32.0208 141.772 32.0504 141.883 32.1088C141.995 32.1672 142.09 32.2526 142.161 32.3574C142.232 32.4612 142.277 32.5809 142.291 32.7061C142.306 32.8313 142.29 32.9582 142.244 33.0757L142.185 33.2288C142.344 33.2436 142.496 33.2969 142.63 33.3839C142.763 33.471 142.874 33.5893 142.952 33.7287C143.067 33.9271 143.112 34.1592 143.078 34.3866C143.045 34.6139 142.935 34.8229 142.766 34.9791C141.399 36.2838 139.694 37.1782 137.845 37.5608C136.579 37.8095 135.277 37.8065 134.013 37.5519L133.81 37.5122L133.835 37.2863C128.721 35.4583 124.105 38.5606 121.473 42.1072L121.093 41.8667C121.158 41.7345 121.196 41.5905 121.205 41.4432C121.213 41.2959 121.192 41.1485 121.141 41.0098C121.088 40.8434 121.003 40.689 120.891 40.5556C120.778 40.4222 120.64 40.3124 120.485 40.2324C120.172 40.1028 119.827 40.0691 119.495 40.1356C119.162 40.2022 118.857 40.3658 118.617 40.6061C118.373 40.8626 118.185 41.1672 118.064 41.5007C117.944 41.8341 117.895 42.1889 117.919 42.5426C117.988 43.2923 118.178 44.0257 118.483 44.7139C118.606 45.0431 118.734 45.3837 118.839 45.727C119.421 47.6771 119.266 49.7739 118.402 51.6165C118.004 52.457 117.284 53.5287 116.114 53.861C115.871 53.93 115.618 53.9647 115.365 53.9643Z" fill="#2F2E41"/>
<path d="M364.463 209H0.536762C0.394674 209 0.25855 208.943 0.158224 208.842C0.0578982 208.741 0.0015564 208.604 0.0015564 208.462C0.0015564 208.32 0.0578982 208.183 0.158224 208.082C0.25855 207.981 0.394674 207.924 0.536762 207.924H364.463C364.606 207.924 364.742 207.981 364.843 208.082C364.943 208.183 365 208.319 365 208.462C365 208.605 364.943 208.742 364.843 208.842C364.742 208.943 364.606 209 364.463 209Z" fill="#CACACA"/>
</g>
<defs>
<clipPath id="clip0_46_730">
<rect width="365" height="209" fill="white"/>
</clipPath>
</defs>
</svg>
