<svg width="31" height="26" viewBox="0 0 31 26" fill="none" xmlns="http://www.w3.org/2000/svg">
<path d="M9.75229 26C21.4475 26 27.8461 15.996 27.8461 7.32319C27.8461 7.04195 27.8401 6.75446 27.8279 6.47322C29.0727 5.54405 30.1468 4.39315 31 3.07459C29.8408 3.60698 28.61 3.95467 27.3496 4.10581C28.6767 3.28473 29.6703 1.99487 30.1463 0.475315C28.8979 1.23901 27.5326 1.77773 26.109 2.06838C25.1498 1.01635 23.8816 0.319787 22.5004 0.0863747C21.1192 -0.147037 19.702 0.0957069 18.4679 0.777076C17.2338 1.45845 16.2515 2.54049 15.6729 3.85592C15.0943 5.17134 14.9516 6.64689 15.2669 8.05441C12.7391 7.92347 10.2661 7.24565 8.00831 6.06488C5.75053 4.88412 3.75835 3.22677 2.16092 1.20029C1.34902 2.6452 1.10057 4.35501 1.46608 5.98221C1.83159 7.60941 2.78362 9.03191 4.12869 9.96059C3.11889 9.9275 2.13122 9.64686 1.24727 9.14187V9.22312C1.24636 10.7394 1.75421 12.2093 2.68448 13.3828C3.61476 14.5564 4.91004 15.3612 6.35016 15.6604C5.41474 15.9246 4.43298 15.9631 3.48084 15.7729C3.88721 17.0769 4.67787 18.2175 5.74245 19.0354C6.80704 19.8533 8.09245 20.3077 9.41928 20.3352C7.16671 22.1616 4.38414 23.1523 1.51973 23.1476C1.01175 23.1468 0.504265 23.1147 0 23.0514C2.90994 24.9784 6.29498 26.0019 9.75229 26Z" fill="#C4C4C4"/>
</svg>
