<svg width="41" height="42" viewBox="0 0 41 42" fill="none" xmlns="http://www.w3.org/2000/svg">
<path d="M4.20386 0.865387C1.95383 0.865387 0.129822 2.89206 0.129822 5.3921V16.7089V37.0791C0.129822 39.5791 1.95383 41.6058 4.20386 41.6058H36.7962C39.0462 41.6058 40.8702 39.5791 40.8702 37.0791V16.7089V5.3921C40.8702 2.89206 39.0462 0.865387 36.7962 0.865387H4.20386ZM36.7962 5.3921V14.4455H4.20386V5.3921H36.7962ZM4.20386 18.9722H36.7962V37.0791H4.20386V18.9722ZM16.426 9.91881C16.426 11.1688 15.514 12.1822 14.389 12.1822C13.2639 12.1822 12.3519 11.1688 12.3519 9.91881C12.3519 8.66879 13.2639 7.65545 14.389 7.65545C15.514 7.65545 16.426 8.66879 16.426 9.91881ZM8.2779 12.1822C9.40291 12.1822 10.3149 11.1688 10.3149 9.91881C10.3149 8.66879 9.40291 7.65545 8.2779 7.65545C7.15288 7.65545 6.24088 8.66879 6.24088 9.91881C6.24088 11.1688 7.15288 12.1822 8.2779 12.1822Z" fill="#7F7C82"/>
</svg>
