<svg width="100" height="50" viewBox="0 0 100 50" fill="none" xmlns="http://www.w3.org/2000/svg">
<path d="M46.25 34.0833H42.4V34.4833C43.6033 34.4833 43.8033 34.7333 43.8033 36.2483V38.9758C43.8033 40.5008 43.6033 40.7808 42.4 40.7808C41.4775 40.6608 40.8358 40.1392 39.9933 39.2167L38.9908 38.1333C40.3142 37.8833 41.0367 37.05 41.0367 36.1283C41.0367 34.965 40.0342 34.0425 38.1492 34.0425H34.3792V34.4425C35.5825 34.4425 35.7825 34.6925 35.7825 36.2075V38.935C35.7825 40.46 35.5825 40.74 34.3792 40.74V41.14H38.6308V40.74C37.4275 40.74 37.2275 40.4592 37.2275 38.935V38.1733H37.5883L39.955 41.14H46.2117C49.3 41.14 50.6233 39.4958 50.6233 37.5708C50.6633 35.6858 49.34 34.0817 46.2517 34.0817L46.25 34.0833ZM37.2667 37.5725V34.7333H38.15C39.1125 34.7333 39.5533 35.415 39.5533 36.1775C39.5533 36.94 39.1117 37.5808 38.15 37.5808L37.2667 37.5725ZM46.3308 40.5392H46.17C45.4083 40.5392 45.2867 40.3392 45.2867 39.3758V34.7258H46.3283C48.5742 34.7258 48.975 36.37 48.975 37.6133C48.975 38.9367 48.5333 40.5408 46.3283 40.5408L46.3308 40.5392ZM22.4267 38.3833L23.91 34.0117C24.3517 32.7283 24.16 32.3675 22.7867 32.3675V31.9258H26.8367V32.3675C25.4733 32.3675 25.1533 32.6883 24.6308 34.2525L22.1833 41.5833H21.8625L19.6567 34.8858L17.45 41.5833H17.1692L14.8025 34.2442C14.2808 32.68 13.9692 32.3592 12.7167 32.3592V31.9175H17.45V32.3592C16.1667 32.3592 15.8458 32.64 16.2867 34.0033L17.7308 38.375L19.8975 31.9167H20.2975L22.4267 38.3833ZM29.725 41.5125C27.3583 41.5125 25.4333 39.7875 25.4333 37.6625C25.4333 35.5767 27.35 33.8125 29.725 33.8125C32.1 33.8125 34.0167 35.5375 34.0167 37.6625C34.0167 39.7875 32.1 41.5125 29.725 41.5125ZM29.725 34.4542C27.76 34.4542 27.0783 36.2192 27.0783 37.6225C27.0783 39.0258 27.76 40.7908 29.725 40.7908C31.73 40.7908 32.4125 39.0258 32.4125 37.6225C32.4125 36.2592 31.7308 34.4542 29.725 34.4542ZM55.9558 40.79V41.2317H51.0225V40.79C52.4667 40.79 52.7058 40.4292 52.7058 38.2633V34.8133C52.7058 32.6467 52.4558 32.3267 51.0225 32.3267V31.885H55.4742C57.68 31.885 58.9242 33.0083 58.9242 34.5317C58.9242 36.015 57.6808 37.1783 55.4742 37.1783H54.2708V38.3017C54.2708 40.4267 54.5208 40.7883 55.9542 40.7883L55.9558 40.79ZM55.4742 32.6883H54.2708V36.4183H55.4742C56.6775 36.4183 57.2392 35.585 57.2392 34.5733C57.2392 33.5617 56.6775 32.6883 55.4742 32.6883ZM73.6433 39.225L73.5233 39.625C73.3233 40.3467 73.0817 40.5875 71.5583 40.5875H71.2775C70.1542 40.5875 69.9542 40.3375 69.9542 38.8225V37.82C71.6375 37.82 71.7592 37.9808 71.7592 39.1033H72.1592V35.895H71.7592C71.7592 37.0183 71.6392 37.1783 69.9542 37.1783V34.775H71.1175C72.6425 34.775 72.8825 35.025 73.0825 35.7375L73.2025 36.1375H73.5633L73.4025 34.1325H67.1058V34.5325C68.3092 34.5325 68.5092 34.7825 68.5092 36.2975V39.025C68.5092 40.4283 68.3483 40.79 67.3858 40.83C66.5025 40.71 65.8608 40.1883 65.0192 39.2658L64.0167 38.1825C65.34 37.9325 66.0625 37.0992 66.0625 36.1775C66.0625 35.0142 65.06 34.0917 63.175 34.0917H59.405V34.4917C60.6083 34.4917 60.8083 34.7417 60.8083 36.2567V38.9842C60.8083 40.5092 60.6083 40.7892 59.405 40.7892V41.1892H63.6567V40.7892C62.4533 40.7892 62.2533 40.5083 62.2533 38.9842V38.2225H62.6142L64.9808 41.1892H73.8042L73.9242 39.1842H73.6433V39.225ZM62.2933 37.5808V34.7333H63.1767C64.1392 34.7333 64.58 35.415 64.58 36.1775C64.58 36.94 64.1383 37.5808 63.1767 37.5808H62.2933Z" fill="#7F7C82"/>
<path d="M78.015 41.5125C77.1734 41.5125 76.4109 41.0708 76.0984 40.7908C75.9784 40.9108 75.8175 41.2325 75.7375 41.5125H75.3375V38.5458H75.7792C75.94 39.9492 76.9425 40.7917 78.1859 40.7917C78.8675 40.7917 79.4292 40.3917 79.4292 39.75C79.4292 39.1883 78.9475 38.7475 78.0659 38.3467L76.8625 37.785C76.0209 37.385 75.3792 36.6617 75.3792 35.7392C75.3792 34.6975 76.3417 33.8225 77.665 33.8225C78.3867 33.8225 78.9884 34.0642 79.3484 34.3842C79.4684 34.3042 79.5484 34.0633 79.6292 33.8225H80.0292V36.3492H79.5875C79.4267 35.3467 78.8659 34.5042 77.7425 34.5042C77.1409 34.5042 76.5792 34.865 76.5792 35.3875C76.5792 35.9492 77.0209 36.2292 78.0625 36.7108L79.2259 37.2725C80.2675 37.7542 80.67 38.5558 80.67 39.1892C80.63 40.5525 79.4667 41.5142 78.0234 41.5142L78.015 41.5125Z" fill="#7F7C82"/>
<path d="M84.6333 41.5125C83.7917 41.5125 83.0292 41.0708 82.7167 40.7908C82.5967 40.9108 82.4358 41.2325 82.3558 41.5125H81.9558V38.5458H82.3975C82.5583 39.9492 83.5608 40.7917 84.8042 40.7917C85.4858 40.7917 86.0475 40.3917 86.0475 39.75C86.0475 39.1883 85.5658 38.7475 84.6842 38.3467L83.4808 37.785C82.6392 37.385 81.9975 36.6617 81.9975 35.7392C81.9975 34.6975 82.96 33.8225 84.2833 33.8225C85.005 33.8225 85.6067 34.0642 85.9667 34.3842C86.0867 34.3042 86.1667 34.0633 86.2475 33.8225H86.6475V36.3492H86.2058C86.045 35.3467 85.4842 34.5042 84.3608 34.5042C83.7592 34.5042 83.1975 34.865 83.1975 35.3875C83.1975 35.9492 83.6392 36.2292 84.6808 36.7108L85.8442 37.2725C86.8858 37.7542 87.2883 38.5558 87.2883 39.1892C87.2483 40.5525 86.085 41.5142 84.6417 41.5142L84.6333 41.5125Z" fill="#7F7C82"/>
<path d="M39.0025 16.2375C39.0025 20.5992 41.5083 24.3575 45.1742 26.1208L39.9775 11.7833C39.3742 13.175 39.0025 14.66 39.0025 16.2383V16.2375ZM57.425 15.6792C57.425 14.3333 56.9142 13.3592 56.4967 12.6625C55.94 11.7342 55.43 10.9917 55.43 10.0642C55.43 9.04333 56.2192 8.11416 57.2858 8.11416H57.425C55.475 6.30749 52.8767 5.23916 50.0083 5.23916C46.1567 5.28583 42.8167 7.23416 40.8208 10.2042H41.5167C42.6767 10.2042 44.44 10.065 44.44 10.065C45.0433 10.0183 45.09 10.9 44.5233 10.9933C44.5233 10.9933 43.92 11.0767 43.2708 11.0767L47.2708 22.9558L49.6833 15.7642L47.9667 11.0775L46.8067 10.9942C46.2033 10.9475 46.2958 10.0658 46.8533 10.0658C46.8533 10.0658 48.6633 10.205 49.73 10.205C50.89 10.205 52.6533 10.0658 52.6533 10.0658C53.2567 10.0192 53.3033 10.9008 52.7367 10.9942C52.7367 10.9942 52.1333 11.0775 51.4842 11.0775L55.4842 22.9108L56.5975 19.2442C57.0617 17.7125 57.4325 16.6458 57.4325 15.6708L57.425 15.6792ZM50.1858 17.2125L46.8917 26.7708C47.8667 27.0492 48.9333 27.235 50 27.235C51.3 27.235 52.5058 27.0033 53.6667 26.6317C53.62 26.585 53.62 26.5483 53.5833 26.4925L50.1858 17.2125ZM59.6525 10.9958L59.7358 12.1092C59.7358 13.2225 59.55 14.4758 58.9008 16.0533L55.5675 25.7508C58.8158 23.8483 61.0425 20.3217 61.0425 16.2383C60.9958 14.3358 60.4858 12.5717 59.6508 10.995L59.6525 10.9958ZM50 3.42999C42.9467 3.42999 37.1933 9.18416 37.1933 16.2367C37.1933 23.2892 42.9467 29.0442 50 29.0442C57.0533 29.0442 62.8067 23.29 62.8067 16.2375C62.8067 9.18499 57.0533 3.42999 50 3.42999ZM50 28.4867C43.2717 28.4867 37.7967 23.0117 37.7967 16.2367C37.7967 9.49999 43.2717 4.03333 50 4.03333C56.7283 4.03333 62.2033 9.50832 62.2033 16.2367C62.2033 23.0117 56.7283 28.4867 50 28.4867Z" fill="#7F7C82"/>
</svg>
